<svg xmlns="http://www.w3.org/2000/svg" fill-rule="evenodd" viewBox="0 0 100 100">
    <path d="M88.127 7.64H64.729a5.28 5.28 0 0 0-5.274 5.274v4.52l-.001.01.001.01V47.9l-.001.01.001.01v4.48a5.281 5.281 0 0 0 5.274 5.276h23.398a5.285 5.285 0 0 0 5.282-5.276V12.914c0-2.908-2.37-5.274-5.282-5.274zM62.36 18.897h28.143v27.56H62.36v-27.56zm2.369-8.351h23.398a2.374 2.374 0 0 1 2.376 2.368v3.077H62.36v-3.077a2.371 2.371 0 0 1 2.369-2.368zm23.398 44.225H64.729a2.371 2.371 0 0 1-2.368-2.37v-3.037h28.143V52.4a2.377 2.377 0 0 1-2.377 2.371zm-4.384 9.545c-.803 0-1.453.65-1.453 1.453v18.909H51.801a1.452 1.452 0 1 0 0 2.906h31.942c.803 0 1.453-.65 1.453-1.453V65.77c0-.803-.65-1.454-1.453-1.454zm-66.882-12.08c.803 0 1.453-.65 1.453-1.453V20.702h32.351a1.452 1.452 0 1 0 0-2.906H16.861c-.803 0-1.453.65-1.453 1.453v31.534c0 .803.65 1.453 1.453 1.453zm24.621 21.505c-.803 0-1.453.65-1.453 1.453v14.26h-7.606v-14.26a1.452 1.452 0 1 0-2.906 0v14.26H20.1v-14.26a1.452 1.452 0 1 0-2.906 0v14.26H9.526v-14.26a1.452 1.452 0 1 0-2.906 0v15.713c0 .803.65 1.453 1.453 1.453h33.409c.803 0 1.453-.65 1.453-1.453V75.194c0-.802-.65-1.453-1.453-1.453zm7.178-4.492L26.006 56.304a1.452 1.452 0 0 0-1.438-.002L1.767 69.247a1.447 1.447 0 0 0-.729 1.29c-.001.023-.007.045-.007.069 0 .803.65 1.453 1.453 1.453h44.775c.19 0 .37-.039.537-.105a1.451 1.451 0 0 0 .864-2.705zM25.283 59.237l17.352 9.916H7.818l17.465-9.916z"/>
</svg>
