<svg xmlns="http://www.w3.org/2000/svg" fill-rule="evenodd" viewBox="0 0 100 100">
    <path d="M9 38a1.5 1.5 0 0 0 1.5-1.5V27H20a1.5 1.5 0 0 0 0-3H9a1.5 1.5 0 0 0-1.5 1.5v11A1.5 1.5 0 0 0 9 38Zm11 36h-9.5v-9.5a1.5 1.5 0 0 0-3 0v11A1.5 1.5 0 0 0 9 77h11a1.5 1.5 0 0 0 0-3Zm72.5-11a1.5 1.5 0 0 0-1.5 1.5V74h-9.5a1.5 1.5 0 0 0 0 3h11a1.5 1.5 0 0 0 1.5-1.5v-11a1.5 1.5 0 0 0-1.5-1.5Zm0-39h-11a1.5 1.5 0 0 0 0 3H91v9.5a1.5 1.5 0 0 0 3 0v-11a1.5 1.5 0 0 0-1.5-1.5Zm-72 9a1.5 1.5 0 0 0-1.5 1.5v32a1.5 1.5 0 0 0 3 0v-32a1.5 1.5 0 0 0-1.5-1.5Zm11 0a1.5 1.5 0 0 0-1.5 1.5v32a1.5 1.5 0 0 0 3 0v-32a1.5 1.5 0 0 0-1.5-1.5Zm6 0a1.5 1.5 0 0 0-1.5 1.5v32a1.5 1.5 0 0 0 3 0v-32a1.5 1.5 0 0 0-1.5-1.5Zm6 0a1.5 1.5 0 0 0-1.5 1.5v32a1.5 1.5 0 0 0 3 0v-32a1.5 1.5 0 0 0-1.5-1.5Zm10 0a1.5 1.5 0 0 0-1.5 1.5v32a1.5 1.5 0 0 0 3 0v-32a1.5 1.5 0 0 0-1.5-1.5Zm11 0a1.5 1.5 0 0 0-1.5 1.5v32a1.5 1.5 0 0 0 3 0v-32a1.5 1.5 0 0 0-1.5-1.5Zm6 0a1.5 1.5 0 0 0-1.5 1.5v32a1.5 1.5 0 0 0 3 0v-32a1.5 1.5 0 0 0-1.5-1.5ZM82 66.5v-32a1.5 1.5 0 0 0-3 0v32a1.5 1.5 0 0 0 3 0Z"/>
</svg>
