<?xml version="1.0" encoding="UTF-8"?> <!-- Creator: CorelDRAW 2020 (64-Bit) --> <svg xmlns="http://www.w3.org/2000/svg" xmlns:xlink="http://www.w3.org/1999/xlink" xmlns:xodm="http://www.corel.com/coreldraw/odm/2003" xml:space="preserve" width="88mm" height="22mm" style="shape-rendering:geometricPrecision; text-rendering:geometricPrecision; image-rendering:optimizeQuality; fill-rule:evenodd; clip-rule:evenodd" viewBox="0 0 8800 2200"> <defs> <style type="text/css"> <![CDATA[ .str0 {stroke:black;stroke-width:20;stroke-miterlimit:22.9256} .fil0 {fill:#2B2B2A} .fil2 {fill:black} .fil1 {fill:#2B2B2A;fill-rule:nonzero} .fil3 {fill:black;fill-rule:nonzero} ]]> </style> </defs> <g id="Слой_x0020_1"> <metadata id="CorelCorpID_0Corel-Layer"></metadata> <path class="fil0" d="M499.7 657.29c3.85,-28.93 27.01,-29.75 29.71,-72.75 2.29,-36.14 -13.75,-58.22 -23.04,-82.34 -18.52,9.93 -33.12,37.57 -38.48,58.78 -10.39,41.01 3.92,48.33 13.67,78.82 15.97,49.86 -34.26,101.77 -48.71,144.1 -11.43,-21.1 19.45,-55.18 10.81,-97.83 -6.16,-30.49 -29.02,-61.77 -46.01,-73.39 -52.05,87.79 -6.24,120.96 12.27,156.69 16.51,31.84 3.79,56.65 -5.58,84.07 -6.7,19.64 -17.87,67.88 -25.68,82.39 -15.78,-22.04 12.5,-55.43 -6.68,-101.47 -10.97,-26.34 -40.37,-57.26 -60.89,-68.19 -25,33.63 -13.15,98 11.81,130.58 33.01,43.08 57.64,21.15 43.74,112.68 -5.47,36.15 -7.02,70.63 -9.22,107.15 -5.69,-4.15 -3.22,-1.58 -8.27,-7.11 -11.68,-12.74 -7.74,-21.33 -6.82,-38.46 2.99,-55.05 -48.35,-125.57 -87.24,-119.99 -5.06,34.97 -4.88,68.38 9.8,98.36 21.26,43.37 61.89,48.64 87.08,88.84 11.25,17.93 8.97,79.78 12.3,105.3 2.04,15.61 9.08,36.89 -0.46,49.15 -27.55,-52.21 -6.12,-116.77 -124.42,-136.44 8.51,150.37 96.54,101.8 135.96,165.86 7.76,12.6 9.97,33.05 14.24,48.85 8.61,31.93 21.22,62.54 29.44,93.31 -35.74,-22.12 -11.33,-106.59 -155,-105.92 24.85,124.8 111.43,100.72 145.06,119.15 28.02,15.35 51.48,74.13 75.97,117.67 8.9,15.79 19.01,26.79 25.21,42.58 -42.97,-15.93 -23.13,-105.24 -176.95,-76.73 10.34,30.93 39.1,64.24 62.75,78.15 64.19,37.7 100.79,-18.98 151.47,46.68 31.44,40.74 85.37,89.48 100.78,108.94 -32.08,-4.19 -23.91,-10.24 -40.66,-29.32 -35.65,-40.64 -120.37,-54.44 -160.86,-18.84 12.09,23.48 48.11,54.99 76.97,66.72 67.51,27.48 105.35,-35.4 173.38,20.18 33.08,27.03 73.6,53.28 112.11,72.58l25.64 17.17c-34.44,1.63 -25.31,-7.47 -52.16,-22.35 -50.69,-28.1 -125.7,-8.19 -158.3,30.39 8.45,13.47 27.3,22.85 40.22,29.38 96.68,48.77 113.48,-15.3 164.22,-22.18 49.62,-6.74 69.25,10.47 112.11,24.99 26.93,9.13 95.29,21.97 112.92,30.42 -29.03,12.79 -63.72,-22.41 -120.25,1.37 -29.99,12.61 -66.34,50.16 -77.3,76.7 53.95,20.93 111.58,24.22 152.55,-15.02 41.13,-39.4 30.18,-68.65 134.53,-51.53 -19.23,10.16 -67.6,14.38 -64.24,40.65 27.58,-3.22 71.59,-33.35 110.22,-33.24 39.39,0.13 66.22,24.59 96.79,29.69 21.03,3.51 8.56,2.39 15.07,-3.11 -8.3,-20.51 -46.92,-23.86 -65.6,-33.96 39.44,-6.88 44.02,-11.11 80.37,2.08 32.12,11.66 27.69,24.62 51.62,47.4 42.61,40.56 96.34,39.25 155.01,17.02 -11.18,-25.78 -48.17,-64.27 -77.44,-76.73 -56.98,-24.25 -94.2,14.09 -122.42,-3.43 76.21,-3.4 157.29,-61.2 224.63,-53.61 24.54,2.77 31.31,14.51 48.17,23.95 46.79,26.18 109.45,13.77 149.37,-20.58l4.93 -4.77 2.29 -2.69 2.23 -2.81c-32.53,-38.57 -107.89,-58.53 -158.39,-30.48 -26.12,14.51 -17.7,24.26 -52.24,22.18l23.24 -15.21c60.43,-30.79 125.37,-89.39 160.19,-96.66 52.91,-11.05 68.01,23.62 124.88,3.38 30.96,-11.01 66.71,-44.12 79.66,-67.89 -23.43,-21.89 -84.55,-25.68 -118.36,-11.17 -41.75,17.92 -46.73,55.19 -82.73,59.19l67.57 -70.13c20.21,-22.63 39.05,-55.16 70.34,-69.29 34.97,-15.79 72.8,9.17 114.55,-15.86 22.18,-13.29 52.48,-48.83 62.43,-78.08 -151.59,-31.13 -134.46,61.82 -176.8,76.12 5.9,-15.1 15.2,-25.44 23.62,-39.27 8.96,-14.69 15.42,-26.8 24.51,-43.15 8.07,-14.5 14.21,-27.52 20.77,-42.24 28.13,-63.11 76.99,-23.97 130.72,-67.49 17.26,-14 40.03,-53.86 46.41,-87.01 -145.69,0.55 -117.45,81.92 -154.91,106.13l41.94 -139.63c3.46,-6.92 24.83,-27.71 31.92,-31.69 13.01,-7.3 27.6,-7.45 42.57,-15.56 11.19,-6.06 26.61,-19.66 33.85,-29.13 17.14,-22.39 26.55,-57.07 29.45,-91.77 -119.25,15.24 -103.41,99.04 -125,135.87 -10.66,-14.19 3.94,-83.89 5.01,-104.41 7.24,-139.37 122.07,-52.1 104.15,-240.55 -29.43,8.37 -63.29,39.97 -75.42,63.28 -8.8,16.87 -12.67,34.89 -12.08,55.74 0.61,22.25 3.39,36.61 -15.04,49.73 -2.21,-57.67 -25.73,-155.45 3.73,-191.8 9.26,-11.41 17.32,-11.51 28.76,-25.46 8.13,-9.92 16.21,-21.8 21.05,-37.48 8.6,-27.76 8.53,-72.77 -6.86,-95.15 -21.99,10.12 -47.9,39.19 -59.6,64.76 -20.81,45.48 7.02,85.15 -7.97,106.51 -7.48,-12.1 -18.77,-62.97 -24.68,-80.68 -39.36,-117.83 23.07,-78.13 27.82,-160.46 1.63,-27.82 -8.06,-69.95 -25.52,-84.09 -14.09,17.69 -35.56,40.71 -42.6,73.5 -10.1,47.19 19.77,66.24 13.12,99.32 -10.7,-21.4 -19.95,-41.34 -32.36,-62.5 -14.14,-24.19 -28.51,-41.65 -20.66,-77.33 7.13,-32.36 40.99,-68.7 -6.87,-129.16 -10.65,-13.44 -1.35,-5.9 -16.24,-13.8 -53.1,124.99 -1.39,96.64 6.73,155.21l-38.46 -48.66c-24.04,-29.26 -19.14,-15.43 -30.57,-59.41 -11.77,-45.33 -48.03,-72.98 -97.51,-81.65 0.63,59.74 26.69,98.09 70.13,113.28 35.13,12.27 72.13,64.41 87.4,96.89 -23.63,-8.04 -24.67,-34.89 -52.5,-50.66 -24.68,-13.98 -57.95,-10.57 -89.4,-7.34 6.19,22.87 26.3,46.52 42.81,58.39 34.4,24.7 50.34,7.14 79.48,11.92 42.2,6.93 79.46,75.24 86.67,113.38 -48.86,-22.71 -11.34,-88.4 -150.37,-80.68 5.82,24.17 27.45,57.32 39.34,67.04 34.87,28.56 44.86,15.63 87.56,21.62 30.09,4.2 39.9,25.89 50.27,57.02 7.15,21.46 19.18,61.27 21.28,83.17 -21.95,-17.33 -12.52,-6.44 -21.59,-37.82 -15.88,-55.01 -56.31,-73.68 -118.08,-78.19 8.56,88.53 53.84,100.86 108.73,114.69 50.55,12.74 50.21,100.26 51.35,143.07l-3.28 23.89 -1.5 3.23c-13.97,-36.23 1.23,-71.34 -24.9,-106.45 -9.12,-12.25 -50.18,-52.06 -76.08,-48.49 -8.23,82.03 14.82,116.28 70.08,144.4 30.89,15.71 37.17,42.88 34.86,77.88 -1.83,27.77 -3.71,74.97 -13.48,98.98 -18.64,-18.8 9.81,-60.45 -7.9,-104.5 -10.91,-27.11 -40.05,-55.65 -64.17,-67.49 -5.18,6.96 1.11,-6.19 -5.25,8.9 -11.34,26.95 -10.87,66.91 -1.27,93.06 30.34,82.7 94.98,33.35 60.82,155.81 -6.49,23.28 -20.07,69.04 -31.78,88.19 -12.13,-21.4 23.09,-58.42 17.41,-105.73 -4.34,-36.1 -29.79,-70.9 -48.95,-86.47 -22.76,20.71 -31.53,68.68 -28.93,99.55 4.35,51.69 33.27,56.76 41.92,85.76 13.25,44.4 -3.34,60.16 -21.22,94.97 -11.82,23 -24.47,48.3 -40.72,67.62l-11.35 10.58c3.62,-30.01 36.05,-43.55 41.54,-92.88 3.4,-30.62 -4.96,-83.65 -32.38,-103.85 -91.4,109.93 -25.84,137.63 -24.37,194.2 1.17,44.66 -23.76,60.25 -46.24,85.52 -21.64,24.38 -40.18,49.22 -66.85,67.06 4.86,-24.93 41.91,-38.05 56.74,-81.7 11.63,-34.24 6.46,-91.13 -12.29,-115.17 -22.14,12.18 -54.04,47.73 -65.4,82.79 -25.5,78.71 46.87,98.63 -32.81,160.67 -16.24,12.65 -28.32,21.46 -44.49,32.1 -20.17,13.28 -72.04,45.83 -94.46,51.74 11.69,-22.17 17.97,-16.11 40.33,-29.29 56.84,-33.49 69.6,-92.37 65.44,-158.86 -32.79,7.07 -72.56,37.65 -86.2,57.02 -43.63,61.9 -1.49,127.61 -63.08,153.16 -17.47,7.25 -35.42,13.67 -52.79,19.3 -18.44,5.97 -36.9,11.6 -55.64,16.16l-56.57 6.71c47.46,-29.15 135.64,-2.66 150.14,-148.84 -180.25,9.45 -110.26,127.44 -181.7,157.88 -8.37,3.56 -87.37,14.52 -99.39,14.54 -37.77,0.09 -106.49,-5.77 -128.83,-39.08 -21.29,-31.74 -0.08,-125.31 -152.38,-133.31 15.57,146.44 95.97,115.42 150.29,149.01 -0.9,0.51 -2.49,-0.08 -2.95,1.05 -1.8,4.42 -20.74,0.21 -24.12,-0.49l-85.29 -23.44c-17.35,-5.82 -35.06,-12.73 -52.55,-19.64 -61.43,-24.26 -19.77,-91.17 -63.22,-152.9 -13.24,-18.79 -53.49,-50.44 -86.34,-57.09 -10.7,162.73 75.9,137.33 106.02,188.41 -23.83,-6.72 -73.51,-38.08 -94.6,-52.04 -22.77,-15.08 -71.25,-43.51 -79.6,-69.01 -13.01,-39.71 17.92,-74.96 2.2,-123.44 -11.26,-34.72 -43.82,-70.92 -65.21,-83.23 -20.04,23.15 -23.78,82.33 -12.42,115.51 14.99,43.78 51.71,56.83 56.84,81.5 -37.01,-22.39 -68.21,-68.23 -96.05,-100.85 -14.21,-16.66 -18.18,-21.8 -17.01,-51.68 2.73,-70.42 68.34,-61.31 -24.09,-194.47 -26.84,18.19 -35.4,69.28 -33.36,99.78 3.43,51.47 37.69,64.62 42.54,97.35 -22.89,-15.91 -39.84,-53.48 -52.47,-78.27 -17.3,-33.95 -34.38,-50.66 -21.25,-95.22 8.64,-29.32 37.05,-33.58 41.9,-85.7 3.21,-34.85 -8.71,-80.15 -28.77,-99.34 -37.61,27.9 -61.59,95.98 -41.55,145.15 7.98,19.52 20.59,26.45 10.02,47 -13.08,-19.73 -25.07,-63.43 -31.96,-88.09 -34.69,-124.05 30.79,-73.42 61.16,-156.13 8.77,-23.83 7.78,-53.86 2.56,-78.93l-9.24 -22.97c-44.74,21.79 -76.84,71.2 -71.01,122.09 1.64,14.22 9.64,26.29 5.59,39.27 -5.06,16.24 -2.74,6.58 -7.96,11.77 -6.81,-29.57 -22.34,-117.62 -7.85,-145.37 37.06,-71.04 109.72,-20.71 100.79,-177.16 -26.29,-2.71 -66.97,35.17 -76.34,48.46 -30.34,43.06 -10.18,67.3 -24.78,106.7 -3.68,-5.48 -2.16,-0.42 -3.99,-10.19 -4.41,-23.46 4.56,-116.13 15.66,-132.16 3.29,-4.74 24.18,-24.34 31.32,-26.91 32.78,-11.79 100.03,-4.31 112.16,-115.67 -138.41,10.92 -93.27,76.35 -139.54,115.99 1.12,-22.78 14.12,-60.15 21.62,-83.09 30.54,-93.41 71.18,-32.98 132.13,-75.04 16.25,-11.22 37.5,-42.16 44.69,-70.43 -139.7,-10.05 -104.03,58.29 -150.66,80.63 5.7,-22.01 20.04,-46.55 30.83,-67.26 42.17,-80.96 76,-20.35 132.61,-56.47 16.38,-10.45 39.73,-36.7 45.35,-59.82 -130.11,-17.56 -96.56,41.73 -141.49,57.62 7.88,-18.41 23.72,-36.16 36.27,-53.24 17.39,-23.67 17.57,-31.63 51.15,-43.41 43.58,-15.31 70.19,-55.72 69.8,-113.52 -102.37,19.43 -87.86,81.76 -105.99,113.22 -2.88,4.99 -15.45,19.3 -19.99,25.09 -8.98,11.44 -11.84,14.34 -19.64,25.41l-20.78 25.7z"></path> <path class="fil0" d="M953.87 349.72c-4.91,20.28 5.97,22.53 -4.59,9.88 -38.62,9.4 10.44,-1.34 -32.05,2.96l41.4 94.8c220.58,-48.32 267.78,-53.31 491.33,1.64 32.97,-107.76 89.32,-165.89 103.14,-202.1 -36.23,-3.08 -36.58,1.18 -47.37,25.96 -14.16,-12.4 -17.23,-19.32 -44.47,-10.93 -12.16,32.04 -3.46,26.61 15.77,48.88 -30.52,37.84 -34.14,60.12 -97.72,40.68 -45.35,-93.19 36.57,-68.81 14.69,-127.86 -60.5,-23.04 -22.86,53.09 -69.57,84.03 -52.13,34.51 -86.54,-15.28 -95.96,-32.86l-42.7 -26.73c-9.79,42.89 -40.17,88.24 -93.21,65.02 -58.39,-25.55 -16.16,-109.89 -74.94,-92.66 -35.23,51.27 42.67,30.17 17.41,124.6 -34.67,18.32 -48.09,26 -81.16,-5.31z"></path> <path class="fil0" d="M1185.77 258.07l42.7 26.73 -7.89 -29.82 57.78 -3.88c6.7,-48.69 4.25,-59.81 -43.88,-61.4 9.01,-68.16 -8.26,-62.4 -24.65,-112.87 -11.33,9.46 -5.69,2.08 -17.2,17.8 -24.2,33.04 -23.41,61.25 -19.41,95.9 -27.65,0.07 -45.61,3.58 -46.53,32.96 -1.08,34.83 27.27,33.59 59.08,34.58z"></path> <path class="fil0" d="M967.06 480.41c21.5,32.73 -1.92,11.53 99.77,-9.43 197.4,-40.7 332.33,20.2 349.54,21.59 29.17,2.34 7.96,9.27 22.22,-10.54 -14.89,-62.05 -428.87,-65.34 -471.53,-1.62z"></path> <path class="fil0" d="M917.23 362.56c42.49,-4.3 -6.57,6.44 32.05,-2.96 10.56,12.65 -0.32,10.4 4.59,-9.88l-23.08 -26.46c20.11,-31.66 22.42,-8.64 19.42,-47.09 -25.03,-16.32 -33.68,-7.25 -46.84,7.22 -12.67,-27.3 -9.24,-29.21 -49.8,-27.42l63.66 106.59z"></path> <path class="fil0" d="M899.06 1093.19l11.9 34.57 38.74 -0.07 -31.38 21.3 12.03 34.53 -31.29 -21.41 -31.31 21.41 12.04 -34.53 -31.38 -21.3 38.74 0.07 11.91 -34.57zm148.89 0.01l11.91 34.56 38.75 -0.07 -31.39 21.3 12.04 34.53 -31.31 -21.41 -31.29 21.41 12.04 -34.53 -31.39 -21.3 38.74 0.07 11.9 -34.56zm148.91 0l11.9 34.56 38.75 -0.07 -31.39 21.3 12.04 34.53 -31.3 -21.41 -31.3 21.41 12.04 -34.53 -31.38 -21.3 38.73 0.07 11.91 -34.56zm148.9 0l11.9 34.56 38.75 -0.07 -31.39 21.3 12.04 34.53 -31.3 -21.41 -31.29 21.41 12.03 -34.53 -31.38 -21.3 38.74 0.07 11.9 -34.56zm148.9 0l11.91 34.56 38.75 -0.07 -31.4 21.3 12.05 34.53 -31.31 -21.41 -31.3 21.41 12.05 -34.53 -31.39 -21.3 38.74 0.07 11.9 -34.56z"></path> <path class="fil1" d="M1132.3 645.83c-5.25,-0.75 -7.5,-0.9 -10.05,-1.79 -3.14,-1.2 -3.59,-4.05 -3.74,-6.9 -0.45,-9.44 -0.3,-46.91 -0.3,-68.2 0,-0.6 0.3,-1.05 0.6,-1.2 2.24,-0.15 11.69,-0.3 15.73,0.15 2.85,0.3 4.5,1.2 5.85,4.65 1.35,3.75 2.25,7.94 3,13.34 0.45,0.45 4.94,0.3 5.54,-0.3 0.75,-9.74 2.1,-19.79 3.6,-26.08 0,-0.3 -0.45,-1.2 -0.9,-1.2 -3.9,1.2 -8.84,1.8 -16.94,1.8l-53.06 0c-3.59,0 -8.99,-0.3 -13.79,-1.95 -0.45,-0.15 -1.35,0.6 -1.35,0.9 -0.44,6.74 -1.94,19.34 -3.14,25.48 0.45,1.05 5.09,1.95 5.69,1.5 1.65,-4.95 3.6,-9.29 5.4,-12.74 2.1,-4.05 4.2,-5.25 7.34,-5.4 3.45,-0.3 11.69,-0.3 14.39,0 0.45,0 0.75,0.9 0.75,1.2 0,23.38 0.15,50.96 -0.45,66.1 -0.45,6.6 -1.65,8.25 -5.54,9.14 -1.95,0.6 -5.85,1.05 -9.6,1.5 -0.75,0.6 -0.75,4.35 0,5.1 4.95,0 12.74,-0.45 26.38,-0.45 10.2,0 18.29,0.45 24.29,0.45 0.6,-0.6 0.9,-4.5 0.3,-5.1zm76.14 7.35c15.59,0 30.43,-6 40.17,-19.04 6.15,-8.09 8.99,-19.18 8.99,-30.27 0,-25.19 -16.48,-46.47 -47.66,-46.47 -15.74,0 -28.33,5.55 -36.87,14.09 -10.2,8.99 -13.79,21.73 -13.79,33.73 0,11.39 3.44,24.58 12.59,34.32 8.24,8.39 19.78,13.64 36.57,13.64zm4.5 -6.75c-6.15,0 -11.1,-2.24 -15.29,-5.69 -10.49,-9.14 -14.24,-26.68 -14.24,-40.32 0,-14.24 2.85,-26.98 11.24,-33.13 2.85,-2.25 7.19,-3.44 11.39,-3.44 5.7,0 10.04,1.79 14.24,5.39 9.29,8.25 13.19,24.58 13.19,39.72 0,12.74 -2.25,26.08 -9.14,32.68 -3,2.99 -7.35,4.79 -11.39,4.79zm56.36 -0.6c-0.75,0.6 -0.6,4.5 0,5.25 4.64,0 11.99,-0.6 22.18,-0.6 8.09,0 15.74,0.45 23.83,0.45 0.75,-0.6 1.35,-4.35 0.75,-5.1 -3.6,-0.6 -6.9,-1.05 -8.84,-1.79 -3.3,-1.2 -3.6,-3.45 -3.75,-7.95 -0.15,-3.15 -0.15,-28.93 -0.15,-33.27 0,-15.44 0.15,-30.28 0.3,-33.88 0,-0.15 0.6,-1.5 0.9,-1.5 1.65,-0.15 29.38,-0.3 33.12,0 0.45,0 0.9,0.9 1.05,2.1 0.3,5.1 0.3,14.54 0.3,33.13 0,4.79 0,31.17 -0.15,34.62 -0.15,4.8 -1.2,6.45 -3.75,7.19 -2.09,0.45 -4.49,0.9 -7.64,1.35 -0.45,0.6 -0.6,4.5 0.15,5.1 6.44,0 15.89,-0.45 22.48,-0.45 7.65,0 15.14,0.45 22.94,0.45 0.6,-0.45 1.04,-4.5 0.74,-5.1 -5.09,-0.9 -7.64,-1.05 -9.74,-1.94 -2.55,-1.05 -3.15,-3.45 -3.3,-7.5 -0.3,-6.59 -0.3,-18.28 -0.3,-28.33 0,-18.43 0,-27.28 0.3,-35.07 0.15,-4.65 1.2,-5.7 3.9,-6.75 1.65,-0.6 3.9,-1.05 7.2,-1.49 0.75,-0.75 1.05,-4.65 0.3,-5.1 -5.55,0 -14.09,0.45 -21.89,0.45l-58.15 0c-7.35,0 -16.19,-0.45 -22.63,-0.45 -0.75,0.45 -0.6,4.5 0,5.1 4.04,0.44 5.84,0.74 8.39,1.34 3,0.9 3.6,2.55 3.9,7.35 0.15,4.5 0.15,18.58 0.15,33.27 0,13.19 -0.15,26.23 -0.3,28.48 -0.3,6.45 -1.2,8.4 -5.25,9.29 -2.1,0.45 -3.75,0.9 -7.04,1.35z"></path> <path class="fil1" d="M1180.17 1289.41c0,10.23 -5.49,21.33 -16.47,33.25 -11.29,12.23 -26.64,23.39 -46.04,33.69 -18.28,9.6 -36.93,16.53 -55.9,20.83 -15.09,3.37 -37.8,6.55 -67.99,9.49 -82.66,83.34 -123.96,144.85 -123.96,184.59 0,14.91 5.12,27.01 15.35,36.37 10.23,9.42 23.33,14.1 39.3,14.1 18.03,0 34.75,-7.37 50.09,-22.09 19.28,-18.4 28.88,-36.49 28.88,-54.33 0,-8.36 -2.86,-15.41 -8.6,-21.03 -5.68,-5.55 -12.98,-8.36 -21.71,-8.36 -15.1,0 -27.33,5.62 -36.56,16.78 -16.84,20.15 -25.33,36.69 -25.58,49.72 0,5.49 -1.37,8.24 -4.05,8.24 -2.31,0 -3.5,-1.81 -3.5,-5.49 0,-18.65 7.8,-36.12 23.4,-52.47 15.16,-15.72 30.44,-23.58 45.91,-23.58 11.23,0 20.34,3.37 27.51,10.05 7.11,6.73 10.67,15.34 10.67,25.82 0,22.03 -10.11,42.11 -30.32,60.27 -18.65,16.72 -37.37,25.07 -56.08,25.07 -19.65,0 -35.87,-6.8 -48.78,-20.46 -12.92,-13.66 -19.41,-30.88 -19.41,-51.71 0,-46.23 35.56,-102.25 106.74,-168 -11.6,1.06 -27.7,3.06 -48.28,5.86 -23.77,39.87 -45.29,66.88 -64.69,81.16 -21.4,15.85 -51.41,25.21 -89.9,28.14 -8.79,15.72 -15.16,31.07 -19.21,46.04 -0.81,3.3 -2.19,4.93 -3.99,4.93 -2.19,0 -3.31,-1.38 -3.31,-4.18 0,-10.36 5.86,-25.96 17.59,-46.79 -20.59,0 -39.05,-6.3 -55.4,-18.84 -17.28,-13.29 -25.95,-29.32 -25.95,-48.1 0,-15.22 6.55,-27.63 19.72,-37.24 13.16,-9.67 30.63,-14.47 52.27,-14.47 31.07,0 60.39,12.1 87.9,36.36 19.4,-12.66 41.8,-22.77 67.25,-30.31 6.74,-7.93 17.72,-20.65 33.06,-38.18 -27.76,16.65 -54.39,25.01 -79.85,25.01 -20.33,0 -37.74,-4.99 -52.09,-14.91 -14.41,-9.92 -21.58,-21.89 -21.58,-35.93 0,-16.28 8.05,-29.88 24.14,-40.74 16.1,-10.85 35.5,-16.28 58.33,-16.28 36.31,0 74.3,13.79 114.04,41.36 0.81,-0.62 1.99,-1.56 3.43,-2.74 3.05,-2.56 6.11,-5.18 9.17,-7.86 5.49,-4.56 8.67,-6.8 9.48,-6.8 1.5,0 2.18,0.81 2.18,2.37 0,3.06 -4.68,8.67 -14.03,16.84 -0.75,0.5 -1.87,1.44 -3.5,2.93 12.54,9.99 18.84,16.16 18.84,18.47 0,1.93 -1.06,2.93 -3.12,2.93 -1.18,0 -8.48,-5.11 -21.7,-15.41 -13.42,12.6 -23.27,22.52 -29.45,29.82 -5.74,6.93 -13.79,18.22 -24.14,33.81 9.98,-1.81 27.51,-3.93 52.46,-6.36 85.78,-75.11 146.79,-112.66 183.16,-112.66 6.92,0 12.73,1.93 17.34,5.86 4.62,3.87 6.93,8.92 6.93,15.16zm-7.49 0.37c0,-9.04 -5.74,-13.53 -17.22,-13.53 -33.12,0 -84.03,33.93 -152.77,101.81 44.6,-3.56 81.28,-12.79 110.04,-27.76 18.53,-9.55 33.25,-19.97 44.23,-31.26 10.48,-10.85 15.72,-20.58 15.72,-29.26zm-205.99 28.76c-37.99,-26.45 -73.67,-39.67 -106.92,-39.67 -21.46,0 -39.31,4.86 -53.53,14.53 -14.28,9.67 -21.4,21.46 -21.4,35.37 0,11.67 6.12,21.65 18.28,29.95 12.42,8.67 27.89,12.97 46.42,12.97 38.11,0 77.16,-17.71 117.15,-53.15zm-77.85 84.22c-21.21,7.3 -39.12,15.78 -53.72,25.39 2.44,3.49 3.69,6.05 3.69,7.49 0,2.05 -1.13,3.12 -3.31,3.12 -1.12,0 -3.49,-1.94 -7.11,-5.68 -21.84,16.59 -39.93,33.93 -54.28,52.09 28.76,-9.05 53.9,-22.52 75.43,-40.61 11.85,-9.73 24.95,-23.65 39.3,-41.8zm-65.38 24.64c-10.36,-10.73 -23.64,-19.09 -39.86,-25.2 -14.48,-5.37 -28.7,-8.05 -42.55,-8.05 -19.15,0 -34.5,3.99 -45.98,12.04 -11.54,8.05 -17.28,18.72 -17.28,31.88 0,13.85 6.3,26.14 18.84,36.74 12.54,10.61 27.76,15.91 45.67,15.91 5.11,0 11.6,-0.75 19.4,-2.25 17.15,-22.64 37.74,-43.04 61.76,-61.07zm221.46 27.45c0,1.44 -1.43,3.49 -4.36,6.05 -9.17,8.36 -18.28,16.84 -27.45,25.39 -14.48,12.42 -25.33,18.65 -32.5,18.65 -6.12,0 -10.17,-3.86 -12.29,-11.54 -8.36,7.68 -15.54,11.54 -21.34,11.54 -9.04,0 -13.54,-4.43 -13.54,-13.35 0,-10.85 4.87,-21.89 14.6,-33.12 11.11,-12.67 22.09,-19.03 32.94,-19.03 4.62,0 9.61,3 14.97,8.98l5.68 -7.11 22.83 0 -40.05 52.84c-1.56,1.94 -2.37,3.06 -2.37,3.31 0,0.75 0.69,1.06 2,1.06 6.73,0 22.33,-12.17 46.78,-36.56 5.99,-5.99 9.86,-8.92 11.55,-8.92 1.68,0 2.55,0.56 2.55,1.81zm-53.02 -0.75c-2.81,-4.74 -5.55,-7.11 -8.36,-7.11 -1,0 -3.74,2.37 -8.24,7.11 -18.9,19.96 -28.32,33.69 -28.32,41.11 0,1.69 0.69,2.56 2.18,2.56 4.37,0 11.48,-5.99 21.4,-17.9l21.34 -25.77zm150.09 1.12c0,1 -1.12,2.44 -3.3,4.37 -33,30.26 -55.9,45.35 -68.56,45.35 -7.3,0 -11.17,-4.61 -11.67,-13.91 -9.98,9.3 -18.46,13.91 -25.39,13.91 -10.29,0 -15.41,-4.74 -15.41,-14.28 0,-5.49 3.12,-12.29 9.36,-20.46l22.09 -28.89 25.95 0 -36 48.6c-1.68,2.43 -2.56,4.12 -2.56,4.93 0,1.5 0.88,2.24 2.56,2.24 3.31,0 11.11,-6.36 23.4,-19.02 10.85,-11.23 21.52,-23.46 32,-36.75l23.58 0 -36.74 47.16c-2.44,3.19 -3.68,5.06 -3.68,5.68 0.12,0.5 0.49,0.75 1.12,0.75 1.68,0 7.67,-3.43 17.9,-10.23 12.17,-8.05 24.46,-17.41 36.75,-28.01 2.93,-2.43 4.92,-3.62 6.05,-3.62 1.68,0 2.55,0.69 2.55,2.18zm-74.23 -57.26c0,0.5 -0.25,-1.75 -0.69,-6.74 -0.25,-3.12 0.06,-5.99 1.06,-8.48 1.38,-3.56 3.93,-5.68 7.68,-6.56 6.23,0 9.29,2.62 9.29,7.93 0,3.74 -0.81,6.8 -2.49,9.11 -1.25,1.37 -3.87,3.11 -7.86,5.3 1.56,4.12 5.42,6.61 11.66,7.3 8.42,1.12 18.03,-2.56 28.88,-10.92 3.44,-2.81 6.37,-5.3 8.86,-7.42 2.5,-2.12 4.62,-3.87 6.3,-5.24 2.69,-2.81 4.56,-4.18 5.68,-4.18 1.19,0 1.81,0.43 1.81,1.24 0,1.25 -1.68,3.62 -5.12,7.12 -3.18,2.8 -5.98,5.3 -8.42,7.54 -2.43,2.25 -4.68,4.18 -6.73,5.74 -9.99,8.05 -20.59,11.92 -31.82,11.67 -9.48,-0.5 -15.53,-4.93 -18.09,-13.41zm90.7 53.71c15.72,-8.17 26.89,-12.23 33.63,-12.23 10.91,0 16.4,4.37 16.4,13.16 0,3.44 -1.18,6.43 -3.61,9.05 -2.44,2.62 -5.06,3.93 -7.86,3.93 -2.69,0 -5.12,-1.12 -7.3,-3.31 -2.25,-2.18 -3.31,-4.67 -3.31,-7.48 0,-3.56 1.25,-5.3 3.81,-5.3 1.99,0 2.93,1.55 2.93,4.67 0,3.12 1.31,4.68 3.87,4.68 2.93,0 4.36,-1.99 4.36,-5.86 0,-4.06 -2.74,-6.05 -8.23,-6.05 -5.74,0 -12.04,1.74 -18.97,5.3 -4.93,2.56 -14.91,8.8 -30,18.65l-1.44 2.19c17.78,-6.93 28.95,-10.42 33.63,-10.42 5.24,0 7.86,1.62 7.86,4.74 0,2.25 -2.19,6.11 -6.43,11.73 -6.17,8.17 -9.29,12.72 -9.29,13.53 0,1.5 0.56,2.25 1.81,2.25 5.11,0 16.22,-5.99 33.25,-17.97 14.03,-9.73 22.89,-16.53 26.7,-20.27 2.55,-2.5 4.55,-3.68 6.05,-3.68 1.68,0 2.55,0.62 2.55,1.81 0,1 -1.12,2.56 -3.3,4.74 -10.48,10.48 -23.96,20.83 -40.43,30.94 -15.72,9.67 -26.32,14.47 -31.94,14.47 -8.42,0 -12.6,-4.11 -12.6,-12.29 0,-3.86 2,-9.23 5.99,-16.09 -14.22,4.49 -23.02,8.98 -26.32,13.35l-9.67 13.16 -22.84 0.06 50.28 -66.31 21.9 0 -11.48 14.85zm177.67 3.55c0,0.94 -1.12,2.44 -3.31,4.37 -34,30.19 -55.77,45.35 -65.25,45.35 -3.93,0 -7.3,-1.24 -10.17,-3.74 -2.87,-2.49 -4.3,-5.61 -4.3,-9.23 0,-5.87 3.86,-13.73 11.54,-23.58 2.56,-3.31 7.55,-10.05 14.97,-20.34 -6.43,1.37 -15.85,6.99 -28.14,16.84 -9.6,7.68 -17.96,15.29 -25.01,22.84l-73.3 101.81 -25.58 0 163.2 -210.36 12.04 0 -56.46 79.66c17.65,-12.91 31.38,-19.34 41.11,-19.34 7.92,0 11.92,2.75 11.92,8.24 0,2.43 -1.13,5.18 -3.31,8.17l-24.33 32.56c-1.44,2.06 -2.18,3.75 -2.18,4.93 0,1.25 0.74,1.81 2.18,1.81 5.74,0 24.33,-12.85 55.77,-38.55 3.06,-2.43 5.05,-3.62 5.99,-3.62 1.75,0 2.62,0.69 2.62,2.18zm82.59 -0.37c0,1.44 -1.43,3.49 -4.36,6.05 -9.17,8.36 -18.28,16.84 -27.45,25.39 -14.48,12.42 -25.33,18.65 -32.5,18.65 -6.12,0 -10.17,-3.86 -12.29,-11.54 -8.36,7.68 -15.54,11.54 -21.34,11.54 -9.04,0 -13.54,-4.43 -13.54,-13.35 0,-10.85 4.87,-21.89 14.6,-33.12 11.11,-12.67 22.09,-19.03 32.94,-19.03 4.62,0 9.61,3 14.97,8.98l5.68 -7.11 22.83 0 -40.05 52.84c-1.56,1.94 -2.37,3.06 -2.37,3.31 0,0.75 0.69,1.06 2,1.06 6.73,0 22.33,-12.17 46.78,-36.56 5.99,-5.99 9.86,-8.92 11.55,-8.92 1.68,0 2.55,0.56 2.55,1.81zm-53.02 -0.75c-2.81,-4.74 -5.55,-7.11 -8.36,-7.11 -1,0 -3.74,2.37 -8.24,7.11 -18.9,19.96 -28.32,33.69 -28.32,41.11 0,1.69 0.69,2.56 2.18,2.56 4.37,0 11.48,-5.99 21.4,-17.9l21.34 -25.77zm153.9 50.47c3.31,10.98 4.87,19.84 4.74,26.7 0.25,17.65 -6.92,33.56 -21.52,47.72 -14.79,14.35 -31.38,21.21 -49.91,20.65 -17.28,0 -30.5,-6.92 -39.67,-20.65 -2.94,-7.73 -4.31,-12.54 -4.18,-14.53 0.12,-2.06 0.25,-3.62 0.37,-4.68 -0.25,-12.1 4.43,-22.4 14.04,-31.01 9.6,-8.54 21.27,-12.72 34.93,-12.47 11.04,0.43 20.78,4.86 29.07,13.16 1.56,7.05 2.31,11.04 2.19,12.04 0,4.24 -2.5,9.3 -7.49,15.16 -5.49,6.36 -10.73,9.36 -15.72,9.17 -2.12,0 -3.18,-0.81 -3.31,-2.43 0,-1.06 1.13,-2 3.5,-2.69 4.61,-1.62 8.48,-4.24 11.66,-7.92 3.18,-3.62 4.74,-8.86 4.74,-15.66 -5.36,-10.73 -13.85,-15.72 -25.57,-15.03 -12.29,-0.37 -22.46,3.37 -30.45,11.1 -7.98,7.74 -10.79,20.22 -8.48,37.56 7.17,14.97 18.34,22.77 33.44,23.39 17.34,0.44 32.69,-5.61 46.04,-18.28 13.41,-12.72 20.02,-27.69 19.77,-44.97 0,-6.62 -1,-13.48 -2.93,-20.65 -2.43,-6.8 -4.24,-11.73 -5.49,-14.6 -7.92,6.17 -15.28,9.29 -22.08,9.29 -7.37,0 -11.23,-4.61 -11.73,-13.91 -9.98,9.3 -18.47,13.91 -25.39,13.91 -10.23,0 -15.41,-5.24 -15.54,-15.72 -12.29,10.48 -21.95,15.72 -28.88,15.72 -10.23,0 -15.35,-4.74 -15.35,-14.28 0,-5.49 3.12,-12.29 9.3,-20.46l22.15 -28.89 25.95 0 -36 48.6c-1.74,2.43 -2.56,4.12 -2.56,4.93 0,1.5 0.82,2.24 2.56,2.24 3.25,0 11.04,-6.36 23.4,-19.02 10.79,-11.23 21.14,-23.46 31.06,-36.75l25.95 0 -35.99 48.6c-1.75,2.43 -2.56,4.12 -2.56,4.93 0,1.5 0.81,2.24 2.56,2.24 3.24,0 11.04,-6.36 23.39,-19.02 10.79,-11.23 21.46,-23.46 31.94,-36.75l23.58 0 -36.74 47.16c-2.43,3.19 -3.62,5.06 -3.62,5.68 0.13,0.5 0.5,0.75 1.06,0.75 1.75,0 7.68,-3.43 17.91,-10.23 12.22,-8.05 24.45,-17.41 36.74,-28.01 2.93,-2.43 4.93,-3.62 6.05,-3.62 1.69,0 2.56,0.69 2.56,2.18 0,1 -1.12,2.44 -3.31,4.37 -15.22,14.04 -28.51,25.02 -39.8,32.94l3.62 12.04zm78.23 -94.82c0,8.04 -4.06,12.1 -12.04,12.1 -3.06,0 -5.74,-1.19 -8.05,-3.56 -2.31,-2.37 -3.49,-5.11 -3.49,-8.17 0,-3.12 1.18,-5.93 3.49,-8.3 2.31,-2.37 5.18,-3.55 8.55,-3.55 7.67,0 11.54,3.8 11.54,11.48zm13.91 45.41c0,0.88 -1.19,2.31 -3.49,4.43 -32.75,30.26 -54.71,45.35 -65.82,45.35 -4.49,0 -8.17,-1.62 -11.04,-4.92 -2.87,-3.31 -4.3,-7.55 -4.3,-12.67 0,-6.17 3.74,-13.47 11.16,-21.77l22.09 -24.33 23.2 0 -34.31 40.8c-4.55,5.36 -6.8,9.17 -6.8,11.35 0,1.5 0.88,2.19 2.56,2.19 8.05,0 27.45,-12.98 58.14,-38.93 2.93,-2.5 4.87,-3.68 5.87,-3.68 1.8,0 2.74,0.75 2.74,2.18z"></path> <path class="fil1" d="M992.27 1818.52l67.81 -90.31c-3.68,1.38 -7.23,2.1 -10.59,2.1 -12.1,0 -18.08,-5.52 -18.08,-16.57 0,-12.11 6.38,-23.88 19.27,-35.32 12.82,-11.45 26.24,-17.17 40.25,-17.17 6.91,0 11.65,2.43 14.08,7.3l53.34 -70.84 12.76 0 -47.42 66.43c4.34,-1.77 8.42,-2.76 12.17,-2.89 12.03,0 18.09,5.52 18.09,16.57 0,8.36 -3.03,16.51 -9.08,24.54 8.75,-5.26 17.17,-11.51 25.26,-18.68 3.48,-3.23 5.98,-4.87 7.49,-4.87 1.58,0 2.31,0.92 2.31,2.7 0,3.22 -8.49,10.39 -25.59,21.44 -9.54,6.12 -18.15,11.25 -25.85,15.19 -10.92,8.09 -22.3,12.17 -34.07,12.17 -6.45,0 -10.92,-1.97 -13.48,-5.98l-67.69 95.17 -20.98 -0.98zm101.95 -146.09c0,-2.83 -1.12,-4.21 -3.29,-4.21 -8.61,0.4 -18.55,7.37 -29.86,20.98 -11.31,13.62 -15.78,24.08 -13.48,31.44 0,1.52 0.92,2.31 2.89,2.31 2.57,0 6.51,-2.11 11.91,-6.38 6.31,-5 12.17,-11.32 17.56,-18.88 9.47,-13.35 14.27,-21.77 14.27,-25.26zm-3.09 47.03c0,2.83 1.05,4.27 3.29,4.27 8.62,-0.39 18.55,-7.43 29.86,-21.04 11.31,-13.62 15.79,-24.08 13.48,-31.38 0,-1.58 -0.98,-2.3 -2.89,-2.3 -2.56,0 -6.58,2.1 -11.97,6.31 -6.25,5 -12.1,11.32 -17.5,18.88 -9.53,13.42 -14.27,21.77 -14.27,25.26zm138.72 -89.52c0,8.48 -4.27,12.76 -12.69,12.76 -3.22,0 -6.05,-1.25 -8.49,-3.75 -2.43,-2.5 -3.68,-5.39 -3.68,-8.62 0,-3.28 1.25,-6.24 3.68,-8.74 2.44,-2.5 5.46,-3.75 9.02,-3.75 8.09,0 12.16,4.01 12.16,12.1zm14.67 47.88c0,0.92 -1.25,2.44 -3.68,4.67 -34.53,31.9 -57.69,47.82 -69.39,47.82 -4.74,0 -8.62,-1.71 -11.65,-5.19 -3.02,-3.49 -4.53,-7.96 -4.53,-13.36 0,-6.51 3.94,-14.2 11.77,-22.95l23.28 -25.65 24.47 0 -36.17 43.01c-4.81,5.66 -7.17,9.67 -7.17,11.97 0,1.58 0.92,2.31 2.69,2.31 8.49,0 28.94,-13.69 61.31,-41.05 3.09,-2.63 5.13,-3.88 6.18,-3.88 1.91,0 2.89,0.79 2.89,2.3zm102.55 0.07c0,0.99 -1.19,2.56 -3.49,4.6 -35.85,31.84 -58.8,47.82 -68.8,47.82 -4.14,0 -7.7,-1.31 -10.72,-3.94 -3.03,-2.64 -4.54,-5.92 -4.54,-9.74 0,-6.18 4.08,-14.47 12.17,-24.86 2.7,-3.49 7.96,-10.59 15.78,-21.44 -6.77,1.44 -16.7,7.36 -29.66,17.75 -10.13,8.09 -18.94,16.12 -26.38,24.08l-77.28 107.34 -26.97 0 172.07 -221.79 12.69 0 -59.52 83.99c18.61,-13.61 33.08,-20.39 43.34,-20.39 8.36,0 12.57,2.9 12.57,8.69 0,2.56 -1.19,5.46 -3.49,8.61l-25.65 34.34c-1.52,2.17 -2.3,3.94 -2.3,5.19 0,1.32 0.78,1.91 2.3,1.91 6.05,0 25.65,-13.55 58.8,-40.65 3.22,-2.56 5.33,-3.81 6.31,-3.81 1.85,0 2.77,0.72 2.77,2.3zm28.15 22.17c-30.72,24.99 -51.3,33.67 -61.7,25.98 -4.47,-6.32 -3.88,-14.41 1.91,-24.27 7.37,-11.05 14.41,-16.38 21.25,-15.92 6.77,0.46 5.32,4.41 -4.48,11.84 -9.73,7.5 -14.07,14.27 -12.89,20.45 1.12,6.19 9.47,3.95 25.06,-6.77 10.39,-6.38 22.04,-15.39 34.86,-26.97l20.66 -21.18 24.79 0 -46.24 57.62c18.29,-6.84 33.55,-17.5 45.91,-31.97l21.58 -25.65 23.68 0 -39.53 45.12c-9.34,12.7 -7.83,16.18 4.67,10.46 12.43,-5.72 25.39,-15.06 38.94,-28.02 3.02,-2.56 5.19,-3.88 6.31,-3.88 1.84,0 2.7,0.79 2.7,2.37 0,0.99 -1.12,2.56 -3.42,4.6 -19.54,20.92 -37.96,33.22 -55.12,36.77 -12.24,0 -16.51,-6.05 -12.96,-18.28 -16.91,12.82 -29.4,18.81 -37.36,17.95 -6.71,0 -10.06,-3.75 -10.2,-11.18 -0.92,-4.54 2.96,-10.85 11.58,-19.07zm223.3 -22.17c0,1.05 -1.18,2.56 -3.48,4.6 -34.8,31.9 -58.94,47.82 -72.29,47.82 -7.7,0 -11.77,-4.87 -12.3,-14.67 -10.52,9.8 -19.47,14.67 -26.77,14.67 -10.85,0 -16.25,-5 -16.25,-15.06 0,-5.79 3.29,-12.96 9.87,-21.57l23.28 -30.46 27.37 0 -37.96 51.24c-1.77,2.57 -2.69,4.34 -2.69,5.2 0,1.58 0.92,2.36 2.69,2.36 3.49,0 11.71,-6.7 24.67,-20.06 11.44,-11.84 22.69,-24.73 33.74,-38.74l24.86 0 -38.74 49.73c-2.56,3.35 -3.88,5.33 -3.88,5.98 0.13,0.53 0.53,0.79 1.19,0.79 1.77,0 8.09,-3.62 18.87,-10.78 12.83,-8.49 25.79,-18.36 38.75,-29.54 3.09,-2.56 5.19,-3.81 6.38,-3.81 1.77,0 2.69,0.72 2.69,2.3z"></path> <path class="fil1" d="M1016.65 996.08c-14.49,-2 -22.48,-2.5 -31.47,-4.5 -12.99,-2.99 -15.99,-11.99 -16.99,-28.97 -1,-18.98 -1.49,-109.4 -1.49,-135.88 0,-91.91 0.49,-104.4 2.49,-119.89 -0.5,-1.49 -4.49,-2.49 -6.49,-1.99 -16.98,9.49 -53.45,20.48 -79.43,23.47 -1.5,1 -2.5,10.99 -1,12.99 10.49,0 22.98,1 28.98,1.5 10.49,1 12.48,7.99 13.48,14.99 0.5,9.49 1.5,51.45 1.5,98.91 0,42.96 -0.5,84.92 -1.5,107.9 0,16.48 -2.99,24.47 -18.48,27.47 -8.49,1.5 -18.98,2.5 -30.47,3.5 -2,2 -2,12.99 0,14.49 12.99,0 38.96,-1.5 71.93,-1.5 31.97,0 53.45,1.5 66.94,1.5 2,-1.5 3,-12.49 2,-13.99zm172.34 -291.23c-26.48,0 -53.45,10.49 -73.93,33.47 -27.48,31.47 -37.47,75.43 -37.47,125.38 0,66.44 18.49,110.4 42.46,131.38 13.99,11.99 32.97,19.48 56.95,19.48 12.99,0 38.47,-3.99 60.45,-24.98 29.47,-27.47 45.95,-72.93 45.95,-138.87 0,-65.44 -19.48,-102.4 -35.46,-120.39 -7.5,-8.49 -27.48,-25.47 -58.95,-25.47zm-11.99 18.98c37.97,0 61.94,47.96 61.94,140.87 0,63.94 -9.99,99.91 -24.97,117.89 -6,6.99 -15.99,11.49 -27.48,11.49 -41.46,0 -64.94,-50.45 -64.94,-149.86 0,-44.96 9.49,-86.92 24.48,-105.41 6.49,-7.99 15.99,-14.98 30.97,-14.98zm249.77 -18.98c-26.47,0 -53.45,10.49 -73.93,33.47 -27.48,31.47 -37.47,75.43 -37.47,125.38 0,66.44 18.49,110.4 42.46,131.38 13.99,11.99 32.97,19.48 56.95,19.48 12.99,0 38.47,-3.99 60.45,-24.98 29.47,-27.47 45.95,-72.93 45.95,-138.87 0,-65.44 -19.48,-102.4 -35.46,-120.39 -7.5,-8.49 -27.48,-25.47 -58.95,-25.47zm-11.99 18.98c37.97,0 61.94,47.96 61.94,140.87 0,63.94 -9.99,99.91 -24.97,117.89 -6,6.99 -15.99,11.49 -27.48,11.49 -41.46,0 -64.94,-50.45 -64.94,-149.86 0,-44.96 9.49,-86.92 24.48,-105.41 6.49,-7.99 15.99,-14.98 30.97,-14.98z"></path> <path class="fil1" d="M3958.76 259.21c0,34.38 -18.44,71.69 -55.34,111.73 -37.94,41.09 -89.51,78.61 -154.7,113.2 -61.43,32.29 -124.1,55.55 -187.83,70.02 -50.73,11.32 -127.04,22.01 -228.5,31.86 -277.75,280.07 -416.53,486.76 -416.53,620.29 0,50.1 17.19,90.77 51.57,122.22 34.38,31.65 78.4,47.37 132.07,47.37 60.58,0 116.76,-24.73 168.33,-74.21 64.77,-61.84 97.06,-122.63 97.06,-182.58 0,-28.09 -9.65,-51.78 -28.93,-70.65 -19.08,-18.65 -43.61,-28.09 -72.95,-28.09 -50.73,0 -91.82,18.87 -122.85,56.39 -56.6,67.71 -85.1,123.26 -85.94,167.08 0,18.44 -4.62,27.67 -13.63,27.67 -7.76,0 -11.74,-6.08 -11.74,-18.45 0,-62.68 26.21,-121.38 78.61,-176.3 50.94,-52.82 102.3,-79.24 154.29,-79.24 37.73,0 68.34,11.32 92.44,33.75 23.9,22.64 35.85,51.57 35.85,86.79 0,74 -33.96,141.5 -101.88,202.5 -62.68,56.18 -125.57,84.27 -188.45,84.27 -66.04,0 -120.54,-22.85 -163.93,-68.76 -43.4,-45.91 -65.2,-103.76 -65.2,-173.78 0,-155.33 119.49,-343.58 358.68,-564.53 -38.99,3.57 -93.08,10.27 -162.26,19.71 -79.86,133.95 -152.19,224.72 -217.38,272.72 -71.9,53.25 -172.73,84.69 -302.08,94.55 -29.55,52.82 -50.93,104.39 -64.56,154.7 -2.73,11.11 -7.34,16.56 -13.42,16.56 -7.33,0 -11.11,-4.61 -11.11,-14.04 0,-34.8 19.71,-87.21 59.12,-157.22 -69.18,0 -131.23,-21.18 -186.15,-63.31 -58.07,-44.65 -87.21,-98.53 -87.21,-161.63 0,-51.15 22.01,-92.86 66.25,-125.14 44.23,-32.5 102.92,-48.64 175.66,-48.64 104.4,0 202.92,40.67 295.37,122.22 65.19,-42.56 140.45,-76.52 225.98,-101.88 22.64,-26.63 59.53,-69.39 111.1,-128.3 -93.28,55.97 -182.79,84.06 -268.32,84.06 -68.34,0 -126.83,-16.77 -175.04,-50.1 -48.43,-33.33 -72.53,-73.58 -72.53,-120.74 0,-54.72 27.04,-100.41 81.12,-136.89 54.09,-36.48 119.28,-54.71 196.01,-54.71 122,0 249.66,46.33 383.2,138.98 2.72,-2.1 6.7,-5.24 11.53,-9.22 10.27,-8.6 20.54,-17.4 30.81,-26.42 18.45,-15.3 29.14,-22.85 31.86,-22.85 5.04,0 7.34,2.73 7.34,7.97 0,10.27 -15.72,29.14 -47.16,56.6 -2.52,1.68 -6.29,4.82 -11.74,9.85 42.13,33.54 63.3,54.3 63.3,62.05 0,6.5 -3.56,9.86 -10.48,9.86 -3.98,0 -28.51,-17.19 -72.95,-51.78 -45.07,42.34 -78.19,75.67 -98.94,100.2 -19.29,23.27 -46.33,61.21 -81.13,113.62 33.54,-6.08 92.45,-13.21 176.3,-21.38 288.24,-252.4 493.25,-378.59 615.47,-378.59 23.27,0 42.76,6.5 58.27,19.7 15.52,13 23.27,29.98 23.27,50.94zm-25.15 1.26c0,-30.4 -19.29,-45.49 -57.86,-45.49 -111.31,0 -282.37,114.04 -513.38,342.11 149.88,-11.95 273.15,-42.97 369.78,-93.28 62.26,-32.07 111.74,-67.08 148.63,-105.02 35.22,-36.48 52.83,-69.18 52.83,-98.32zm-692.2 96.64c-127.66,-88.88 -247.57,-133.33 -359.3,-133.33 -72.11,0 -132.06,16.36 -179.86,48.85 -48,32.49 -71.9,72.11 -71.9,118.86 0,39.2 20.54,72.74 61.42,100.62 41.72,29.14 93.7,43.6 155.96,43.6 128.09,0 259.31,-59.53 393.68,-178.6zm-261.61 283c-71.28,24.52 -131.44,53.03 -180.49,85.32 8.17,11.73 12.37,20.33 12.37,25.15 0,6.92 -3.78,10.48 -11.11,10.48 -3.78,0 -11.74,-6.5 -23.9,-19.07 -73.37,55.76 -134.16,114.03 -182.38,175.04 96.64,-30.4 181.12,-75.68 253.44,-136.47 39.83,-32.7 83.85,-79.45 132.07,-140.45zm-219.69 82.8c-34.8,-36.06 -79.45,-64.15 -133.95,-84.69 -48.64,-18.03 -96.43,-27.04 -142.97,-27.04 -64.36,0 -115.93,13.41 -154.5,40.46 -38.78,27.04 -58.06,62.88 -58.06,107.12 0,46.53 21.17,87.83 63.3,123.47 42.14,35.63 93.29,53.45 153.45,53.45 17.19,0 38.99,-2.51 65.2,-7.54 57.64,-76.1 126.82,-144.65 207.53,-205.23zm744.17 92.24c0,4.82 -4.82,11.74 -14.67,20.33 -30.82,28.09 -61.42,56.6 -92.24,85.32 -48.63,41.71 -85.11,62.68 -109.21,62.68 -20.55,0 -34.17,-13 -41.3,-38.78 -28.09,25.78 -52.2,38.78 -71.69,38.78 -30.4,0 -45.49,-14.89 -45.49,-44.86 0,-36.48 16.35,-73.58 49.05,-111.32 37.31,-42.55 74.21,-63.93 110.68,-63.93 15.52,0 32.29,10.06 50.32,30.18l19.07 -23.89 76.73 0 -134.59 177.55c-5.24,6.5 -7.96,10.27 -7.96,11.11 0,2.52 2.3,3.57 6.71,3.57 22.64,0 75.04,-40.88 157.22,-122.85 20.12,-20.12 33.12,-29.97 38.78,-29.97 5.66,0 8.59,1.88 8.59,6.08zm-178.18 -2.52c-9.43,-15.93 -18.66,-23.9 -28.09,-23.9 -3.35,0 -12.58,7.97 -27.67,23.9 -63.52,67.08 -95.17,113.2 -95.17,138.15 0,5.66 2.3,8.59 7.33,8.59 14.68,0 38.58,-20.12 71.91,-60.16l71.69 -86.58zm504.36 3.77c0,3.36 -3.77,8.18 -11.11,14.68 -110.89,101.67 -187.83,152.4 -230.38,152.4 -24.53,0 -37.52,-15.51 -39.2,-46.75 -33.54,31.24 -62.05,46.75 -85.32,46.75 -34.59,0 -51.78,-15.93 -51.78,-48.01 0,-18.44 10.48,-41.29 31.45,-68.76l74.2 -97.05 87.21 0 -120.96 163.3c-5.66,8.17 -8.59,13.83 -8.59,16.56 0,5.03 2.93,7.54 8.59,7.54 11.11,0 37.32,-21.38 78.61,-63.93 36.48,-37.74 72.33,-78.82 107.54,-123.47l79.24 0 -123.47 158.48c-8.17,10.69 -12.37,16.98 -12.37,19.07 0.42,1.68 1.68,2.52 3.78,2.52 5.66,0 25.78,-11.53 60.16,-34.38 40.88,-27.04 82.18,-58.49 123.47,-94.12 9.85,-8.18 16.56,-12.16 20.34,-12.16 5.66,0 8.59,2.3 8.59,7.33zm-249.46 -192.43c0,1.67 -0.84,-5.87 -2.3,-22.64 -0.84,-10.49 0.21,-20.13 3.56,-28.51 4.61,-11.95 13.21,-19.08 25.79,-22.02 20.96,0 31.23,8.81 31.23,26.63 0,12.58 -2.73,22.85 -8.39,30.6 -4.19,4.62 -12.99,10.48 -26.41,17.82 5.24,13.84 18.24,22.22 39.2,24.53 28.3,3.77 60.58,-8.6 97.06,-36.69 11.53,-9.43 21.38,-17.82 29.77,-24.94 8.38,-7.13 15.51,-13 21.17,-17.61 9.01,-9.43 15.3,-14.05 19.08,-14.05 3.98,0 6.07,1.47 6.07,4.2 0,4.19 -5.66,12.15 -17.18,23.89 -10.7,9.44 -20.13,17.82 -28.3,25.37 -8.18,7.55 -15.73,14.04 -22.64,19.28 -33.54,27.05 -69.18,40.04 -106.91,39.21 -31.87,-1.68 -52.2,-16.57 -60.8,-45.07zm304.8 180.49c52.83,-27.47 90.35,-41.09 112.99,-41.09 36.68,0 55.13,14.67 55.13,44.23 0,11.53 -3.98,21.59 -12.16,30.4 -8.17,8.8 -16.98,13.2 -26.41,13.2 -9.01,0 -17.19,-3.77 -24.53,-11.11 -7.54,-7.34 -11.11,-15.72 -11.11,-25.15 0,-11.95 4.2,-17.82 12.79,-17.82 6.71,0 9.85,5.24 9.85,15.72 0,10.48 4.41,15.72 13,15.72 9.85,0 14.67,-6.71 14.67,-19.7 0,-13.63 -9.22,-20.34 -27.67,-20.34 -19.28,0 -40.46,5.87 -63.72,17.82 -16.56,8.6 -50.11,29.56 -100.84,62.68l-4.82 7.34c59.75,-23.27 97.27,-35.01 112.99,-35.01 17.61,0 26.42,5.45 26.42,15.93 0,7.55 -7.34,20.54 -21.6,39.41 -20.75,27.46 -31.23,42.77 -31.23,45.49 0,5.03 1.89,7.55 6.08,7.55 17.19,0 54.5,-20.13 111.73,-60.38 47.17,-32.7 76.93,-55.55 89.72,-68.12 8.6,-8.39 15.3,-12.37 20.34,-12.37 5.66,0 8.59,2.09 8.59,6.08 0,3.35 -3.77,8.59 -11.11,15.93 -35.22,35.22 -80.5,70.01 -135.84,103.97 -52.83,32.5 -88.46,48.64 -107.33,48.64 -28.3,0 -42.34,-13.84 -42.34,-41.3 0,-13 6.7,-31.02 20.12,-54.08 -47.79,15.09 -77.35,30.18 -88.46,44.86l-32.49 44.23 -76.73 0.21 168.96 -222.84 73.58 0 -38.57 49.9zm597.02 11.94c0,3.15 -3.77,8.18 -11.11,14.68 -114.25,101.46 -187.41,152.4 -219.27,152.4 -13.21,0 -24.53,-4.19 -34.17,-12.58 -9.65,-8.39 -14.47,-18.87 -14.47,-31.03 0,-19.7 13,-46.11 38.78,-79.23 8.6,-11.11 25.37,-33.75 50.32,-68.34 -21.6,4.61 -53.25,23.47 -94.55,56.6 -32.28,25.78 -60.37,51.36 -84.06,76.72l-246.31 342.11 -85.95 0 548.39 -706.86 40.46 0 -189.72 267.69c59.33,-43.39 105.45,-64.98 138.15,-64.98 26.62,0 40.04,9.22 40.04,27.67 0,8.17 -3.78,17.4 -11.11,27.46l-81.76 109.43c-4.82,6.91 -7.33,12.57 -7.33,16.56 0,4.19 2.51,6.08 7.33,6.08 19.29,0 81.76,-43.19 187.41,-129.55 10.27,-8.18 16.98,-12.16 20.12,-12.16 5.87,0 8.81,2.3 8.81,7.33zm277.54 -1.25c0,4.82 -4.82,11.74 -14.67,20.33 -30.82,28.09 -61.42,56.6 -92.24,85.32 -48.63,41.71 -85.11,62.68 -109.21,62.68 -20.55,0 -34.17,-13 -41.3,-38.78 -28.09,25.78 -52.2,38.78 -71.69,38.78 -30.4,0 -45.49,-14.89 -45.49,-44.86 0,-36.48 16.35,-73.58 49.05,-111.32 37.31,-42.55 74.21,-63.93 110.68,-63.93 15.52,0 32.29,10.06 50.32,30.18l19.07 -23.89 76.73 0 -134.59 177.55c-5.24,6.5 -7.96,10.27 -7.96,11.11 0,2.52 2.3,3.57 6.71,3.57 22.64,0 75.04,-40.88 157.22,-122.85 20.12,-20.12 33.12,-29.97 38.78,-29.97 5.66,0 8.59,1.88 8.59,6.08zm-178.18 -2.52c-9.43,-15.93 -18.66,-23.9 -28.09,-23.9 -3.35,0 -12.58,7.97 -27.67,23.9 -63.52,67.08 -95.17,113.2 -95.17,138.15 0,5.66 2.3,8.59 7.33,8.59 14.68,0 38.58,-20.12 71.91,-60.16l71.69 -86.58zm517.15 169.59c11.11,36.89 16.35,66.66 15.93,89.72 0.84,59.33 -23.27,112.78 -72.32,160.37 -49.68,48.21 -105.45,71.27 -167.7,69.38 -58.07,0 -102.51,-23.27 -133.33,-69.38 -9.85,-26 -14.46,-42.14 -14.04,-48.85 0.42,-6.91 0.84,-12.16 1.25,-15.72 -0.83,-40.67 14.89,-75.26 47.17,-104.18 32.28,-28.72 71.48,-42.77 117.39,-41.93 37.11,1.47 69.81,16.35 97.69,44.23 5.24,23.69 7.76,37.11 7.34,40.46 0,14.25 -8.39,31.23 -25.16,50.94 -18.45,21.38 -36.06,31.44 -52.83,30.81 -7.12,0 -10.69,-2.72 -11.11,-8.17 0,-3.56 3.78,-6.71 11.74,-9.01 15.52,-5.46 28.51,-14.26 39.2,-26.63 10.7,-12.16 15.94,-29.76 15.94,-52.61 -18.03,-36.06 -46.54,-52.83 -85.95,-50.52 -41.3,-1.26 -75.47,11.32 -102.3,37.31 -26.83,25.99 -36.27,67.92 -28.51,126.2 24.11,50.31 61.63,76.51 112.36,78.61 58.28,1.46 109.85,-18.87 154.71,-61.42 45.07,-42.77 67.29,-93.08 66.45,-151.15 0,-22.22 -3.36,-45.28 -9.85,-69.38 -8.18,-22.85 -14.26,-39.41 -18.45,-49.06 -26.62,20.76 -51.36,31.24 -74.21,31.24 -24.74,0 -37.73,-15.51 -39.41,-46.75 -33.54,31.24 -62.05,46.75 -85.32,46.75 -34.38,0 -51.78,-17.61 -52.2,-52.83 -41.29,35.22 -73.78,52.83 -97.05,52.83 -34.38,0 -51.57,-15.93 -51.57,-48.01 0,-18.44 10.48,-41.29 31.23,-68.76l74.42 -97.05 87.21 0 -120.96 163.3c-5.87,8.17 -8.59,13.83 -8.59,16.56 0,5.03 2.72,7.54 8.59,7.54 10.9,0 37.1,-21.38 78.61,-63.93 36.27,-37.74 71.06,-78.82 104.4,-123.47l87.2 0 -120.95 163.3c-5.87,8.17 -8.6,13.83 -8.6,16.56 0,5.03 2.73,7.54 8.6,7.54 10.9,0 37.1,-21.38 78.61,-63.93 36.26,-37.74 72.11,-78.82 107.33,-123.47l79.24 0 -123.48 158.48c-8.17,10.69 -12.15,16.98 -12.15,19.07 0.42,1.68 1.67,2.52 3.56,2.52 5.87,0 25.78,-11.53 60.16,-34.38 41.09,-27.04 82.18,-58.49 123.47,-94.12 9.86,-8.18 16.56,-12.16 20.34,-12.16 5.66,0 8.59,2.3 8.59,7.33 0,3.36 -3.77,8.18 -11.11,14.68 -51.15,47.16 -95.8,84.06 -133.74,110.68l12.16 40.46zm262.87 -318.64c0,27.05 -13.63,40.67 -40.46,40.67 -10.27,0 -19.28,-3.98 -27.04,-11.95 -7.76,-7.96 -11.74,-17.19 -11.74,-27.46 0,-10.48 3.98,-19.91 11.74,-27.88 7.76,-7.96 17.4,-11.95 28.72,-11.95 25.78,0 38.78,12.79 38.78,38.57zm46.75 152.61c0,2.94 -3.99,7.76 -11.74,14.89 -110.06,101.67 -183.85,152.4 -221.16,152.4 -15.09,0 -27.46,-5.45 -37.1,-16.56 -9.65,-11.11 -14.47,-25.37 -14.47,-42.56 0,-20.75 12.58,-45.28 37.53,-73.16l74.2 -81.75 77.99 0 -115.3 137.09c-15.3,18.03 -22.85,30.82 -22.85,38.16 0,5.03 2.94,7.33 8.6,7.33 27.04,0 92.23,-43.6 195.37,-130.8 9.85,-8.39 16.35,-12.37 19.7,-12.37 6.08,0 9.23,2.51 9.23,7.33z"></path> <path class="fil1" d="M3327.38 2037.2l227.87 -303.47c-12.38,4.64 -24.31,7.07 -35.58,7.07 -40.67,0 -60.78,-18.56 -60.78,-55.7 0,-40.66 21.43,-80.23 64.76,-118.69 43.1,-38.46 88.18,-57.68 135.26,-57.68 23.21,0 39.12,8.17 47.3,24.53l179.25 -238.04 42.88 0 -159.36 223.23c14.59,-5.97 28.29,-9.28 40.89,-9.72 40.45,0 60.78,18.56 60.78,55.69 0,28.07 -10.16,55.48 -30.5,82.45 29.4,-17.69 57.69,-38.68 84.88,-62.77 11.71,-10.83 20.11,-16.36 25.19,-16.36 5.31,0 7.74,3.09 7.74,9.06 0,10.83 -28.51,34.92 -85.98,72.06 -32.05,20.55 -61,37.79 -86.86,51.05 -36.69,27.19 -74.93,40.89 -114.49,40.89 -21.66,0 -36.69,-6.63 -45.31,-20.11l-227.44 319.82 -70.5 -3.31zm342.58 -490.9c0,-9.5 -3.75,-14.15 -11.05,-14.15 -28.95,1.33 -62.33,24.76 -100.34,70.51 -38.02,45.75 -53.05,80.9 -45.31,105.65 0,5.08 3.09,7.74 9.72,7.74 8.62,0 21.88,-7.08 40.01,-21.44 21.22,-16.8 40.89,-38.02 59.01,-63.44 31.83,-44.86 47.96,-73.16 47.96,-84.87zm-10.38 158.03c0,9.51 3.53,14.37 11.05,14.37 28.95,-1.33 62.33,-24.98 100.34,-70.73 38.02,-45.75 53.05,-80.89 45.31,-105.43 0,-5.3 -3.31,-7.73 -9.72,-7.73 -8.62,0 -22.1,7.07 -40.23,21.22 -21,16.79 -40.67,38.01 -58.79,63.43 -32.05,45.09 -47.96,73.16 -47.96,84.87zm466.14 -300.81c0,28.51 -14.37,42.88 -42.66,42.88 -10.83,0 -20.34,-4.2 -28.51,-12.6 -8.18,-8.4 -12.38,-18.13 -12.38,-28.96 0,-11.05 4.2,-20.99 12.38,-29.39 8.17,-8.4 18.34,-12.6 30.28,-12.6 27.18,0 40.89,13.48 40.89,40.67zm49.28 160.9c0,3.1 -4.19,8.18 -12.37,15.7 -116.04,107.19 -193.84,160.68 -233.18,160.68 -15.92,0 -28.96,-5.74 -39.13,-17.46 -10.16,-11.71 -15.25,-26.74 -15.25,-44.87 0,-21.88 13.27,-47.74 39.57,-77.13l78.24 -86.2 82.22 0 -121.56 144.55c-16.14,19 -24.09,32.49 -24.09,40.22 0,5.31 3.09,7.74 9.06,7.74 28.51,0 97.25,-45.97 205.99,-137.92 10.39,-8.84 17.24,-13.04 20.78,-13.04 6.41,0 9.72,2.65 9.72,7.73zm344.58 0.23c0,3.31 -3.98,8.62 -11.71,15.47 -120.46,106.97 -197.6,160.68 -231.19,160.68 -13.93,0 -25.86,-4.42 -36.03,-13.26 -10.17,-8.84 -15.25,-19.89 -15.25,-32.71 0,-20.78 13.7,-48.63 40.89,-83.55 9.06,-11.71 26.74,-35.58 53.04,-72.05 -22.76,4.86 -56.14,24.75 -99.68,59.67 -34.04,27.19 -63.65,54.16 -88.63,80.9l-259.7 360.71 -90.62 0 578.2 -745.29 42.66 0 -200.03 282.24c62.55,-45.75 111.17,-68.51 145.65,-68.51 28.07,0 42.22,9.72 42.22,29.17 0,8.62 -3.98,18.35 -11.72,28.96l-86.2 115.37c-5.08,7.3 -7.73,13.26 -7.73,17.46 0,4.42 2.65,6.41 7.73,6.41 20.34,0 86.2,-45.53 197.6,-136.59 10.83,-8.62 17.9,-12.82 21.22,-12.82 6.19,0 9.28,2.43 9.28,7.74zm94.6 74.48c-103.22,83.99 -172.4,113.17 -207.32,87.31 -15.03,-21.22 -13.04,-48.41 6.41,-81.56 24.75,-37.14 48.4,-55.04 71.39,-53.49 22.76,1.55 17.9,14.81 -15.03,39.78 -32.71,25.2 -47.3,47.97 -43.32,68.74 3.76,20.78 31.83,13.26 84.21,-22.76 34.92,-21.44 74.04,-51.72 117.14,-90.62l69.4 -71.17 83.33 0 -155.38 193.61c61.44,-22.98 112.72,-58.79 154.28,-107.41l72.49 -86.2 79.57 0 -132.84 151.62c-31.38,42.66 -26.3,54.37 15.7,35.14 41.77,-19.23 85.31,-50.61 130.84,-94.15 10.17,-8.62 17.46,-13.04 21.22,-13.04 6.19,0 9.06,2.65 9.06,7.95 0,3.32 -3.75,8.62 -11.49,15.47 -65.64,70.29 -127.53,111.62 -185.22,123.56 -41.11,0 -55.48,-20.34 -43.54,-61.45 -56.8,43.1 -98.8,63.22 -125.54,60.34 -22.55,0 -33.82,-12.6 -34.26,-37.57 -3.1,-15.25 9.95,-36.47 38.9,-64.1zm750.38 -74.48c0,3.53 -3.98,8.62 -11.72,15.47 -116.92,107.19 -198.04,160.68 -242.9,160.68 -25.86,0 -39.57,-16.35 -41.34,-49.29 -35.36,32.94 -65.42,49.29 -89.95,49.29 -36.47,0 -54.6,-16.8 -54.6,-50.61 0,-19.45 11.05,-43.54 33.16,-72.5l78.24 -102.33 91.95 0 -127.53 172.17c-5.97,8.62 -9.07,14.59 -9.07,17.47 0,5.3 3.1,7.95 9.07,7.95 11.71,0 39.34,-22.54 82.88,-67.41 38.46,-39.78 76.25,-83.11 113.39,-130.18l83.54 0 -130.18 167.09c-8.62,11.27 -13.04,17.9 -13.04,20.11 0.44,1.77 1.77,2.66 3.98,2.66 5.96,0 27.18,-12.16 63.43,-36.25 43.1,-28.51 86.64,-61.67 130.18,-99.24 10.39,-8.62 17.47,-12.82 21.44,-12.82 5.97,0 9.07,2.43 9.07,7.74z"></path> <polygon class="fil2 str0" points="5686.82,512.54 5713.28,512.54 5713.28,1802.39 5686.82,1802.39 "></polygon> <path class="fil3" d="M5912.72 620.23l33.94 0 0 225.77 84.66 0 0 -225.77 33.94 0 0 225.77 84.66 0 0 -225.77 33.94 0 0 225.77 22.86 0 0 101.1 -30.01 0 0 -71.09 -263.99 0 0 -255.78zm318.47 163.08c0,-34.24 9.52,-59.6 28.64,-76.09 15.89,-13.69 35.36,-20.54 58.28,-20.54 25.43,0 46.27,8.33 62.46,25 16.14,16.62 24.23,39.66 24.23,69.01 0,23.81 -3.57,42.51 -10.71,56.14 -7.15,13.64 -17.57,24.24 -31.26,31.8 -13.64,7.56 -28.58,11.31 -44.72,11.31 -25.95,0 -46.91,-8.28 -62.93,-24.89 -16.01,-16.61 -23.99,-40.54 -23.99,-71.74zm32.15 0.06c0,23.69 5.18,41.44 15.54,53.17 10.42,11.78 23.46,17.68 39.23,17.68 15.6,0 28.58,-5.9 39,-17.74 10.36,-11.85 15.54,-29.89 15.54,-54.12 0,-22.87 -5.24,-40.19 -15.66,-51.92 -10.42,-11.79 -23.4,-17.68 -38.88,-17.68 -15.77,0 -28.81,5.83 -39.23,17.56 -10.36,11.73 -15.54,29.41 -15.54,53.05zm178.32 163.73l0 -256.49 28.58 0 0 24.35c6.72,-9.41 14.34,-16.49 22.86,-21.2 8.45,-4.7 18.75,-7.08 30.84,-7.08 15.84,0 29.77,4.05 41.85,12.2 12.09,8.1 21.2,19.59 27.39,34.36 6.13,14.82 9.23,31.02 9.23,48.7 0,18.87 -3.39,35.9 -10.18,51.08 -6.79,15.13 -16.67,26.74 -29.65,34.83 -12.92,8.04 -26.55,12.09 -40.84,12.09 -10.48,0 -19.89,-2.2 -28.17,-6.61 -8.33,-4.41 -15.12,-9.94 -20.48,-16.67l0 90.44 -31.43 0zm28.58 -162.66c0,23.76 4.82,41.32 14.4,52.69 9.65,11.37 21.32,17.09 35.01,17.09 13.93,0 25.84,-5.9 35.73,-17.68 9.94,-11.79 14.88,-30.01 14.88,-54.72 0,-23.58 -4.82,-41.2 -14.53,-52.93 -9.7,-11.73 -21.25,-17.56 -34.71,-17.56 -13.33,0 -25.12,6.25 -35.36,18.69 -10.3,12.51 -15.42,30.6 -15.42,54.42zm170.1 -128.48l0 -35.73 31.43 0 0 35.73 -31.43 0zm0 220.05l0 -185.4 31.43 0 0 185.4 -31.43 0zm67.57 -185.4l31.43 0 0 35.01c0,15.12 0.9,26.07 2.74,32.86 1.79,6.79 6.14,12.74 13.04,17.8 6.85,5.06 15.48,7.56 25.9,7.56 11.91,0 27.27,-3.15 46.2,-9.4l0 -83.83 31.44 0 0 185.4 -31.44 0 0 -74.84c-19.35,6.07 -37.45,9.11 -54.24,9.11 -14.11,0 -26.55,-3.57 -37.33,-10.72 -10.77,-7.14 -18.1,-15.89 -21.97,-26.25 -3.87,-10.36 -5.77,-21.74 -5.77,-34.18l0 -48.52zm197.91 0l31.43 0 0 77.16 87.17 0 0 -77.16 31.43 0 0 185.4 -31.43 0 0 -82.16 -87.17 0 0 82.16 -31.43 0 0 -185.4zm318.35 162.18c-11.67,9.94 -22.92,16.91 -33.7,21.02 -10.78,4.11 -22.33,6.13 -34.71,6.13 -20.36,0 -36.02,-4.94 -46.98,-14.89 -10.95,-9.88 -16.43,-22.56 -16.43,-37.98 0,-9.05 2.08,-17.33 6.19,-24.83 4.17,-7.5 9.59,-13.45 16.26,-17.98 6.72,-4.52 14.23,-7.98 22.62,-10.3 6.19,-1.61 15.54,-3.15 27.98,-4.7 25.37,-2.98 44.12,-6.61 56.09,-10.78 0.12,-4.29 0.18,-7.02 0.18,-8.16 0,-12.74 -2.98,-21.73 -8.93,-26.97 -8.04,-7.08 -20.01,-10.59 -35.85,-10.59 -14.82,0 -25.78,2.62 -32.8,7.8 -7.09,5.18 -12.27,14.34 -15.66,27.56l-30.72 -4.29c2.8,-13.15 7.38,-23.81 13.81,-31.91 6.43,-8.09 15.72,-14.29 27.87,-18.69 12.08,-4.35 26.19,-6.55 42.15,-6.55 15.84,0 28.76,1.84 38.7,5.59 9.88,3.76 17.21,8.4 21.85,14.06 4.64,5.65 7.92,12.8 9.82,21.43 1.02,5.36 1.55,15 1.55,28.88l0 41.67c0,29.12 0.66,47.51 1.97,55.31 1.25,7.8 3.87,15.25 7.68,22.39l-32.87 0c-3.15,-6.61 -5.18,-14.35 -6.07,-23.22zm-2.5 -69.66c-11.43,4.64 -28.58,8.57 -51.44,11.79 -12.98,1.84 -22.15,3.93 -27.51,6.25 -5.36,2.32 -9.47,5.72 -12.38,10.12 -2.92,4.47 -4.41,9.41 -4.41,14.89 0,8.27 3.16,15.24 9.53,20.78 6.37,5.53 15.65,8.33 27.86,8.33 12.09,0 22.86,-2.62 32.33,-7.92 9.41,-5.24 16.37,-12.44 20.78,-21.55 3.39,-7.09 5.06,-17.51 5.06,-31.26l0.18 -11.43zm-1313.59 306.56l72.34 0c17.74,0 30.96,1.49 39.65,4.46 8.63,2.98 16.07,8.4 22.27,16.32 6.25,7.97 9.34,17.44 9.34,28.52 0,8.87 -1.84,16.61 -5.47,23.16 -3.7,6.6 -9.17,12.14 -16.56,16.55 8.7,2.91 15.9,8.33 21.68,16.31 5.71,7.92 8.57,17.39 8.57,28.28 -1.13,17.57 -7.44,30.6 -18.81,39.06 -11.38,8.51 -27.93,12.74 -49.6,12.74l-83.41 0 0 -185.4zm31.43 78.23l33.34 0c13.28,0 22.45,-0.71 27.39,-2.08 5,-1.43 9.47,-4.23 13.4,-8.52 3.93,-4.22 5.89,-9.34 5.89,-15.3 0,-9.82 -3.45,-16.61 -10.3,-20.48 -6.9,-3.87 -18.69,-5.77 -35.36,-5.77l-34.36 0 0 52.15zm0 81.45l41.26 0c17.75,0 29.95,-2.08 36.56,-6.19 6.61,-4.17 10.06,-11.26 10.42,-21.44 0,-5.89 -1.91,-11.43 -5.72,-16.49 -3.87,-5.06 -8.87,-8.27 -15,-9.58 -6.13,-1.37 -16.02,-2.03 -29.59,-2.03l-37.93 0 0 55.73zm275.49 -42.15l30.72 4.28c-3.39,21.14 -11.97,37.63 -25.84,49.6 -13.87,11.97 -30.96,17.92 -51.14,17.92 -25.31,0 -45.67,-8.28 -61.03,-24.83 -15.42,-16.55 -23.1,-40.25 -23.1,-71.09 0,-20 3.33,-37.45 9.94,-52.45 6.61,-14.94 16.67,-26.2 30.25,-33.64 13.51,-7.5 28.22,-11.25 44.18,-11.25 20.06,0 36.55,5.06 49.29,15.24 12.8,10.18 21.02,24.65 24.59,43.34l-30.36 4.65c-2.92,-12.45 -8.04,-21.79 -15.48,-28.1 -7.39,-6.26 -16.32,-9.41 -26.79,-9.41 -15.84,0 -28.7,5.65 -38.65,16.97 -9.88,11.37 -14.82,29.23 -14.82,53.76 0,24.89 4.76,42.93 14.29,54.18 9.58,11.25 22.03,16.91 37.33,16.91 12.38,0 22.68,-3.75 30.9,-11.31 8.28,-7.51 13.52,-19.12 15.72,-34.77zm183.97 7.86l32.5 4.28c-5.06,18.88 -14.52,33.58 -28.34,44 -13.81,10.42 -31.43,15.66 -52.93,15.66 -27.03,0 -48.46,-8.34 -64.3,-25.01 -15.83,-16.61 -23.75,-40.01 -23.75,-70.07 0,-31.08 7.98,-55.25 23.99,-72.4 16.02,-17.21 36.8,-25.78 62.34,-25.78 24.71,0 44.89,8.39 60.55,25.24 15.66,16.85 23.52,40.55 23.52,71.09 0,1.85 -0.06,4.65 -0.18,8.34l-138.07 0c1.19,20.3 6.9,35.9 17.26,46.67 10.3,10.78 23.22,16.2 38.64,16.2 11.5,0 21.32,-3.04 29.42,-9.11 8.15,-6.07 14.58,-15.78 19.35,-29.11zm-102.89 -50.37l103.24 0c-1.37,-15.6 -5.35,-27.27 -11.84,-35.07 -9.95,-12.09 -22.93,-18.16 -38.82,-18.16 -14.41,0 -26.5,4.82 -36.32,14.47 -9.77,9.64 -15.18,22.56 -16.26,38.76zm169.69 181.65l-3.57 -29.06c6.9,1.85 12.86,2.8 17.98,2.8 7.02,0 12.62,-1.19 16.79,-3.51 4.22,-2.32 7.68,-5.6 10.36,-9.77 1.96,-3.15 5.18,-10.95 9.58,-23.45 0.6,-1.73 1.49,-4.29 2.8,-7.68l-70.37 -186 33.58 0 38.7 107.05c5.06,13.51 9.52,27.8 13.51,42.81 3.63,-14.11 7.92,-28.05 12.92,-41.74l39.53 -108.12 31.38 0 -70.08 188.62c-7.56,20.3 -13.45,34.23 -17.68,41.91 -5.6,10.3 -12.03,17.86 -19.23,22.68 -7.26,4.83 -15.9,7.21 -25.9,7.21 -6.07,0 -12.86,-1.25 -20.3,-3.75zm179.68 -256.67l31.44 0 0 80.02c10,0 17.02,-1.91 21.07,-5.78 3.99,-3.81 9.89,-14.94 17.75,-33.46 6.19,-14.65 11.19,-24.29 15,-28.93 3.87,-4.65 8.27,-7.8 13.28,-9.41 5.06,-1.61 13.09,-2.44 24.11,-2.44l6.31 0 0 25.9 -8.75 -0.18c-8.28,0 -13.58,1.25 -15.9,3.69 -2.44,2.56 -6.19,10.18 -11.19,22.86 -4.77,12.15 -9.11,20.54 -13.1,25.19 -3.93,4.64 -10.06,8.87 -18.34,12.74 13.52,3.63 26.85,16.19 39.95,37.75l34.47 57.45 -34.53 0 -33.99 -57.28c-6.85,-11.61 -12.8,-19.23 -17.87,-22.92 -5.12,-3.69 -11.19,-5.54 -18.27,-5.54l0 85.74 -31.44 0 0 -185.4zm156.65 256.49l0 -256.49 28.58 0 0 24.35c6.72,-9.41 14.34,-16.49 22.86,-21.2 8.45,-4.7 18.75,-7.08 30.84,-7.08 15.84,0 29.77,4.05 41.85,12.2 12.09,8.1 21.2,19.59 27.39,34.36 6.13,14.82 9.23,31.02 9.23,48.7 0,18.87 -3.39,35.9 -10.18,51.08 -6.79,15.13 -16.67,26.74 -29.65,34.83 -12.92,8.04 -26.55,12.09 -40.84,12.09 -10.48,0 -19.89,-2.2 -28.17,-6.61 -8.33,-4.41 -15.12,-9.94 -20.48,-16.67l0 90.44 -31.43 0zm28.58 -162.66c0,23.76 4.82,41.32 14.4,52.69 9.65,11.37 21.32,17.09 35.01,17.09 13.93,0 25.84,-5.9 35.73,-17.68 9.94,-11.79 14.88,-30.01 14.88,-54.72 0,-23.58 -4.82,-41.2 -14.53,-52.93 -9.7,-11.73 -21.25,-17.56 -34.71,-17.56 -13.33,0 -25.12,6.25 -35.36,18.69 -10.3,12.51 -15.42,30.6 -15.42,54.42zm291.2 68.35c-11.67,9.94 -22.92,16.91 -33.7,21.02 -10.78,4.11 -22.33,6.13 -34.71,6.13 -20.36,0 -36.02,-4.94 -46.98,-14.89 -10.95,-9.88 -16.43,-22.56 -16.43,-37.98 0,-9.05 2.08,-17.33 6.19,-24.83 4.17,-7.5 9.59,-13.45 16.26,-17.98 6.72,-4.52 14.23,-7.98 22.62,-10.3 6.19,-1.61 15.54,-3.15 27.98,-4.7 25.37,-2.98 44.12,-6.61 56.09,-10.78 0.12,-4.29 0.18,-7.02 0.18,-8.16 0,-12.74 -2.98,-21.73 -8.93,-26.97 -8.04,-7.08 -20.01,-10.59 -35.85,-10.59 -14.82,0 -25.78,2.62 -32.8,7.8 -7.09,5.18 -12.27,14.34 -15.66,27.56l-30.72 -4.29c2.8,-13.15 7.38,-23.81 13.81,-31.91 6.43,-8.09 15.72,-14.29 27.87,-18.69 12.08,-4.35 26.19,-6.55 42.15,-6.55 15.84,0 28.76,1.84 38.7,5.59 9.88,3.76 17.21,8.4 21.85,14.06 4.64,5.65 7.92,12.8 9.82,21.43 1.02,5.36 1.55,15 1.55,28.88l0 41.67c0,29.12 0.66,47.51 1.97,55.31 1.25,7.8 3.87,15.25 7.68,22.39l-32.87 0c-3.15,-6.61 -5.18,-14.35 -6.07,-23.22zm-2.5 -69.66c-11.43,4.64 -28.58,8.57 -51.44,11.79 -12.98,1.84 -22.15,3.93 -27.51,6.25 -5.36,2.32 -9.47,5.72 -12.38,10.12 -2.92,4.47 -4.41,9.41 -4.41,14.89 0,8.27 3.16,15.24 9.53,20.78 6.37,5.53 15.65,8.33 27.86,8.33 12.09,0 22.86,-2.62 32.33,-7.92 9.41,-5.24 16.37,-12.44 20.78,-21.55 3.39,-7.09 5.06,-17.51 5.06,-31.26l0.18 -11.43zm91.15 92.88l0 -185.4 31.44 0 0 185.4 -31.44 0zm-33.58 -208.27l0 -35.72 32.87 0 0 35.72 -32.87 0zm65.02 0l0 -35.72 32.86 0 0 35.72 -32.86 0zm56.74 22.87l31.43 0 0 77.16 87.17 0 0 -77.16 31.43 0 0 185.4 -31.43 0 0 -82.16 -87.17 0 0 82.16 -31.43 0 0 -185.4zm318.35 117.53l30.72 4.28c-3.39,21.14 -11.97,37.63 -25.84,49.6 -13.87,11.97 -30.96,17.92 -51.14,17.92 -25.31,0 -45.67,-8.28 -61.03,-24.83 -15.42,-16.55 -23.1,-40.25 -23.1,-71.09 0,-20 3.33,-37.45 9.94,-52.45 6.61,-14.94 16.67,-26.2 30.25,-33.64 13.51,-7.5 28.22,-11.25 44.18,-11.25 20.06,0 36.55,5.06 49.29,15.24 12.8,10.18 21.02,24.65 24.59,43.34l-30.36 4.65c-2.92,-12.45 -8.04,-21.79 -15.48,-28.1 -7.39,-6.26 -16.32,-9.41 -26.79,-9.41 -15.84,0 -28.7,5.65 -38.65,16.97 -9.88,11.37 -14.82,29.23 -14.82,53.76 0,24.89 4.76,42.93 14.29,54.18 9.58,11.25 22.03,16.91 37.33,16.91 12.38,0 22.68,-3.75 30.9,-11.31 8.28,-7.51 13.52,-19.12 15.72,-34.77zm243.27 -117.53l31.44 0 0 80.02c10,0 17.02,-1.91 21.07,-5.78 3.99,-3.81 9.89,-14.94 17.75,-33.46 6.19,-14.65 11.19,-24.29 15,-28.93 3.87,-4.65 8.27,-7.8 13.28,-9.41 5.06,-1.61 13.09,-2.44 24.11,-2.44l6.31 0 0 25.9 -8.75 -0.18c-8.28,0 -13.58,1.25 -15.9,3.69 -2.44,2.56 -6.19,10.18 -11.19,22.86 -4.77,12.15 -9.11,20.54 -13.1,25.19 -3.93,4.64 -10.06,8.87 -18.34,12.74 13.52,3.63 26.85,16.19 39.95,37.75l34.47 57.45 -34.53 0 -33.99 -57.28c-6.85,-11.61 -12.8,-19.23 -17.87,-22.92 -5.12,-3.69 -11.19,-5.54 -18.27,-5.54l0 85.74 -31.44 0 0 -185.4zm285.61 162.18c-11.67,9.94 -22.92,16.91 -33.7,21.02 -10.78,4.11 -22.33,6.13 -34.71,6.13 -20.36,0 -36.02,-4.94 -46.98,-14.89 -10.95,-9.88 -16.43,-22.56 -16.43,-37.98 0,-9.05 2.08,-17.33 6.19,-24.83 4.17,-7.5 9.59,-13.45 16.26,-17.98 6.72,-4.52 14.23,-7.98 22.62,-10.3 6.19,-1.61 15.54,-3.15 27.98,-4.7 25.37,-2.98 44.12,-6.61 56.09,-10.78 0.12,-4.29 0.18,-7.02 0.18,-8.16 0,-12.74 -2.98,-21.73 -8.93,-26.97 -8.04,-7.08 -20.01,-10.59 -35.85,-10.59 -14.82,0 -25.78,2.62 -32.8,7.8 -7.09,5.18 -12.27,14.34 -15.66,27.56l-30.72 -4.29c2.8,-13.15 7.38,-23.81 13.81,-31.91 6.43,-8.09 15.72,-14.29 27.87,-18.69 12.08,-4.35 26.19,-6.55 42.15,-6.55 15.84,0 28.76,1.84 38.7,5.59 9.88,3.76 17.21,8.4 21.85,14.06 4.64,5.65 7.92,12.8 9.82,21.43 1.02,5.36 1.55,15 1.55,28.88l0 41.67c0,29.12 0.66,47.51 1.97,55.31 1.25,7.8 3.87,15.25 7.68,22.39l-32.87 0c-3.15,-6.61 -5.18,-14.35 -6.07,-23.22zm-2.5 -69.66c-11.43,4.64 -28.58,8.57 -51.44,11.79 -12.98,1.84 -22.15,3.93 -27.51,6.25 -5.36,2.32 -9.47,5.72 -12.38,10.12 -2.92,4.47 -4.41,9.41 -4.41,14.89 0,8.27 3.16,15.24 9.53,20.78 6.37,5.53 15.65,8.33 27.86,8.33 12.09,0 22.86,-2.62 32.33,-7.92 9.41,-5.24 16.37,-12.44 20.78,-21.55 3.39,-7.09 5.06,-17.51 5.06,-31.26l0.18 -11.43zm-2235.36 306.56l146.46 0 0 185.4 -31.43 0 0 -159.32 -83.6 0 0 159.32 -31.43 0 0 -185.4zm193.44 256.49l0 -256.49 28.58 0 0 24.35c6.72,-9.41 14.34,-16.49 22.86,-21.2 8.45,-4.7 18.75,-7.08 30.84,-7.08 15.84,0 29.77,4.05 41.85,12.2 12.09,8.1 21.2,19.59 27.39,34.36 6.13,14.82 9.23,31.02 9.23,48.7 0,18.87 -3.39,35.9 -10.18,51.08 -6.79,15.13 -16.67,26.74 -29.65,34.83 -12.92,8.04 -26.55,12.09 -40.84,12.09 -10.48,0 -19.89,-2.2 -28.17,-6.61 -8.33,-4.41 -15.12,-9.94 -20.48,-16.67l0 90.44 -31.43 0zm28.58 -162.66c0,23.76 4.82,41.32 14.4,52.69 9.65,11.37 21.32,17.09 35.01,17.09 13.93,0 25.84,-5.9 35.73,-17.68 9.94,-11.79 14.88,-30.01 14.88,-54.72 0,-23.58 -4.82,-41.2 -14.53,-52.93 -9.7,-11.73 -21.25,-17.56 -34.71,-17.56 -13.33,0 -25.12,6.25 -35.36,18.69 -10.3,12.51 -15.42,30.6 -15.42,54.42zm296.56 31.56l32.5 4.28c-5.06,18.88 -14.52,33.58 -28.34,44 -13.81,10.42 -31.43,15.66 -52.93,15.66 -27.03,0 -48.46,-8.34 -64.3,-25.01 -15.83,-16.61 -23.75,-40.01 -23.75,-70.07 0,-31.08 7.98,-55.25 23.99,-72.4 16.02,-17.21 36.8,-25.78 62.34,-25.78 24.71,0 44.89,8.39 60.55,25.24 15.66,16.85 23.52,40.55 23.52,71.09 0,1.85 -0.06,4.65 -0.18,8.34l-138.07 0c1.19,20.3 6.9,35.9 17.26,46.67 10.3,10.78 23.22,16.2 38.64,16.2 11.5,0 21.32,-3.04 29.42,-9.11 8.15,-6.07 14.58,-15.78 19.35,-29.11zm-102.89 -50.37l103.24 0c-1.37,-15.6 -5.35,-27.27 -11.84,-35.07 -9.95,-12.09 -22.93,-18.16 -38.82,-18.16 -14.41,0 -26.5,4.82 -36.32,14.47 -9.77,9.64 -15.18,22.56 -16.26,38.76zm176.18 -75.02l48.34 0 49 148.37 54.24 -148.37 44.9 0 0 185.4 -31.44 0 0 -149.26 -54.6 149.26 -28.1 0 -51.62 -156.41 0 156.41 -30.72 0 0 -185.4zm244.53 -34.65l0 -35.73 31.43 0 0 35.73 -31.43 0zm0 220.05l0 -185.4 31.43 0 0 185.4 -31.43 0zm225.46 -185.4l0 185.4 -31.43 0 0 -72.16 -18.1 0c-11.02,0 -19.23,1.43 -24.65,4.35 -5.42,2.91 -13.34,12.02 -23.76,27.44l-27.62 40.37 -38.94 0 33.94 -49.77c10.36,-15.25 20.72,-23.82 31.02,-25.78 -17.92,-2.45 -31.26,-8.93 -39.95,-19.41 -8.7,-10.48 -13.04,-22.57 -13.04,-36.2 0,-16.14 5.65,-29.18 17.03,-39.18 11.37,-10.06 27.86,-15.06 49.41,-15.06l86.09 0zm-31.43 26.08l-44.66 0c-18.69,0 -30.78,2.91 -36.2,8.75 -5.41,5.83 -8.09,12.68 -8.09,20.48 0,11.07 3.99,19.23 11.96,24.41 7.92,5.18 22.03,7.8 42.28,7.8l34.71 0 0 -61.44zm161.58 -26.08l150.04 0 0 26.08 -59.3 0 0 159.32 -31.44 0 0 -159.32 -59.3 0 0 -26.08zm297.16 162.18c-11.67,9.94 -22.92,16.91 -33.7,21.02 -10.78,4.11 -22.33,6.13 -34.71,6.13 -20.36,0 -36.02,-4.94 -46.98,-14.89 -10.95,-9.88 -16.43,-22.56 -16.43,-37.98 0,-9.05 2.08,-17.33 6.19,-24.83 4.17,-7.5 9.59,-13.45 16.26,-17.98 6.72,-4.52 14.23,-7.98 22.62,-10.3 6.19,-1.61 15.54,-3.15 27.98,-4.7 25.37,-2.98 44.12,-6.61 56.09,-10.78 0.12,-4.29 0.18,-7.02 0.18,-8.16 0,-12.74 -2.98,-21.73 -8.93,-26.97 -8.04,-7.08 -20.01,-10.59 -35.85,-10.59 -14.82,0 -25.78,2.62 -32.8,7.8 -7.09,5.18 -12.27,14.34 -15.66,27.56l-30.72 -4.29c2.8,-13.15 7.38,-23.81 13.81,-31.91 6.43,-8.09 15.72,-14.29 27.87,-18.69 12.08,-4.35 26.19,-6.55 42.15,-6.55 15.84,0 28.76,1.84 38.7,5.59 9.88,3.76 17.21,8.4 21.85,14.06 4.64,5.65 7.92,12.8 9.82,21.43 1.02,5.36 1.55,15 1.55,28.88l0 41.67c0,29.12 0.66,47.51 1.97,55.31 1.25,7.8 3.87,15.25 7.68,22.39l-32.87 0c-3.15,-6.61 -5.18,-14.35 -6.07,-23.22zm-2.5 -69.66c-11.43,4.64 -28.58,8.57 -51.44,11.79 -12.98,1.84 -22.15,3.93 -27.51,6.25 -5.36,2.32 -9.47,5.72 -12.38,10.12 -2.92,4.47 -4.41,9.41 -4.41,14.89 0,8.27 3.16,15.24 9.53,20.78 6.37,5.53 15.65,8.33 27.86,8.33 12.09,0 22.86,-2.62 32.33,-7.92 9.41,-5.24 16.37,-12.44 20.78,-21.55 3.39,-7.09 5.06,-17.51 5.06,-31.26l0.18 -11.43zm180.4 -92.52l48.34 0 49 148.37 54.24 -148.37 44.9 0 0 185.4 -31.44 0 0 -149.26 -54.6 149.26 -28.1 0 -51.62 -156.41 0 156.41 -30.72 0 0 -185.4zm370.99 125.39l32.5 4.28c-5.06,18.88 -14.52,33.58 -28.34,44 -13.81,10.42 -31.43,15.66 -52.93,15.66 -27.03,0 -48.46,-8.34 -64.3,-25.01 -15.83,-16.61 -23.75,-40.01 -23.75,-70.07 0,-31.08 7.98,-55.25 23.99,-72.4 16.02,-17.21 36.8,-25.78 62.34,-25.78 24.71,0 44.89,8.39 60.55,25.24 15.66,16.85 23.52,40.55 23.52,71.09 0,1.85 -0.06,4.65 -0.18,8.34l-138.07 0c1.19,20.3 6.9,35.9 17.26,46.67 10.3,10.78 23.22,16.2 38.64,16.2 11.5,0 21.32,-3.04 29.42,-9.11 8.15,-6.07 14.58,-15.78 19.35,-29.11zm-102.89 -50.37l103.24 0c-1.37,-15.6 -5.35,-27.27 -11.84,-35.07 -9.95,-12.09 -22.93,-18.16 -38.82,-18.16 -14.41,0 -26.5,4.82 -36.32,14.47 -9.77,9.64 -15.18,22.56 -16.26,38.76zm191.9 -75.02l129.31 0 0 159.68 20.01 0 0 78.23 -25.72 0 0 -52.51 -146.11 0 0 52.51 -25.72 0 0 -78.23 16.43 0c22.15,-30.07 32.75,-83.29 31.8,-159.68zm26.07 26.08c-2.32,60.19 -11.61,104.72 -27.86,133.6l99.67 0 0 -133.6 -71.81 0zm157.72 -60.73l0 -35.73 31.43 0 0 35.73 -31.43 0zm0 220.05l0 -185.4 31.43 0 0 185.4 -31.43 0zm200.46 -23.22c-11.67,9.94 -22.92,16.91 -33.7,21.02 -10.78,4.11 -22.33,6.13 -34.71,6.13 -20.36,0 -36.02,-4.94 -46.98,-14.89 -10.95,-9.88 -16.43,-22.56 -16.43,-37.98 0,-9.05 2.08,-17.33 6.19,-24.83 4.17,-7.5 9.59,-13.45 16.26,-17.98 6.72,-4.52 14.23,-7.98 22.62,-10.3 6.19,-1.61 15.54,-3.15 27.98,-4.7 25.37,-2.98 44.12,-6.61 56.09,-10.78 0.12,-4.29 0.18,-7.02 0.18,-8.16 0,-12.74 -2.98,-21.73 -8.93,-26.97 -8.04,-7.08 -20.01,-10.59 -35.85,-10.59 -14.82,0 -25.78,2.62 -32.8,7.8 -7.09,5.18 -12.27,14.34 -15.66,27.56l-30.72 -4.29c2.8,-13.15 7.38,-23.81 13.81,-31.91 6.43,-8.09 15.72,-14.29 27.87,-18.69 12.08,-4.35 26.19,-6.55 42.15,-6.55 15.84,0 28.76,1.84 38.7,5.59 9.88,3.76 17.21,8.4 21.85,14.06 4.64,5.65 7.92,12.8 9.82,21.43 1.02,5.36 1.55,15 1.55,28.88l0 41.67c0,29.12 0.66,47.51 1.97,55.31 1.25,7.8 3.87,15.25 7.68,22.39l-32.87 0c-3.15,-6.61 -5.18,-14.35 -6.07,-23.22zm-2.5 -69.66c-11.43,4.64 -28.58,8.57 -51.44,11.79 -12.98,1.84 -22.15,3.93 -27.51,6.25 -5.36,2.32 -9.47,5.72 -12.38,10.12 -2.92,4.47 -4.41,9.41 -4.41,14.89 0,8.27 3.16,15.24 9.53,20.78 6.37,5.53 15.65,8.33 27.86,8.33 12.09,0 22.86,-2.62 32.33,-7.92 9.41,-5.24 16.37,-12.44 20.78,-21.55 3.39,-7.09 5.06,-17.51 5.06,-31.26l0.18 -11.43zm-743.05 -491.6l31.44 0 0 72.52 39.77 0c25.96,0 45.9,5 59.96,15.06 13.99,10.06 21.01,23.93 21.01,41.62 0,15.48 -5.83,28.69 -17.56,39.71 -11.67,11.01 -30.37,16.49 -56.09,16.49l-78.53 0 0 -185.4zm31.44 159.68l33.1 0c19.95,0 34.18,-2.44 42.69,-7.32 8.52,-4.89 12.8,-12.51 12.8,-22.87 0,-8.03 -3.15,-15.18 -9.46,-21.49 -6.32,-6.25 -20.25,-9.41 -41.86,-9.41l-37.27 0 0 61.09z"></path> </g> </svg> 