<?xml version="1.0" encoding="UTF-8"?> <svg xmlns="http://www.w3.org/2000/svg" width="425" height="457" viewBox="0 0 425 457" fill="none"> <rect width="425" height="457" fill="white"></rect> <rect width="420" height="360" transform="translate(2.5 90)" fill="white"></rect> <rect width="60" height="60" transform="translate(2.5 90)" fill="white"></rect> <path d="M2.5 90H62.5V150H2.5V90Z" fill="#E5E5E5" stroke="#828282"></path> <path d="M22.0405 112.818V123H19.9126V114.568H15.7962V123H13.6683V112.818H22.0405ZM24.09 123V112.818H26.2427V117.019H30.6127V112.818H32.7605V123H30.6127V118.794H26.2427V123H24.09Z" fill="black"></path> <rect width="60" height="60" transform="translate(62.5 90)" fill="white"></rect> <rect x="62.5" y="90" width="60" height="60" fill="#E5E5E5" stroke="#828282"></rect> <path d="M73.3849 123V112.818H77.4616C78.2107 112.818 78.8355 112.929 79.3359 113.151C79.8364 113.373 80.2126 113.682 80.4645 114.076C80.7164 114.467 80.8423 114.918 80.8423 115.428C80.8423 115.826 80.7628 116.176 80.6037 116.477C80.4446 116.776 80.2259 117.021 79.9474 117.213C79.6723 117.402 79.3575 117.536 79.0028 117.616V117.715C79.3906 117.732 79.7536 117.841 80.0916 118.043C80.433 118.246 80.7098 118.529 80.9219 118.893C81.134 119.255 81.2401 119.686 81.2401 120.186C81.2401 120.726 81.1058 121.209 80.8374 121.633C80.5722 122.054 80.1795 122.387 79.6591 122.632C79.1387 122.877 78.4974 123 77.7351 123H73.3849ZM75.5376 121.24H77.2926C77.8925 121.24 78.33 121.126 78.6051 120.897C78.8802 120.665 79.0178 120.357 79.0178 119.972C79.0178 119.691 78.9498 119.442 78.8139 119.227C78.678 119.011 78.4841 118.842 78.2322 118.719C77.9837 118.597 77.687 118.536 77.3423 118.536H75.5376V121.24ZM75.5376 117.079H77.1335C77.4285 117.079 77.6903 117.027 77.919 116.925C78.151 116.819 78.3333 116.67 78.4659 116.477C78.6018 116.285 78.6697 116.055 78.6697 115.786C78.6697 115.418 78.5388 115.122 78.277 114.896C78.0185 114.671 77.6506 114.558 77.1733 114.558H75.5376V117.079ZM82.253 114.593V112.818H90.6152V114.593H87.498V123H85.3702V114.593H82.253Z" fill="black"></path> <rect width="60" height="60" transform="translate(122.5 90)" fill="white"></rect> <rect x="122.5" y="90" width="60" height="60" fill="#E5E5E5" stroke="#828282"></rect> <path d="M142.369 116.383H140.191C140.151 116.101 140.07 115.851 139.947 115.632C139.825 115.41 139.667 115.221 139.475 115.065C139.283 114.91 139.061 114.79 138.809 114.707C138.56 114.625 138.29 114.583 137.999 114.583C137.472 114.583 137.013 114.714 136.621 114.976C136.23 115.234 135.927 115.612 135.712 116.109C135.496 116.603 135.388 117.203 135.388 117.909C135.388 118.635 135.496 119.245 135.712 119.739C135.93 120.232 136.235 120.605 136.626 120.857C137.018 121.109 137.47 121.235 137.984 121.235C138.272 121.235 138.539 121.197 138.784 121.121C139.033 121.045 139.253 120.933 139.445 120.788C139.638 120.638 139.797 120.458 139.923 120.246C140.052 120.034 140.141 119.792 140.191 119.52L142.369 119.53C142.312 119.997 142.171 120.448 141.946 120.882C141.724 121.313 141.424 121.699 141.046 122.04C140.672 122.379 140.224 122.647 139.704 122.846C139.187 123.041 138.602 123.139 137.949 123.139C137.041 123.139 136.229 122.934 135.513 122.523C134.8 122.112 134.237 121.517 133.822 120.738C133.411 119.959 133.206 119.016 133.206 117.909C133.206 116.799 133.415 115.854 133.832 115.075C134.25 114.296 134.817 113.703 135.533 113.295C136.249 112.884 137.054 112.679 137.949 112.679C138.539 112.679 139.086 112.762 139.589 112.928C140.097 113.093 140.546 113.335 140.937 113.653C141.328 113.968 141.646 114.354 141.891 114.812C142.14 115.269 142.299 115.793 142.369 116.383ZM143.912 123V112.818H147.929C148.702 112.818 149.359 112.966 149.903 113.261C150.447 113.552 150.861 113.958 151.146 114.479C151.434 114.996 151.578 115.592 151.578 116.268C151.578 116.945 151.433 117.541 151.141 118.058C150.849 118.575 150.427 118.978 149.873 119.266C149.323 119.555 148.657 119.699 147.875 119.699H145.314V117.974H147.527C147.941 117.974 148.282 117.902 148.551 117.76C148.823 117.614 149.025 117.414 149.157 117.158C149.293 116.9 149.361 116.603 149.361 116.268C149.361 115.93 149.293 115.635 149.157 115.384C149.025 115.128 148.823 114.931 148.551 114.792C148.279 114.649 147.934 114.578 147.517 114.578H146.065V123H143.912Z" fill="black"></path> <rect width="60" height="60" transform="translate(182.5 90)" fill="white"></rect> <rect x="182.5" y="90" width="60" height="60" fill="#E5E5E5" stroke="#828282"></rect> <path d="M193.798 112.818H195.891V116.099C195.891 116.491 195.959 116.805 196.094 117.044C196.23 117.279 196.441 117.45 196.726 117.556C197.014 117.659 197.384 117.71 197.835 117.71C197.994 117.71 198.181 117.705 198.396 117.695C198.612 117.682 198.834 117.664 199.062 117.641C199.295 117.617 199.513 117.589 199.719 117.556C199.924 117.523 200.095 117.485 200.231 117.442V119.142C200.092 119.188 199.918 119.23 199.709 119.266C199.503 119.299 199.286 119.329 199.058 119.356C198.829 119.379 198.607 119.397 198.391 119.411C198.176 119.424 197.99 119.43 197.835 119.43C197.016 119.43 196.303 119.314 195.697 119.082C195.09 118.847 194.621 118.484 194.29 117.994C193.962 117.503 193.798 116.872 193.798 116.099V112.818ZM199.858 112.818H201.961V123H199.858V112.818ZM203.702 114.593V112.818H212.064V114.593H208.947V123H206.819V114.593H203.702Z" fill="black"></path> <rect width="60" height="60" transform="translate(242.5 90)" fill="white"></rect> <rect x="242.5" y="90" width="60" height="60" fill="#E5E5E5" stroke="#828282"></rect> <path d="M262.04 112.818V123H259.913V114.568H255.796V123H253.668V112.818H262.04ZM263.702 114.593V112.818H272.064V114.593H268.947V123H266.819V114.593H263.702Z" fill="black"></path> <rect width="60" height="60" transform="translate(302.5 90)" fill="white"></rect> <rect x="302.5" y="90" width="60" height="60" fill="#E5E5E5" stroke="#828282"></rect> <path d="M322.369 116.383H320.191C320.151 116.101 320.07 115.851 319.947 115.632C319.825 115.41 319.667 115.221 319.475 115.065C319.283 114.91 319.061 114.79 318.809 114.707C318.56 114.625 318.29 114.583 317.999 114.583C317.472 114.583 317.013 114.714 316.621 114.976C316.23 115.234 315.927 115.612 315.712 116.109C315.496 116.603 315.388 117.203 315.388 117.909C315.388 118.635 315.496 119.245 315.712 119.739C315.93 120.232 316.235 120.605 316.626 120.857C317.018 121.109 317.47 121.235 317.984 121.235C318.272 121.235 318.539 121.197 318.784 121.121C319.033 121.045 319.253 120.933 319.445 120.788C319.638 120.638 319.797 120.458 319.923 120.246C320.052 120.034 320.141 119.792 320.191 119.52L322.369 119.53C322.312 119.997 322.171 120.448 321.946 120.882C321.724 121.313 321.424 121.699 321.046 122.04C320.672 122.379 320.224 122.647 319.704 122.846C319.187 123.041 318.602 123.139 317.949 123.139C317.041 123.139 316.229 122.934 315.513 122.523C314.8 122.112 314.237 121.517 313.822 120.738C313.411 119.959 313.206 119.016 313.206 117.909C313.206 116.799 313.415 115.854 313.832 115.075C314.25 114.296 314.817 113.703 315.533 113.295C316.249 112.884 317.054 112.679 317.949 112.679C318.539 112.679 319.086 112.762 319.589 112.928C320.097 113.093 320.546 113.335 320.937 113.653C321.328 113.968 321.646 114.354 321.891 114.812C322.14 115.269 322.299 115.793 322.369 116.383ZM323.912 123V112.818H330.669V114.593H326.065V116.582H327.721C328.526 116.582 329.22 116.713 329.804 116.974C330.39 117.233 330.843 117.599 331.161 118.073C331.479 118.547 331.638 119.106 331.638 119.749C331.638 120.388 331.479 120.953 331.161 121.444C330.843 121.931 330.39 122.312 329.804 122.587C329.22 122.862 328.526 123 327.721 123H323.912ZM326.065 121.27H327.721C328.105 121.27 328.43 121.2 328.695 121.061C328.96 120.919 329.161 120.731 329.297 120.499C329.436 120.264 329.505 120.007 329.505 119.729C329.505 119.324 329.351 118.983 329.043 118.705C328.738 118.423 328.297 118.282 327.721 118.282H326.065V121.27Z" fill="black"></path> <rect width="60" height="60" transform="translate(362.5 90)" fill="white"></rect> <path d="M362.5 90H422.5V150H362.5V90Z" fill="#E5E5E5" stroke="#828282"></path> <path d="M373.385 123V112.818H375.538V117.019H379.908V112.818H382.055V123H379.908V118.794H375.538V123H373.385ZM383.278 125.456V121.285H383.969C384.205 121.116 384.42 120.877 384.616 120.569C384.811 120.257 384.979 119.828 385.118 119.281C385.257 118.731 385.357 118.012 385.416 117.124L385.705 112.818H392.441V121.285H393.555V125.446H391.487V123H385.347V125.456H383.278ZM386.455 121.285H390.373V114.593H387.643L387.484 117.124C387.441 117.796 387.37 118.393 387.271 118.913C387.174 119.434 387.057 119.889 386.918 120.281C386.782 120.668 386.628 121.003 386.455 121.285Z" fill="black"></path> <rect width="60" height="60" transform="translate(2.5 150)" fill="white"></rect> <rect x="2.5" y="150" width="60" height="60" fill="white" stroke="#828282"></rect> <rect width="60" height="60" transform="translate(62.5 150)" fill="white"></rect> <rect x="62.5" y="150" width="60" height="60" fill="white" stroke="#828282"></rect> <path d="M78.1676 163.818V174H75.4034V166.364H75.3438L73.1165 167.696V165.349L75.6222 163.818H78.1676ZM83.3207 172.608V165.25H85.5479V172.608H83.3207ZM80.7553 170.043V167.815H88.1133V170.043H80.7553Z" fill="#0A9F58"></path> <rect width="60" height="60" transform="translate(122.5 150)" fill="white"></rect> <rect x="122.5" y="150" width="60" height="60" fill="white" stroke="#828282"></rect> <path d="M133.176 174V172.011L136.974 168.869C137.226 168.661 137.442 168.465 137.621 168.283C137.803 168.097 137.942 167.906 138.038 167.711C138.138 167.515 138.188 167.298 138.188 167.06C138.188 166.798 138.131 166.574 138.018 166.388C137.909 166.203 137.757 166.06 137.561 165.961C137.366 165.858 137.14 165.807 136.885 165.807C136.63 165.807 136.404 165.858 136.209 165.961C136.017 166.064 135.867 166.214 135.761 166.413C135.655 166.612 135.602 166.854 135.602 167.139H132.977C132.977 166.423 133.138 165.807 133.46 165.29C133.781 164.773 134.235 164.375 134.822 164.097C135.408 163.818 136.096 163.679 136.885 163.679C137.7 163.679 138.406 163.81 139.003 164.072C139.603 164.33 140.065 164.695 140.39 165.165C140.718 165.636 140.882 166.188 140.882 166.821C140.882 167.212 140.801 167.602 140.638 167.989C140.476 168.374 140.184 168.8 139.763 169.267C139.343 169.734 138.744 170.291 137.969 170.938L137.014 171.733V171.793H140.991V174H133.176ZM145.289 172.608V165.25H147.517V172.608H145.289ZM142.724 170.043V167.815H150.082V170.043H142.724Z" fill="#0A9F58"></path> <rect width="60" height="60" transform="translate(182.5 150)" fill="white"></rect> <rect x="182.5" y="150" width="60" height="60" fill="white" stroke="#828282"></rect> <path d="M197.153 174.139C196.351 174.139 195.639 174.002 195.016 173.727C194.396 173.448 193.909 173.065 193.554 172.578C193.199 172.091 193.02 171.531 193.017 170.898H195.801C195.804 171.093 195.864 171.269 195.98 171.425C196.099 171.577 196.262 171.696 196.467 171.783C196.673 171.869 196.908 171.912 197.173 171.912C197.429 171.912 197.654 171.867 197.849 171.778C198.045 171.685 198.197 171.557 198.307 171.395C198.416 171.232 198.469 171.047 198.466 170.838C198.469 170.633 198.406 170.45 198.277 170.291C198.151 170.132 197.974 170.008 197.745 169.918C197.516 169.829 197.253 169.784 196.955 169.784H195.92V167.875H196.955C197.23 167.875 197.472 167.83 197.68 167.741C197.893 167.651 198.057 167.527 198.173 167.368C198.292 167.209 198.35 167.027 198.347 166.821C198.35 166.622 198.302 166.446 198.202 166.294C198.103 166.142 197.964 166.022 197.785 165.936C197.609 165.85 197.405 165.807 197.173 165.807C196.921 165.807 196.696 165.852 196.497 165.941C196.302 166.031 196.147 166.155 196.035 166.314C195.922 166.473 195.864 166.655 195.861 166.861H193.216C193.219 166.238 193.39 165.687 193.728 165.21C194.069 164.733 194.537 164.358 195.13 164.087C195.723 163.815 196.404 163.679 197.173 163.679C197.926 163.679 198.59 163.807 199.167 164.062C199.747 164.317 200.199 164.668 200.524 165.116C200.852 165.56 201.015 166.069 201.011 166.642C201.018 167.212 200.822 167.679 200.425 168.044C200.03 168.409 199.53 168.624 198.923 168.69V168.77C199.745 168.859 200.363 169.111 200.778 169.526C201.192 169.937 201.396 170.454 201.389 171.077C201.393 171.673 201.214 172.202 200.852 172.663C200.494 173.123 199.996 173.485 199.356 173.746C198.719 174.008 197.985 174.139 197.153 174.139ZM205.686 172.608V165.25H207.913V172.608H205.686ZM203.121 170.043V167.815H210.479V170.043H203.121Z" fill="#0A9F58"></path> <rect width="60" height="60" transform="translate(242.5 150)" fill="white"></rect> <rect x="242.5" y="150" width="60" height="60" fill="white" stroke="#828282"></rect> <path d="M253.315 171.912V170.898L257.79 163.818H258.526V165.389H258.028L254.648 170.739V170.818H260.673V171.912H253.315ZM258.108 174V171.604V171.131V163.818H259.281V174H258.108Z" fill="black"></path> <rect width="60" height="60" transform="translate(302.5 150)" fill="white"></rect> <rect x="302.5" y="150" width="60" height="60" fill="white" stroke="#828282"></rect> <path d="M316.736 174.139C316.152 174.139 315.627 174.023 315.16 173.791C314.692 173.559 314.318 173.241 314.036 172.837C313.754 172.432 313.6 171.972 313.574 171.455H314.767C314.813 171.915 315.022 172.296 315.393 172.598C315.768 172.896 316.215 173.045 316.736 173.045C317.153 173.045 317.525 172.948 317.849 172.752C318.178 172.557 318.434 172.288 318.62 171.947C318.809 171.602 318.903 171.213 318.903 170.778C318.903 170.334 318.806 169.938 318.61 169.59C318.418 169.239 318.153 168.962 317.815 168.76C317.477 168.558 317.09 168.455 316.656 168.452C316.345 168.448 316.025 168.496 315.697 168.596C315.369 168.692 315.098 168.816 314.886 168.969L313.733 168.83L314.349 163.818H319.639V164.912H315.384L315.026 167.915H315.085C315.294 167.749 315.556 167.612 315.871 167.502C316.186 167.393 316.514 167.338 316.855 167.338C317.478 167.338 318.033 167.487 318.521 167.786C319.011 168.08 319.396 168.485 319.674 168.999C319.956 169.512 320.097 170.099 320.097 170.759C320.097 171.408 319.951 171.988 319.659 172.499C319.371 173.006 318.973 173.407 318.466 173.702C317.959 173.993 317.382 174.139 316.736 174.139Z" fill="black"></path> <rect width="60" height="60" transform="translate(362.5 150)" fill="white"></rect> <rect x="362.5" y="150" width="60" height="60" fill="white" stroke="#828282"></rect> <path d="M376.935 174.139C376.517 174.133 376.099 174.053 375.682 173.901C375.264 173.748 374.883 173.491 374.538 173.13C374.194 172.765 373.917 172.273 373.708 171.653C373.499 171.03 373.395 170.248 373.395 169.307C373.395 168.405 373.479 167.607 373.648 166.911C373.817 166.211 374.063 165.623 374.384 165.146C374.706 164.665 375.094 164.3 375.548 164.052C376.005 163.803 376.52 163.679 377.094 163.679C377.664 163.679 378.171 163.793 378.615 164.022C379.063 164.247 379.427 164.562 379.709 164.967C379.991 165.371 380.173 165.837 380.256 166.364H379.043C378.93 165.906 378.711 165.527 378.386 165.225C378.062 164.924 377.631 164.773 377.094 164.773C376.305 164.773 375.683 165.116 375.229 165.802C374.779 166.488 374.552 167.451 374.548 168.69H374.628C374.813 168.409 375.034 168.168 375.289 167.969C375.548 167.767 375.833 167.612 376.144 167.502C376.456 167.393 376.786 167.338 377.134 167.338C377.717 167.338 378.25 167.484 378.734 167.776C379.218 168.064 379.606 168.463 379.898 168.974C380.189 169.481 380.335 170.062 380.335 170.719C380.335 171.348 380.194 171.925 379.913 172.449C379.631 172.969 379.235 173.384 378.724 173.692C378.217 173.997 377.621 174.146 376.935 174.139ZM376.935 173.045C377.352 173.045 377.727 172.941 378.058 172.732C378.393 172.523 378.656 172.243 378.849 171.892C379.044 171.541 379.142 171.15 379.142 170.719C379.142 170.298 379.048 169.915 378.859 169.57C378.673 169.222 378.416 168.946 378.088 168.74C377.763 168.535 377.392 168.432 376.974 168.432C376.66 168.432 376.366 168.495 376.094 168.621C375.823 168.743 375.584 168.912 375.379 169.128C375.176 169.343 375.017 169.59 374.901 169.869C374.785 170.144 374.727 170.434 374.727 170.739C374.727 171.143 374.822 171.521 375.011 171.872C375.203 172.223 375.465 172.507 375.796 172.722C376.131 172.938 376.51 173.045 376.935 173.045Z" fill="black"></path> <rect width="60" height="60" transform="translate(2.5 210)" fill="white"></rect> <rect x="2.5" y="210" width="60" height="60" fill="white" stroke="#828282"></rect> <path d="M13.8722 234L18.4261 224.991V224.912H13.1761V223.818H19.6989V224.972L15.1648 234H13.8722Z" fill="black"></path> <rect width="60" height="60" transform="translate(62.5 210)" fill="white"></rect> <rect x="62.5" y="210" width="60" height="60" fill="white" stroke="#828282"></rect> <path d="M77.3324 234.139C76.5104 234.139 75.7763 234.012 75.13 233.756C74.487 233.501 73.9799 233.155 73.6087 232.717C73.2408 232.28 73.0568 231.786 73.0568 231.236C73.0568 230.815 73.1612 230.43 73.37 230.082C73.5821 229.734 73.8672 229.446 74.2251 229.217C74.5831 228.985 74.9825 228.836 75.4233 228.77V228.69C74.8433 228.591 74.366 228.334 73.9915 227.92C73.6203 227.502 73.4347 227.01 73.4347 226.443C73.4347 225.91 73.6037 225.436 73.9418 225.021C74.2798 224.604 74.7422 224.276 75.3288 224.037C75.9155 223.798 76.5833 223.679 77.3324 223.679C78.0814 223.679 78.7493 223.8 79.3359 224.042C79.9226 224.281 80.3849 224.609 80.723 225.026C81.0611 225.441 81.2301 225.913 81.2301 226.443C81.2301 227.013 81.0412 227.505 80.6634 227.92C80.2855 228.334 79.8116 228.591 79.2415 228.69V228.77C79.679 228.836 80.0767 228.985 80.4347 229.217C80.7926 229.446 81.0777 229.734 81.2898 230.082C81.5019 230.43 81.608 230.815 81.608 231.236C81.608 231.786 81.4223 232.28 81.0511 232.717C80.6832 233.155 80.1761 233.501 79.5298 233.756C78.8868 234.012 78.1544 234.139 77.3324 234.139ZM77.3324 232.23C77.5942 232.23 77.8262 232.177 78.0284 232.071C78.2306 231.965 78.3897 231.819 78.5057 231.634C78.625 231.445 78.6847 231.232 78.6847 230.997C78.6847 230.762 78.625 230.553 78.5057 230.371C78.3897 230.188 78.2306 230.046 78.0284 229.943C77.8262 229.837 77.5942 229.784 77.3324 229.784C77.0739 229.784 76.8419 229.837 76.6364 229.943C76.4342 230.046 76.2734 230.188 76.1541 230.371C76.0381 230.553 75.9801 230.762 75.9801 230.997C75.9801 231.232 76.0381 231.443 76.1541 231.629C76.2734 231.814 76.4342 231.962 76.6364 232.071C76.8419 232.177 77.0739 232.23 77.3324 232.23ZM77.3324 227.875C77.5644 227.875 77.7699 227.827 77.9489 227.731C78.1278 227.635 78.2687 227.502 78.3714 227.333C78.4742 227.164 78.5256 226.973 78.5256 226.761C78.5256 226.549 78.4742 226.362 78.3714 226.2C78.2687 226.034 78.1278 225.905 77.9489 225.812C77.7699 225.716 77.5644 225.668 77.3324 225.668C77.1037 225.668 76.8982 225.716 76.7159 225.812C76.5369 225.905 76.3961 226.034 76.2933 226.2C76.1906 226.362 76.1392 226.549 76.1392 226.761C76.1392 226.973 76.1906 227.164 76.2933 227.333C76.3961 227.499 76.5369 227.631 76.7159 227.731C76.8982 227.827 77.1037 227.875 77.3324 227.875ZM85.9047 232.608V225.25H88.1319V232.608H85.9047ZM83.3393 230.043V227.815H90.6973V230.043H83.3393Z" fill="#0A9F58"></path> <rect width="60" height="60" transform="translate(122.5 210)" fill="white"></rect> <rect x="122.5" y="210" width="60" height="60" fill="white" stroke="#828282"></rect> <path d="M136.795 223.679C137.213 223.682 137.631 223.762 138.048 223.918C138.466 224.073 138.847 224.332 139.192 224.693C139.536 225.051 139.813 225.54 140.022 226.16C140.231 226.78 140.335 227.557 140.335 228.491C140.335 229.396 140.249 230.2 140.077 230.903C139.908 231.602 139.662 232.192 139.341 232.673C139.023 233.153 138.635 233.518 138.178 233.766C137.723 234.015 137.21 234.139 136.636 234.139C136.066 234.139 135.558 234.027 135.11 233.801C134.666 233.572 134.301 233.256 134.016 232.852C133.735 232.444 133.554 231.972 133.474 231.435H134.688C134.797 231.902 135.014 232.288 135.339 232.593C135.667 232.895 136.099 233.045 136.636 233.045C137.422 233.045 138.042 232.702 138.496 232.016C138.953 231.33 139.182 230.361 139.182 229.108H139.102C138.917 229.386 138.696 229.627 138.441 229.829C138.186 230.031 137.902 230.187 137.591 230.296C137.279 230.406 136.948 230.46 136.597 230.46C136.013 230.46 135.478 230.316 134.991 230.028C134.507 229.736 134.119 229.337 133.827 228.83C133.539 228.319 133.395 227.736 133.395 227.08C133.395 226.456 133.534 225.886 133.812 225.369C134.094 224.849 134.489 224.435 134.996 224.126C135.506 223.818 136.106 223.669 136.795 223.679ZM136.795 224.773C136.378 224.773 136.002 224.877 135.667 225.086C135.335 225.291 135.072 225.57 134.876 225.921C134.684 226.269 134.588 226.655 134.588 227.08C134.588 227.504 134.681 227.89 134.866 228.238C135.055 228.583 135.312 228.858 135.637 229.063C135.965 229.265 136.338 229.366 136.756 229.366C137.071 229.366 137.364 229.305 137.636 229.183C137.907 229.057 138.144 228.886 138.347 228.67C138.552 228.452 138.713 228.205 138.829 227.93C138.945 227.651 139.003 227.361 139.003 227.06C139.003 226.662 138.907 226.289 138.714 225.941C138.526 225.593 138.264 225.311 137.929 225.096C137.598 224.88 137.22 224.773 136.795 224.773Z" fill="black"></path> <rect width="60" height="60" transform="translate(182.5 210)" fill="white"></rect> <rect x="182.5" y="210" width="60" height="60" fill="white" stroke="#828282"></rect> <path d="M198.168 223.818V234H195.403V226.364H195.344L193.116 227.696V225.349L195.622 223.818H198.168ZM204.693 234.278C203.768 234.275 202.969 234.061 202.297 233.637C201.624 233.213 201.105 232.601 200.74 231.803C200.376 231.004 200.195 230.046 200.199 228.929C200.202 227.809 200.384 226.857 200.745 226.075C201.11 225.293 201.627 224.698 202.297 224.29C202.969 223.883 203.768 223.679 204.693 223.679C205.618 223.679 206.416 223.884 207.089 224.295C207.762 224.703 208.281 225.298 208.645 226.08C209.01 226.862 209.19 227.812 209.187 228.929C209.187 230.053 209.005 231.014 208.64 231.812C208.276 232.611 207.757 233.223 207.084 233.647C206.415 234.068 205.618 234.278 204.693 234.278ZM204.693 232.031C205.17 232.031 205.561 231.783 205.866 231.286C206.174 230.785 206.327 230 206.324 228.929C206.324 228.23 206.254 227.658 206.115 227.214C205.975 226.77 205.783 226.442 205.538 226.229C205.293 226.014 205.011 225.906 204.693 225.906C204.216 225.906 203.826 226.148 203.525 226.632C203.223 227.116 203.069 227.882 203.062 228.929C203.059 229.642 203.127 230.228 203.266 230.689C203.405 231.146 203.597 231.484 203.843 231.703C204.091 231.922 204.375 232.031 204.693 232.031ZM213.547 232.608V225.25H215.775V232.608H213.547ZM210.982 230.043V227.815H218.34V230.043H210.982Z" fill="#0A9F58"></path> <rect width="60" height="60" transform="translate(242.5 210)" fill="white"></rect> <rect x="242.5" y="210" width="60" height="60" fill="white" stroke="#828282"></rect> <path d="M257.134 223.818V234H255.901V225.111H255.841L253.355 226.761V225.509L255.901 223.818H257.134ZM263.641 223.818V234H262.408V225.111H262.349L259.863 226.761V225.509L262.408 223.818H263.641Z" fill="black"></path> <rect width="60" height="60" transform="translate(302.5 210)" fill="white"></rect> <rect x="302.5" y="210" width="60" height="60" fill="white" stroke="#828282"></rect> <path d="M318.168 223.818V234H315.403V226.364H315.344L313.116 227.696V225.349L315.622 223.818H318.168ZM320.258 234V232.011L324.056 228.869C324.308 228.661 324.524 228.465 324.703 228.283C324.885 228.097 325.024 227.906 325.12 227.711C325.22 227.515 325.27 227.298 325.27 227.06C325.27 226.798 325.213 226.574 325.1 226.388C324.991 226.203 324.839 226.06 324.643 225.961C324.448 225.858 324.222 225.807 323.967 225.807C323.712 225.807 323.486 225.858 323.291 225.961C323.099 226.064 322.949 226.214 322.843 226.413C322.737 226.612 322.684 226.854 322.684 227.139H320.059C320.059 226.423 320.22 225.807 320.542 225.29C320.863 224.773 321.317 224.375 321.904 224.097C322.49 223.818 323.178 223.679 323.967 223.679C324.782 223.679 325.488 223.81 326.085 224.072C326.685 224.33 327.147 224.695 327.472 225.165C327.8 225.636 327.964 226.188 327.964 226.821C327.964 227.212 327.883 227.602 327.721 227.989C327.558 228.374 327.266 228.8 326.846 229.267C326.425 229.734 325.826 230.291 325.051 230.938L324.096 231.733V231.793H328.074V234H320.258ZM332.371 232.608V225.25H334.599V232.608H332.371ZM329.806 230.043V227.815H337.164V230.043H329.806Z" fill="#0A9F58"></path> <rect width="60" height="60" transform="translate(362.5 210)" fill="white"></rect> <rect x="362.5" y="210" width="60" height="60" fill="white" stroke="#828282"></rect> <path d="M377.134 223.818V234H375.901V225.111H375.841L373.355 226.761V225.509L375.901 223.818H377.134ZM383.502 234.139C382.846 234.139 382.261 234.027 381.747 233.801C381.237 233.576 380.831 233.263 380.529 232.862C380.231 232.457 380.068 231.988 380.042 231.455H381.295C381.321 231.783 381.434 232.066 381.633 232.305C381.832 232.54 382.092 232.722 382.413 232.852C382.735 232.981 383.091 233.045 383.482 233.045C383.92 233.045 384.308 232.969 384.646 232.817C384.984 232.664 385.249 232.452 385.441 232.18C385.633 231.909 385.729 231.594 385.729 231.236C385.729 230.861 385.637 230.531 385.451 230.246C385.265 229.958 384.994 229.733 384.636 229.57C384.278 229.408 383.84 229.327 383.323 229.327H382.508V228.233H383.323C383.728 228.233 384.082 228.16 384.387 228.014C384.695 227.868 384.936 227.663 385.108 227.398C385.284 227.133 385.371 226.821 385.371 226.463C385.371 226.118 385.295 225.818 385.143 225.563C384.99 225.308 384.775 225.109 384.496 224.967C384.221 224.824 383.897 224.753 383.522 224.753C383.171 224.753 382.839 224.817 382.528 224.947C382.219 225.073 381.968 225.257 381.772 225.499C381.576 225.737 381.47 226.026 381.454 226.364H380.261C380.281 225.83 380.441 225.363 380.743 224.962C381.045 224.557 381.439 224.242 381.926 224.017C382.417 223.792 382.955 223.679 383.542 223.679C384.172 223.679 384.712 223.807 385.163 224.062C385.613 224.314 385.96 224.647 386.202 225.061C386.444 225.475 386.565 225.923 386.565 226.403C386.565 226.977 386.414 227.466 386.112 227.87C385.814 228.274 385.408 228.554 384.894 228.71V228.79C385.537 228.896 386.039 229.169 386.401 229.61C386.762 230.048 386.942 230.589 386.942 231.236C386.942 231.789 386.792 232.286 386.49 232.727C386.192 233.165 385.784 233.509 385.267 233.761C384.75 234.013 384.162 234.139 383.502 234.139Z" fill="black"></path> <rect width="60" height="60" transform="translate(2.5 270)" fill="white"></rect> <rect x="2.5" y="270" width="60" height="60" fill="white" stroke="#828282"></rect> <path d="M18.1676 283.818V294H15.4034V286.364H15.3438L13.1165 287.696V285.349L15.6222 283.818H18.1676ZM20.1587 292.409V290.261L24.2553 283.818H26.2042V286.682H25.0906L22.8832 290.182V290.261H28.9286V292.409H20.1587ZM25.1104 294V291.753L25.1701 290.818V283.818H27.7553V294H25.1104ZM33.1507 292.608V285.25H35.378V292.608H33.1507ZM30.5854 290.043V287.815H37.9434V290.043H30.5854Z" fill="#0A9F58"></path> <rect width="60" height="60" transform="translate(62.5 270)" fill="white"></rect> <rect x="62.5" y="270" width="60" height="60" fill="white" stroke="#828282"></rect> <path d="M77.1335 283.818V294H75.9006V285.111H75.8409L73.3551 286.761V285.509L75.9006 283.818H77.1335ZM83.2436 294.139C82.6603 294.139 82.1349 294.023 81.6676 293.791C81.2003 293.559 80.8258 293.241 80.544 292.837C80.2623 292.432 80.1082 291.972 80.0817 291.455H81.2749C81.3213 291.915 81.5301 292.296 81.9013 292.598C82.2758 292.896 82.7232 293.045 83.2436 293.045C83.6612 293.045 84.0324 292.948 84.3572 292.752C84.6854 292.557 84.9422 292.288 85.1278 291.947C85.3168 291.602 85.4112 291.213 85.4112 290.778C85.4112 290.334 85.3134 289.938 85.1179 289.59C84.9257 289.239 84.6605 288.962 84.3224 288.76C83.9844 288.558 83.5982 288.455 83.1641 288.452C82.8525 288.448 82.5327 288.496 82.2045 288.596C81.8764 288.692 81.6063 288.816 81.3942 288.969L80.2408 288.83L80.8572 283.818H86.147V284.912H81.8913L81.5334 287.915H81.593C81.8018 287.749 82.0637 287.612 82.3786 287.502C82.6934 287.393 83.0215 287.338 83.3629 287.338C83.986 287.338 84.5412 287.487 85.0284 287.786C85.5189 288.08 85.9034 288.485 86.1818 288.999C86.4635 289.512 86.6044 290.099 86.6044 290.759C86.6044 291.408 86.4586 291.988 86.1669 292.499C85.8786 293.006 85.4808 293.407 84.9737 293.702C84.4666 293.993 83.8899 294.139 83.2436 294.139Z" fill="black"></path> <rect width="60" height="60" transform="translate(122.5 270)" fill="white"></rect> <rect x="122.5" y="270" width="60" height="60" fill="white" stroke="#828282"></rect> <path d="M137.134 283.818V294H135.901V285.111H135.841L133.355 286.761V285.509L135.901 283.818H137.134ZM143.442 294.139C143.025 294.133 142.607 294.053 142.19 293.901C141.772 293.748 141.391 293.491 141.046 293.13C140.701 292.765 140.425 292.273 140.216 291.653C140.007 291.03 139.903 290.248 139.903 289.307C139.903 288.405 139.987 287.607 140.156 286.911C140.325 286.211 140.571 285.623 140.892 285.146C141.214 284.665 141.601 284.3 142.055 284.052C142.513 283.803 143.028 283.679 143.602 283.679C144.172 283.679 144.679 283.793 145.123 284.022C145.57 284.247 145.935 284.562 146.217 284.967C146.498 285.371 146.681 285.837 146.763 286.364H145.55C145.438 285.906 145.219 285.527 144.894 285.225C144.569 284.924 144.138 284.773 143.602 284.773C142.813 284.773 142.191 285.116 141.737 285.802C141.286 286.488 141.059 287.451 141.056 288.69H141.136C141.321 288.409 141.542 288.168 141.797 287.969C142.055 287.767 142.34 287.612 142.652 287.502C142.964 287.393 143.293 287.338 143.641 287.338C144.225 287.338 144.758 287.484 145.242 287.776C145.726 288.064 146.114 288.463 146.406 288.974C146.697 289.481 146.843 290.062 146.843 290.719C146.843 291.348 146.702 291.925 146.42 292.449C146.139 292.969 145.743 293.384 145.232 293.692C144.725 293.997 144.129 294.146 143.442 294.139ZM143.442 293.045C143.86 293.045 144.235 292.941 144.566 292.732C144.901 292.523 145.164 292.243 145.357 291.892C145.552 291.541 145.65 291.15 145.65 290.719C145.65 290.298 145.555 289.915 145.366 289.57C145.181 289.222 144.924 288.946 144.596 288.74C144.271 288.535 143.9 288.432 143.482 288.432C143.167 288.432 142.874 288.495 142.602 288.621C142.33 288.743 142.092 288.912 141.886 289.128C141.684 289.343 141.525 289.59 141.409 289.869C141.293 290.144 141.235 290.434 141.235 290.739C141.235 291.143 141.33 291.521 141.518 291.872C141.711 292.223 141.973 292.507 142.304 292.722C142.639 292.938 143.018 293.045 143.442 293.045Z" fill="black"></path> <rect width="60" height="60" transform="translate(182.5 270)" fill="white"></rect> <rect x="182.5" y="270" width="60" height="60" fill="white" stroke="#828282"></rect> <path d="M198.168 283.818V294H195.403V286.364H195.344L193.116 287.696V285.349L195.622 283.818H198.168ZM200.716 294L204.713 286.085V286.026H200.02V283.818H207.576V286.026L203.559 294H200.716ZM211.866 292.608V285.25H214.093V292.608H211.866ZM209.3 290.043V287.815H216.658V290.043H209.3Z" fill="#0A9F58"></path> <rect width="60" height="60" transform="translate(242.5 270)" fill="white"></rect> <rect x="242.5" y="270" width="60" height="60" fill="white" stroke="#828282"></rect> <path d="M258.168 283.818V294H255.403V286.364H255.344L253.116 287.696V285.349L255.622 283.818H258.168ZM264.414 294.139C263.592 294.139 262.858 294.012 262.212 293.756C261.569 293.501 261.062 293.155 260.691 292.717C260.323 292.28 260.139 291.786 260.139 291.236C260.139 290.815 260.243 290.43 260.452 290.082C260.664 289.734 260.949 289.446 261.307 289.217C261.665 288.985 262.065 288.836 262.505 288.77V288.69C261.925 288.591 261.448 288.334 261.074 287.92C260.702 287.502 260.517 287.01 260.517 286.443C260.517 285.91 260.686 285.436 261.024 285.021C261.362 284.604 261.824 284.276 262.411 284.037C262.998 283.798 263.665 283.679 264.414 283.679C265.163 283.679 265.831 283.8 266.418 284.042C267.005 284.281 267.467 284.609 267.805 285.026C268.143 285.441 268.312 285.913 268.312 286.443C268.312 287.013 268.123 287.505 267.745 287.92C267.368 288.334 266.894 288.591 266.324 288.69V288.77C266.761 288.836 267.159 288.985 267.517 289.217C267.875 289.446 268.16 289.734 268.372 290.082C268.584 290.43 268.69 290.815 268.69 291.236C268.69 291.786 268.504 292.28 268.133 292.717C267.765 293.155 267.258 293.501 266.612 293.756C265.969 294.012 265.236 294.139 264.414 294.139ZM264.414 292.23C264.676 292.23 264.908 292.177 265.11 292.071C265.313 291.965 265.472 291.819 265.588 291.634C265.707 291.445 265.767 291.232 265.767 290.997C265.767 290.762 265.707 290.553 265.588 290.371C265.472 290.188 265.313 290.046 265.11 289.943C264.908 289.837 264.676 289.784 264.414 289.784C264.156 289.784 263.924 289.837 263.718 289.943C263.516 290.046 263.355 290.188 263.236 290.371C263.12 290.553 263.062 290.762 263.062 290.997C263.062 291.232 263.12 291.443 263.236 291.629C263.355 291.814 263.516 291.962 263.718 292.071C263.924 292.177 264.156 292.23 264.414 292.23ZM264.414 287.875C264.646 287.875 264.852 287.827 265.031 287.731C265.21 287.635 265.351 287.502 265.453 287.333C265.556 287.164 265.608 286.973 265.608 286.761C265.608 286.549 265.556 286.362 265.453 286.2C265.351 286.034 265.21 285.905 265.031 285.812C264.852 285.716 264.646 285.668 264.414 285.668C264.186 285.668 263.98 285.716 263.798 285.812C263.619 285.905 263.478 286.034 263.375 286.2C263.273 286.362 263.221 286.549 263.221 286.761C263.221 286.973 263.273 287.164 263.375 287.333C263.478 287.499 263.619 287.631 263.798 287.731C263.98 287.827 264.186 287.875 264.414 287.875ZM272.987 292.608V285.25H275.214V292.608H272.987ZM270.421 290.043V287.815H277.779V290.043H270.421Z" fill="#0A9F58"></path> <rect width="60" height="60" transform="translate(302.5 270)" fill="white"></rect> <rect x="302.5" y="270" width="60" height="60" fill="white" stroke="#828282"></rect> <path d="M318.168 283.818V294H315.403V286.364H315.344L313.116 287.696V285.349L315.622 283.818H318.168ZM324.235 283.679C324.829 283.679 325.391 283.773 325.921 283.962C326.451 284.148 326.92 284.441 327.328 284.842C327.739 285.243 328.06 285.767 328.292 286.413C328.528 287.056 328.647 287.835 328.65 288.75C328.654 289.585 328.549 290.336 328.337 291.002C328.128 291.665 327.828 292.23 327.437 292.697C327.049 293.165 326.582 293.523 326.035 293.771C325.492 294.017 324.885 294.139 324.216 294.139C323.463 294.139 322.802 293.995 322.232 293.707C321.662 293.418 321.208 293.031 320.87 292.543C320.532 292.056 320.334 291.514 320.278 290.918H323.002C323.069 291.226 323.215 291.45 323.44 291.589C323.665 291.725 323.924 291.793 324.216 291.793C324.799 291.793 325.225 291.541 325.493 291.037C325.765 290.53 325.903 289.854 325.906 289.009H325.846C325.717 289.32 325.521 289.587 325.26 289.809C324.998 290.031 324.693 290.202 324.345 290.321C323.997 290.44 323.629 290.5 323.241 290.5C322.628 290.5 322.091 290.362 321.63 290.087C321.17 289.809 320.81 289.429 320.551 288.949C320.293 288.465 320.162 287.915 320.159 287.298C320.155 286.576 320.326 285.943 320.671 285.399C321.016 284.856 321.494 284.433 322.108 284.131C322.721 283.83 323.43 283.679 324.235 283.679ZM324.255 285.767C323.98 285.767 323.735 285.83 323.52 285.956C323.307 286.082 323.14 286.253 323.017 286.468C322.898 286.683 322.84 286.927 322.843 287.199C322.847 287.471 322.908 287.714 323.027 287.93C323.15 288.145 323.316 288.316 323.525 288.442C323.737 288.568 323.98 288.631 324.255 288.631C324.458 288.631 324.645 288.596 324.817 288.526C324.989 288.453 325.139 288.352 325.265 288.223C325.394 288.09 325.493 287.938 325.563 287.766C325.636 287.59 325.671 287.401 325.667 287.199C325.664 286.927 325.601 286.683 325.478 286.468C325.356 286.253 325.188 286.082 324.976 285.956C324.764 285.83 324.524 285.767 324.255 285.767ZM332.905 292.608V285.25H335.132V292.608H332.905ZM330.339 290.043V287.815H337.697V290.043H330.339Z" fill="#0A9F58"></path> <rect width="60" height="60" transform="translate(362.5 270)" fill="white"></rect> <rect x="362.5" y="270" width="60" height="60" fill="white" stroke="#828282"></rect> <path d="M373.554 294V293.105L376.915 289.426C377.309 288.995 377.634 288.621 377.889 288.303C378.144 287.981 378.333 287.679 378.456 287.398C378.582 287.113 378.645 286.814 378.645 286.503C378.645 286.145 378.559 285.835 378.386 285.573C378.217 285.311 377.985 285.109 377.69 284.967C377.395 284.824 377.064 284.753 376.696 284.753C376.305 284.753 375.964 284.834 375.672 284.996C375.384 285.156 375.16 285.379 375.001 285.668C374.845 285.956 374.767 286.294 374.767 286.682H373.594C373.594 286.085 373.731 285.562 374.006 285.111C374.281 284.66 374.656 284.309 375.13 284.057C375.607 283.805 376.143 283.679 376.736 283.679C377.332 283.679 377.861 283.805 378.322 284.057C378.782 284.309 379.144 284.648 379.406 285.076C379.667 285.504 379.798 285.979 379.798 286.503C379.798 286.877 379.73 287.244 379.594 287.602C379.462 287.956 379.23 288.352 378.898 288.79C378.57 289.224 378.115 289.754 377.531 290.381L375.244 292.827V292.906H379.977V294H373.554ZM385.352 294.139C384.603 294.139 383.964 293.935 383.438 293.528C382.911 293.117 382.508 292.522 382.229 291.743C381.951 290.961 381.812 290.016 381.812 288.909C381.812 287.809 381.951 286.869 382.229 286.09C382.511 285.308 382.915 284.711 383.442 284.3C383.973 283.886 384.609 283.679 385.352 283.679C386.094 283.679 386.729 283.886 387.256 284.3C387.786 284.711 388.19 285.308 388.469 286.09C388.75 286.869 388.891 287.809 388.891 288.909C388.891 290.016 388.752 290.961 388.474 291.743C388.195 292.522 387.793 293.117 387.266 293.528C386.739 293.935 386.101 294.139 385.352 294.139ZM385.352 293.045C386.094 293.045 386.671 292.687 387.082 291.972C387.493 291.256 387.698 290.235 387.698 288.909C387.698 288.027 387.604 287.277 387.415 286.657C387.229 286.037 386.961 285.565 386.609 285.24C386.261 284.915 385.842 284.753 385.352 284.753C384.616 284.753 384.041 285.116 383.626 285.842C383.212 286.564 383.005 287.587 383.005 288.909C383.005 289.791 383.098 290.54 383.283 291.156C383.469 291.773 383.736 292.242 384.084 292.563C384.435 292.885 384.858 293.045 385.352 293.045Z" fill="black"></path> <rect width="60" height="60" transform="translate(2.5 330)" fill="white"></rect> <rect x="2.5" y="330" width="60" height="60" fill="white" stroke="#828282"></rect> <path d="M13.554 354V353.105L16.9148 349.426C17.3092 348.995 17.634 348.621 17.8892 348.303C18.1444 347.981 18.3333 347.679 18.456 347.398C18.5819 347.113 18.6449 346.814 18.6449 346.503C18.6449 346.145 18.5587 345.835 18.3864 345.573C18.2173 345.311 17.9853 345.109 17.6903 344.967C17.3954 344.824 17.0639 344.753 16.696 344.753C16.3049 344.753 15.9635 344.834 15.6719 344.996C15.3835 345.156 15.1598 345.379 15.0007 345.668C14.8449 345.956 14.767 346.294 14.767 346.682H13.5938C13.5938 346.085 13.7313 345.562 14.0064 345.111C14.2815 344.66 14.656 344.309 15.13 344.057C15.6072 343.805 16.1425 343.679 16.7358 343.679C17.3324 343.679 17.861 343.805 18.3217 344.057C18.7824 344.309 19.1437 344.648 19.4055 345.076C19.6674 345.504 19.7983 345.979 19.7983 346.503C19.7983 346.877 19.7304 347.244 19.5945 347.602C19.4619 347.956 19.2299 348.352 18.8984 348.79C18.5703 349.224 18.1146 349.754 17.5312 350.381L15.2443 352.827V352.906H19.9773V354H13.554ZM25.6101 343.818V354H24.3771V345.111H24.3175L21.8317 346.761V345.509L24.3771 343.818H25.6101Z" fill="black"></path> <rect width="60" height="60" transform="translate(62.5 330)" fill="white"></rect> <rect x="62.5" y="330" width="60" height="60" fill="white" stroke="#828282"></rect> <path d="M73.554 354V353.105L76.9148 349.426C77.3092 348.995 77.634 348.621 77.8892 348.303C78.1444 347.981 78.3333 347.679 78.456 347.398C78.5819 347.113 78.6449 346.814 78.6449 346.503C78.6449 346.145 78.5587 345.835 78.3864 345.573C78.2173 345.311 77.9853 345.109 77.6903 344.967C77.3954 344.824 77.0639 344.753 76.696 344.753C76.3049 344.753 75.9635 344.834 75.6719 344.996C75.3835 345.156 75.1598 345.379 75.0007 345.668C74.8449 345.956 74.767 346.294 74.767 346.682H73.5938C73.5938 346.085 73.7313 345.562 74.0064 345.111C74.2815 344.66 74.656 344.309 75.13 344.057C75.6072 343.805 76.1425 343.679 76.7358 343.679C77.3324 343.679 77.861 343.805 78.3217 344.057C78.7824 344.309 79.1437 344.648 79.4055 345.076C79.6674 345.504 79.7983 345.979 79.7983 346.503C79.7983 346.877 79.7304 347.244 79.5945 347.602C79.4619 347.956 79.2299 348.352 78.8984 348.79C78.5703 349.224 78.1146 349.754 77.5312 350.381L75.2443 352.827V352.906H79.9773V354H73.554ZM82.0305 354V353.105L85.3913 349.426C85.7857 348.995 86.1106 348.621 86.3658 348.303C86.621 347.981 86.8099 347.679 86.9325 347.398C87.0585 347.113 87.1214 346.814 87.1214 346.503C87.1214 346.145 87.0353 345.835 86.8629 345.573C86.6939 345.311 86.4619 345.109 86.1669 344.967C85.8719 344.824 85.5405 344.753 85.1726 344.753C84.7815 344.753 84.4401 344.834 84.1484 344.996C83.8601 345.156 83.6364 345.379 83.4773 345.668C83.3215 345.956 83.2436 346.294 83.2436 346.682H82.0703C82.0703 346.085 82.2079 345.562 82.483 345.111C82.758 344.66 83.1326 344.309 83.6065 344.057C84.0838 343.805 84.6191 343.679 85.2124 343.679C85.8089 343.679 86.3376 343.805 86.7983 344.057C87.259 344.309 87.6203 344.648 87.8821 345.076C88.1439 345.504 88.2749 345.979 88.2749 346.503C88.2749 346.877 88.2069 347.244 88.071 347.602C87.9384 347.956 87.7064 348.352 87.375 348.79C87.0469 349.224 86.5911 349.754 86.0078 350.381L83.7209 352.827V352.906H88.4538V354H82.0305Z" fill="black"></path> <rect width="60" height="60" transform="translate(122.5 330)" fill="white"></rect> <rect x="122.5" y="330" width="60" height="60" fill="white" stroke="#828282"></rect> <path d="M133.176 354V352.011L136.974 348.869C137.226 348.661 137.442 348.465 137.621 348.283C137.803 348.097 137.942 347.906 138.038 347.711C138.138 347.515 138.188 347.298 138.188 347.06C138.188 346.798 138.131 346.574 138.018 346.388C137.909 346.203 137.757 346.06 137.561 345.961C137.366 345.858 137.14 345.807 136.885 345.807C136.63 345.807 136.404 345.858 136.209 345.961C136.017 346.064 135.867 346.214 135.761 346.413C135.655 346.612 135.602 346.854 135.602 347.139H132.977C132.977 346.423 133.138 345.807 133.46 345.29C133.781 344.773 134.235 344.375 134.822 344.097C135.408 343.818 136.096 343.679 136.885 343.679C137.7 343.679 138.406 343.81 139.003 344.072C139.603 344.33 140.065 344.695 140.39 345.165C140.718 345.636 140.882 346.188 140.882 346.821C140.882 347.212 140.801 347.602 140.638 347.989C140.476 348.374 140.184 348.8 139.763 349.267C139.343 349.734 138.744 350.291 137.969 350.938L137.014 351.733V351.793H140.991V354H133.176ZM146.204 354.139C145.402 354.139 144.69 354.002 144.066 353.727C143.447 353.448 142.959 353.065 142.605 352.578C142.25 352.091 142.071 351.531 142.068 350.898H144.852C144.855 351.093 144.915 351.269 145.031 351.425C145.15 351.577 145.313 351.696 145.518 351.783C145.724 351.869 145.959 351.912 146.224 351.912C146.479 351.912 146.705 351.867 146.9 351.778C147.096 351.685 147.248 351.557 147.358 351.395C147.467 351.232 147.52 351.047 147.517 350.838C147.52 350.633 147.457 350.45 147.328 350.291C147.202 350.132 147.025 350.008 146.796 349.918C146.567 349.829 146.304 349.784 146.005 349.784H144.971V347.875H146.005C146.28 347.875 146.522 347.83 146.731 347.741C146.943 347.651 147.107 347.527 147.223 347.368C147.343 347.209 147.401 347.027 147.397 346.821C147.401 346.622 147.353 346.446 147.253 346.294C147.154 346.142 147.015 346.022 146.836 345.936C146.66 345.85 146.456 345.807 146.224 345.807C145.972 345.807 145.747 345.852 145.548 345.941C145.352 346.031 145.198 346.155 145.086 346.314C144.973 346.473 144.915 346.655 144.912 346.861H142.267C142.27 346.238 142.441 345.687 142.779 345.21C143.12 344.733 143.587 344.358 144.181 344.087C144.774 343.815 145.455 343.679 146.224 343.679C146.976 343.679 147.641 343.807 148.218 344.062C148.798 344.317 149.25 344.668 149.575 345.116C149.903 345.56 150.065 346.069 150.062 346.642C150.069 347.212 149.873 347.679 149.475 348.044C149.081 348.409 148.581 348.624 147.974 348.69V348.77C148.796 348.859 149.414 349.111 149.828 349.526C150.243 349.937 150.447 350.454 150.44 351.077C150.443 351.673 150.264 352.202 149.903 352.663C149.545 353.123 149.046 353.485 148.407 353.746C147.77 354.008 147.036 354.139 146.204 354.139ZM154.737 352.608V345.25H156.964V352.608H154.737ZM152.171 350.043V347.815H159.529V350.043H152.171Z" fill="#0A9F58"></path> <rect width="60" height="60" transform="translate(182.5 330)" fill="white"></rect> <rect x="182.5" y="330" width="60" height="60" fill="white" stroke="#828282"></rect> <path d="M193.176 354V352.011L196.974 348.869C197.226 348.661 197.442 348.465 197.621 348.283C197.803 348.097 197.942 347.906 198.038 347.711C198.138 347.515 198.188 347.298 198.188 347.06C198.188 346.798 198.131 346.574 198.018 346.388C197.909 346.203 197.757 346.06 197.561 345.961C197.366 345.858 197.14 345.807 196.885 345.807C196.63 345.807 196.404 345.858 196.209 345.961C196.017 346.064 195.867 346.214 195.761 346.413C195.655 346.612 195.602 346.854 195.602 347.139H192.977C192.977 346.423 193.138 345.807 193.46 345.29C193.781 344.773 194.235 344.375 194.822 344.097C195.408 343.818 196.096 343.679 196.885 343.679C197.7 343.679 198.406 343.81 199.003 344.072C199.603 344.33 200.065 344.695 200.39 345.165C200.718 345.636 200.882 346.188 200.882 346.821C200.882 347.212 200.801 347.602 200.638 347.989C200.476 348.374 200.184 348.8 199.763 349.267C199.343 349.734 198.744 350.291 197.969 350.938L197.014 351.733V351.793H200.991V354H193.176ZM201.909 352.409V350.261L206.005 343.818H207.954V346.682H206.841L204.633 350.182V350.261H210.679V352.409H201.909ZM206.86 354V351.753L206.92 350.818V343.818H209.505V354H206.86ZM214.901 352.608V345.25H217.128V352.608H214.901ZM212.335 350.043V347.815H219.693V350.043H212.335Z" fill="#0A9F58"></path> <rect width="60" height="60" transform="translate(242.5 330)" fill="white"></rect> <rect x="242.5" y="330" width="60" height="60" fill="white" stroke="#828282"></rect> <path d="M253.176 354V352.011L256.974 348.869C257.226 348.661 257.442 348.465 257.621 348.283C257.803 348.097 257.942 347.906 258.038 347.711C258.138 347.515 258.188 347.298 258.188 347.06C258.188 346.798 258.131 346.574 258.018 346.388C257.909 346.203 257.757 346.06 257.561 345.961C257.366 345.858 257.14 345.807 256.885 345.807C256.63 345.807 256.404 345.858 256.209 345.961C256.017 346.064 255.867 346.214 255.761 346.413C255.655 346.612 255.602 346.854 255.602 347.139H252.977C252.977 346.423 253.138 345.807 253.46 345.29C253.781 344.773 254.235 344.375 254.822 344.097C255.408 343.818 256.096 343.679 256.885 343.679C257.7 343.679 258.406 343.81 259.003 344.072C259.603 344.33 260.065 344.695 260.39 345.165C260.718 345.636 260.882 346.188 260.882 346.821C260.882 347.212 260.801 347.602 260.638 347.989C260.476 348.374 260.184 348.8 259.763 349.267C259.343 349.734 258.744 350.291 257.969 350.938L257.014 351.733V351.793H260.991V354H253.176ZM266.304 354.139C265.521 354.139 264.827 354.002 264.221 353.727C263.617 353.448 263.142 353.065 262.794 352.578C262.449 352.091 262.273 351.531 262.267 350.898H264.951C264.961 351.249 265.097 351.529 265.359 351.738C265.624 351.947 265.939 352.051 266.304 352.051C266.585 352.051 266.834 351.991 267.049 351.872C267.265 351.75 267.434 351.577 267.556 351.355C267.679 351.133 267.739 350.875 267.735 350.58C267.739 350.281 267.679 350.023 267.556 349.804C267.434 349.582 267.265 349.411 267.049 349.292C266.834 349.169 266.585 349.108 266.304 349.108C266.012 349.108 265.742 349.179 265.493 349.322C265.248 349.461 265.067 349.655 264.951 349.903L262.525 349.426L262.923 343.818H269.764V346.026H265.19L264.991 348.273H265.051C265.21 347.964 265.485 347.709 265.876 347.507C266.267 347.302 266.721 347.199 267.238 347.199C267.845 347.199 268.385 347.34 268.859 347.621C269.336 347.903 269.712 348.293 269.988 348.79C270.266 349.284 270.404 349.854 270.4 350.5C270.404 351.209 270.234 351.839 269.893 352.389C269.555 352.936 269.079 353.365 268.466 353.677C267.853 353.985 267.132 354.139 266.304 354.139ZM274.655 352.608V345.25H276.882V352.608H274.655ZM272.089 350.043V347.815H279.447V350.043H272.089Z" fill="#0A9F58"></path> <rect width="60" height="60" transform="translate(302.5 330)" fill="white"></rect> <rect x="302.5" y="330" width="60" height="60" fill="white" stroke="#828282"></rect> <path d="M313.176 354V352.011L316.974 348.869C317.226 348.661 317.442 348.465 317.621 348.283C317.803 348.097 317.942 347.906 318.038 347.711C318.138 347.515 318.188 347.298 318.188 347.06C318.188 346.798 318.131 346.574 318.018 346.388C317.909 346.203 317.757 346.06 317.561 345.961C317.366 345.858 317.14 345.807 316.885 345.807C316.63 345.807 316.404 345.858 316.209 345.961C316.017 346.064 315.867 346.214 315.761 346.413C315.655 346.612 315.602 346.854 315.602 347.139H312.977C312.977 346.423 313.138 345.807 313.46 345.29C313.781 344.773 314.235 344.375 314.822 344.097C315.408 343.818 316.096 343.679 316.885 343.679C317.7 343.679 318.406 343.81 319.003 344.072C319.603 344.33 320.065 344.695 320.39 345.165C320.718 345.636 320.882 346.188 320.882 346.821C320.882 347.212 320.801 347.602 320.638 347.989C320.476 348.374 320.184 348.8 319.763 349.267C319.343 349.734 318.744 350.291 317.969 350.938L317.014 351.733V351.793H320.991V354H313.176ZM326.483 354.139C325.889 354.139 325.326 354.046 324.792 353.861C324.262 353.672 323.791 353.375 323.38 352.971C322.969 352.567 322.646 352.04 322.411 351.39C322.179 350.74 322.065 349.953 322.068 349.028C322.071 348.203 322.177 347.461 322.386 346.801C322.598 346.142 322.898 345.58 323.286 345.116C323.677 344.652 324.144 344.297 324.688 344.052C325.231 343.803 325.836 343.679 326.502 343.679C327.252 343.679 327.911 343.823 328.481 344.112C329.051 344.4 329.505 344.786 329.843 345.27C330.185 345.75 330.384 346.281 330.44 346.861H327.716C327.653 346.572 327.507 346.362 327.278 346.229C327.053 346.094 326.794 346.026 326.502 346.026C325.922 346.026 325.497 346.277 325.225 346.781C324.956 347.285 324.819 347.948 324.812 348.77H324.872C325.001 348.458 325.197 348.192 325.458 347.969C325.72 347.747 326.025 347.577 326.373 347.457C326.721 347.338 327.089 347.278 327.477 347.278C328.093 347.278 328.632 347.418 329.093 347.696C329.557 347.974 329.918 348.356 330.176 348.839C330.435 349.323 330.563 349.877 330.559 350.5C330.563 351.229 330.39 351.867 330.042 352.414C329.698 352.961 329.219 353.385 328.605 353.687C327.992 353.988 327.285 354.139 326.483 354.139ZM326.463 352.051C326.738 352.051 326.981 351.988 327.194 351.862C327.409 351.736 327.576 351.564 327.696 351.345C327.818 351.126 327.878 350.878 327.875 350.599C327.878 350.318 327.818 350.069 327.696 349.854C327.576 349.635 327.409 349.463 327.194 349.337C326.981 349.211 326.738 349.148 326.463 349.148C326.261 349.148 326.073 349.184 325.901 349.257C325.732 349.327 325.584 349.428 325.458 349.56C325.333 349.69 325.233 349.844 325.16 350.023C325.091 350.198 325.054 350.391 325.051 350.599C325.054 350.878 325.117 351.126 325.24 351.345C325.362 351.564 325.53 351.736 325.742 351.862C325.954 351.988 326.194 352.051 326.463 352.051ZM334.873 352.608V345.25H337.101V352.608H334.873ZM332.308 350.043V347.815H339.666V350.043H332.308Z" fill="#0A9F58"></path> <rect width="60" height="60" transform="translate(362.5 330)" fill="white"></rect> <rect x="362.5" y="330" width="60" height="60" fill="white" stroke="#828282"></rect> <path d="M373.554 354V353.105L376.915 349.426C377.309 348.995 377.634 348.621 377.889 348.303C378.144 347.981 378.333 347.679 378.456 347.398C378.582 347.113 378.645 346.814 378.645 346.503C378.645 346.145 378.559 345.835 378.386 345.573C378.217 345.311 377.985 345.109 377.69 344.967C377.395 344.824 377.064 344.753 376.696 344.753C376.305 344.753 375.964 344.834 375.672 344.996C375.384 345.156 375.16 345.379 375.001 345.668C374.845 345.956 374.767 346.294 374.767 346.682H373.594C373.594 346.085 373.731 345.562 374.006 345.111C374.281 344.66 374.656 344.309 375.13 344.057C375.607 343.805 376.143 343.679 376.736 343.679C377.332 343.679 377.861 343.805 378.322 344.057C378.782 344.309 379.144 344.648 379.406 345.076C379.667 345.504 379.798 345.979 379.798 346.503C379.798 346.877 379.73 347.244 379.594 347.602C379.462 347.956 379.23 348.352 378.898 348.79C378.57 349.224 378.115 349.754 377.531 350.381L375.244 352.827V352.906H379.977V354H373.554ZM382.349 354L386.903 344.991V344.912H381.653V343.818H388.175V344.972L383.641 354H382.349Z" fill="black"></path> <rect width="60" height="60" transform="translate(2.5 390)" fill="white"></rect> <path d="M2.5 390H62.5V450H2.5V390Z" fill="white" stroke="#828282"></path> <path d="M13.1761 414V412.011L16.9744 408.869C17.2263 408.661 17.4418 408.465 17.6207 408.283C17.803 408.097 17.9422 407.906 18.0384 407.711C18.1378 407.515 18.1875 407.298 18.1875 407.06C18.1875 406.798 18.1312 406.574 18.0185 406.388C17.9091 406.203 17.7566 406.06 17.5611 405.961C17.3655 405.858 17.1402 405.807 16.8849 405.807C16.6297 405.807 16.4044 405.858 16.2088 405.961C16.0166 406.064 15.8674 406.214 15.7614 406.413C15.6553 406.612 15.6023 406.854 15.6023 407.139H12.9773C12.9773 406.423 13.138 405.807 13.4595 405.29C13.781 404.773 14.2351 404.375 14.8217 404.097C15.4084 403.818 16.0961 403.679 16.8849 403.679C17.7003 403.679 18.4063 403.81 19.0028 404.072C19.6027 404.33 20.0651 404.695 20.3899 405.165C20.718 405.636 20.8821 406.188 20.8821 406.821C20.8821 407.212 20.8009 407.602 20.6385 407.989C20.4761 408.374 20.1844 408.8 19.7635 409.267C19.3426 409.734 18.7443 410.291 17.9688 410.938L17.0142 411.733V411.793H20.9915V414H13.1761ZM26.3832 414.139C25.5612 414.139 24.8271 414.012 24.1808 413.756C23.5378 413.501 23.0307 413.155 22.6594 412.717C22.2915 412.28 22.1076 411.786 22.1076 411.236C22.1076 410.815 22.212 410.43 22.4208 410.082C22.6329 409.734 22.918 409.446 23.2759 409.217C23.6339 408.985 24.0333 408.836 24.4741 408.77V408.69C23.8941 408.591 23.4168 408.334 23.0423 407.92C22.671 407.502 22.4854 407.01 22.4854 406.443C22.4854 405.91 22.6545 405.436 22.9925 405.021C23.3306 404.604 23.793 404.276 24.3796 404.037C24.9663 403.798 25.6341 403.679 26.3832 403.679C27.1322 403.679 27.8001 403.8 28.3867 404.042C28.9734 404.281 29.4357 404.609 29.7738 405.026C30.1119 405.441 30.2809 405.913 30.2809 406.443C30.2809 407.013 30.092 407.505 29.7141 407.92C29.3363 408.334 28.8623 408.591 28.2923 408.69V408.77C28.7298 408.836 29.1275 408.985 29.4854 409.217C29.8434 409.446 30.1284 409.734 30.3406 410.082C30.5527 410.43 30.6587 410.815 30.6587 411.236C30.6587 411.786 30.4731 412.28 30.1019 412.717C29.734 413.155 29.2269 413.501 28.5806 413.756C27.9376 414.012 27.2051 414.139 26.3832 414.139ZM26.3832 412.23C26.645 412.23 26.877 412.177 27.0792 412.071C27.2814 411.965 27.4405 411.819 27.5565 411.634C27.6758 411.445 27.7354 411.232 27.7354 410.997C27.7354 410.762 27.6758 410.553 27.5565 410.371C27.4405 410.188 27.2814 410.046 27.0792 409.943C26.877 409.837 26.645 409.784 26.3832 409.784C26.1246 409.784 25.8926 409.837 25.6871 409.943C25.485 410.046 25.3242 410.188 25.2049 410.371C25.0889 410.553 25.0309 410.762 25.0309 410.997C25.0309 411.232 25.0889 411.443 25.2049 411.629C25.3242 411.814 25.485 411.962 25.6871 412.071C25.8926 412.177 26.1246 412.23 26.3832 412.23ZM26.3832 407.875C26.6152 407.875 26.8207 407.827 26.9996 407.731C27.1786 407.635 27.3195 407.502 27.4222 407.333C27.525 407.164 27.5763 406.973 27.5763 406.761C27.5763 406.549 27.525 406.362 27.4222 406.2C27.3195 406.034 27.1786 405.905 26.9996 405.812C26.8207 405.716 26.6152 405.668 26.3832 405.668C26.1545 405.668 25.949 405.716 25.7667 405.812C25.5877 405.905 25.4469 406.034 25.3441 406.2C25.2414 406.362 25.19 406.549 25.19 406.761C25.19 406.973 25.2414 407.164 25.3441 407.333C25.4469 407.499 25.5877 407.631 25.7667 407.731C25.949 407.827 26.1545 407.875 26.3832 407.875ZM34.9554 412.608V405.25H37.1827V412.608H34.9554ZM32.3901 410.043V407.815H39.748V410.043H32.3901Z" fill="#0A9F58"></path> <rect width="60" height="60" transform="translate(62.5 390)" fill="white"></rect> <rect x="62.5" y="390" width="60" height="60" fill="white" stroke="#828282"></rect> <path d="M73.1761 414V412.011L76.9744 408.869C77.2263 408.661 77.4418 408.465 77.6207 408.283C77.803 408.097 77.9422 407.906 78.0384 407.711C78.1378 407.515 78.1875 407.298 78.1875 407.06C78.1875 406.798 78.1312 406.574 78.0185 406.388C77.9091 406.203 77.7566 406.06 77.5611 405.961C77.3655 405.858 77.1402 405.807 76.8849 405.807C76.6297 405.807 76.4044 405.858 76.2088 405.961C76.0166 406.064 75.8674 406.214 75.7614 406.413C75.6553 406.612 75.6023 406.854 75.6023 407.139H72.9773C72.9773 406.423 73.138 405.807 73.4595 405.29C73.781 404.773 74.2351 404.375 74.8217 404.097C75.4084 403.818 76.0961 403.679 76.8849 403.679C77.7003 403.679 78.4063 403.81 79.0028 404.072C79.6027 404.33 80.0651 404.695 80.3899 405.165C80.718 405.636 80.8821 406.188 80.8821 406.821C80.8821 407.212 80.8009 407.602 80.6385 407.989C80.4761 408.374 80.1844 408.8 79.7635 409.267C79.3426 409.734 78.7443 410.291 77.9688 410.938L77.0142 411.733V411.793H80.9915V414H73.1761ZM86.2042 403.679C86.7975 403.679 87.3593 403.773 87.8896 403.962C88.4199 404.148 88.8888 404.441 89.2965 404.842C89.7075 405.243 90.029 405.767 90.261 406.413C90.4963 407.056 90.6156 407.835 90.619 408.75C90.6223 409.585 90.5179 410.336 90.3058 411.002C90.0969 411.665 89.797 412.23 89.4059 412.697C89.0181 413.165 88.5508 413.523 88.0039 413.771C87.4603 414.017 86.8538 414.139 86.1843 414.139C85.4319 414.139 84.7707 413.995 84.2006 413.707C83.6306 413.418 83.1765 413.031 82.8384 412.543C82.5004 412.056 82.3031 411.514 82.2468 410.918H84.9712C85.0375 411.226 85.1834 411.45 85.4087 411.589C85.6341 411.725 85.8926 411.793 86.1843 411.793C86.7676 411.793 87.1935 411.541 87.462 411.037C87.7338 410.53 87.8713 409.854 87.8746 409.009H87.815C87.6857 409.32 87.4902 409.587 87.2283 409.809C86.9665 410.031 86.6616 410.202 86.3136 410.321C85.9656 410.44 85.5977 410.5 85.2099 410.5C84.5967 410.5 84.0598 410.362 83.5991 410.087C83.1384 409.809 82.7788 409.429 82.5202 408.949C82.2617 408.465 82.1308 407.915 82.1275 407.298C82.1242 406.576 82.2949 405.943 82.6396 405.399C82.9843 404.856 83.4632 404.433 84.0763 404.131C84.6895 403.83 85.3988 403.679 86.2042 403.679ZM86.2241 405.767C85.949 405.767 85.7037 405.83 85.4883 405.956C85.2762 406.082 85.1088 406.253 84.9862 406.468C84.8668 406.683 84.8088 406.927 84.8121 407.199C84.8155 407.471 84.8768 407.714 84.9961 407.93C85.1187 408.145 85.2844 408.316 85.4933 408.442C85.7054 408.568 85.949 408.631 86.2241 408.631C86.4263 408.631 86.6135 408.596 86.7859 408.526C86.9582 408.453 87.1074 408.352 87.2333 408.223C87.3626 408.09 87.462 407.938 87.5316 407.766C87.6045 407.59 87.6393 407.401 87.636 407.199C87.6327 406.927 87.5697 406.683 87.4471 406.468C87.3245 406.253 87.1571 406.082 86.945 405.956C86.7328 405.83 86.4925 405.767 86.2241 405.767ZM94.8734 412.608V405.25H97.1007V412.608H94.8734ZM92.3081 410.043V407.815H99.666V410.043H92.3081Z" fill="#0A9F58"></path> <rect width="60" height="60" transform="translate(122.5 390)" fill="white"></rect> <rect x="122.5" y="390" width="60" height="60" fill="white" stroke="#828282"></rect> <path d="M137.153 414.139C136.351 414.139 135.639 414.002 135.016 413.727C134.396 413.448 133.909 413.065 133.554 412.578C133.199 412.091 133.02 411.531 133.017 410.898H135.801C135.804 411.093 135.864 411.269 135.98 411.425C136.099 411.577 136.262 411.696 136.467 411.783C136.673 411.869 136.908 411.912 137.173 411.912C137.429 411.912 137.654 411.867 137.849 411.778C138.045 411.685 138.197 411.557 138.307 411.395C138.416 411.232 138.469 411.047 138.466 410.838C138.469 410.633 138.406 410.45 138.277 410.291C138.151 410.132 137.974 410.008 137.745 409.918C137.516 409.829 137.253 409.784 136.955 409.784H135.92V407.875H136.955C137.23 407.875 137.472 407.83 137.68 407.741C137.893 407.651 138.057 407.527 138.173 407.368C138.292 407.209 138.35 407.027 138.347 406.821C138.35 406.622 138.302 406.446 138.202 406.294C138.103 406.142 137.964 406.022 137.785 405.936C137.609 405.85 137.405 405.807 137.173 405.807C136.921 405.807 136.696 405.852 136.497 405.941C136.302 406.031 136.147 406.155 136.035 406.314C135.922 406.473 135.864 406.655 135.861 406.861H133.216C133.219 406.238 133.39 405.687 133.728 405.21C134.069 404.733 134.537 404.358 135.13 404.087C135.723 403.815 136.404 403.679 137.173 403.679C137.926 403.679 138.59 403.807 139.167 404.062C139.747 404.317 140.199 404.668 140.524 405.116C140.852 405.56 141.015 406.069 141.011 406.642C141.018 407.212 140.822 407.679 140.425 408.044C140.03 408.409 139.53 408.624 138.923 408.69V408.77C139.745 408.859 140.363 409.111 140.778 409.526C141.192 409.937 141.396 410.454 141.389 411.077C141.393 411.673 141.214 412.202 140.852 412.663C140.494 413.123 139.996 413.485 139.356 413.746C138.719 414.008 137.985 414.139 137.153 414.139ZM147.058 414.278C146.133 414.275 145.335 414.061 144.662 413.637C143.989 413.213 143.47 412.601 143.106 411.803C142.741 411.004 142.56 410.046 142.564 408.929C142.567 407.809 142.749 406.857 143.111 406.075C143.475 405.293 143.992 404.698 144.662 404.29C145.335 403.883 146.133 403.679 147.058 403.679C147.983 403.679 148.782 403.884 149.454 404.295C150.127 404.703 150.646 405.298 151.01 406.08C151.375 406.862 151.556 407.812 151.552 408.929C151.552 410.053 151.37 411.014 151.006 411.812C150.641 412.611 150.122 413.223 149.449 413.647C148.78 414.068 147.983 414.278 147.058 414.278ZM147.058 412.031C147.535 412.031 147.926 411.783 148.231 411.286C148.54 410.785 148.692 410 148.689 408.929C148.689 408.23 148.619 407.658 148.48 407.214C148.341 406.77 148.148 406.442 147.903 406.229C147.658 406.014 147.376 405.906 147.058 405.906C146.581 405.906 146.191 406.148 145.89 406.632C145.588 407.116 145.434 407.882 145.427 408.929C145.424 409.642 145.492 410.228 145.631 410.689C145.77 411.146 145.963 411.484 146.208 411.703C146.456 411.922 146.74 412.031 147.058 412.031ZM155.912 412.608V405.25H158.14V412.608H155.912ZM153.347 410.043V407.815H160.705V410.043H153.347Z" fill="#0A9F58"></path> <rect width="60" height="60" transform="translate(182.5 390)" fill="white"></rect> <rect x="182.5" y="390" width="60" height="60" fill="white" stroke="#828282"></rect> <path d="M197.153 414.139C196.351 414.139 195.639 414.002 195.016 413.727C194.396 413.448 193.909 413.065 193.554 412.578C193.199 412.091 193.02 411.531 193.017 410.898H195.801C195.804 411.093 195.864 411.269 195.98 411.425C196.099 411.577 196.262 411.696 196.467 411.783C196.673 411.869 196.908 411.912 197.173 411.912C197.429 411.912 197.654 411.867 197.849 411.778C198.045 411.685 198.197 411.557 198.307 411.395C198.416 411.232 198.469 411.047 198.466 410.838C198.469 410.633 198.406 410.45 198.277 410.291C198.151 410.132 197.974 410.008 197.745 409.918C197.516 409.829 197.253 409.784 196.955 409.784H195.92V407.875H196.955C197.23 407.875 197.472 407.83 197.68 407.741C197.893 407.651 198.057 407.527 198.173 407.368C198.292 407.209 198.35 407.027 198.347 406.821C198.35 406.622 198.302 406.446 198.202 406.294C198.103 406.142 197.964 406.022 197.785 405.936C197.609 405.85 197.405 405.807 197.173 405.807C196.921 405.807 196.696 405.852 196.497 405.941C196.302 406.031 196.147 406.155 196.035 406.314C195.922 406.473 195.864 406.655 195.861 406.861H193.216C193.219 406.238 193.39 405.687 193.728 405.21C194.069 404.733 194.537 404.358 195.13 404.087C195.723 403.815 196.404 403.679 197.173 403.679C197.926 403.679 198.59 403.807 199.167 404.062C199.747 404.317 200.199 404.668 200.524 405.116C200.852 405.56 201.015 406.069 201.011 406.642C201.018 407.212 200.822 407.679 200.425 408.044C200.03 408.409 199.53 408.624 198.923 408.69V408.77C199.745 408.859 200.363 409.111 200.778 409.526C201.192 409.937 201.396 410.454 201.389 411.077C201.393 411.673 201.214 412.202 200.852 412.663C200.494 413.123 199.996 413.485 199.356 413.746C198.719 414.008 197.985 414.139 197.153 414.139ZM207.615 403.818V414H204.851V406.364H204.791L202.564 407.696V405.349L205.069 403.818H207.615ZM212.768 412.608V405.25H214.995V412.608H212.768ZM210.203 410.043V407.815H217.561V410.043H210.203Z" fill="#0A9F58"></path> <rect width="60" height="60" transform="translate(242.5 390)" fill="white"></rect> <rect x="242.5" y="390" width="60" height="60" fill="white" stroke="#828282"></rect> <rect width="60" height="60" transform="translate(302.5 390)" fill="white"></rect> <rect x="302.5" y="390" width="60" height="60" fill="white" stroke="#828282"></rect> <rect width="60" height="60" transform="translate(362.5 390)" fill="white"></rect> <path d="M362.5 390H422.5V450H362.5V390Z" fill="white" stroke="#828282"></path> <path d="M133.438 57V42.4545H143.665V45.6364H137.386V47.3409H138.864C140.085 47.3409 141.153 47.5374 142.067 47.9304C142.985 48.3234 143.698 48.8774 144.205 49.5923C144.716 50.3073 144.972 51.1477 144.972 52.1136C144.972 53.0795 144.716 53.9295 144.205 54.6634C143.698 55.3973 142.985 55.9702 142.067 56.3821C141.153 56.794 140.085 57 138.864 57H133.438ZM137.386 53.9034H138.864C139.337 53.9034 139.735 53.8253 140.057 53.669C140.384 53.5128 140.63 53.2973 140.795 53.0227C140.966 52.7481 141.051 52.4356 141.051 52.0852C141.051 51.5881 140.864 51.1761 140.49 50.8494C140.116 50.518 139.574 50.3523 138.864 50.3523H137.386V53.9034ZM151.651 57.1989C150.487 57.1989 149.483 56.9763 148.64 56.5312C147.802 56.0814 147.156 55.4375 146.701 54.5994C146.251 53.7566 146.026 52.7481 146.026 51.5739C146.026 50.447 146.254 49.4621 146.708 48.6193C147.163 47.7765 147.804 47.1207 148.633 46.652C149.461 46.1832 150.439 45.9489 151.566 45.9489C152.39 45.9489 153.136 46.0767 153.803 46.3324C154.471 46.5881 155.041 46.9598 155.515 47.4474C155.988 47.9304 156.353 48.5175 156.609 49.2088C156.864 49.9001 156.992 50.679 156.992 51.5455V52.4545H147.248V50.2955H153.384C153.379 49.983 153.299 49.7083 153.143 49.4716C152.991 49.2301 152.785 49.0431 152.525 48.9105C152.269 48.7732 151.978 48.7045 151.651 48.7045C151.334 48.7045 151.043 48.7732 150.778 48.9105C150.513 49.0431 150.299 49.2277 150.138 49.4645C149.982 49.7012 149.899 49.9782 149.89 50.2955V52.625C149.89 52.9754 149.963 53.2879 150.11 53.5625C150.257 53.8371 150.468 54.0526 150.742 54.2088C151.017 54.3651 151.348 54.4432 151.737 54.4432C152.006 54.4432 152.253 54.4053 152.475 54.3295C152.702 54.2538 152.897 54.1449 153.058 54.0028C153.219 53.8561 153.337 53.6809 153.413 53.4773H156.992C156.869 54.2348 156.578 54.893 156.119 55.4517C155.659 56.0057 155.051 56.4366 154.293 56.7443C153.54 57.0473 152.66 57.1989 151.651 57.1989ZM158.592 61.0909V46.0909H162.484V47.9943H162.569C162.711 47.625 162.92 47.2865 163.194 46.9787C163.469 46.6662 163.81 46.4176 164.217 46.233C164.624 46.0436 165.098 45.9489 165.637 45.9489C166.357 45.9489 167.041 46.1406 167.69 46.5241C168.343 46.9077 168.874 47.5114 169.281 48.3352C169.693 49.1591 169.899 50.2292 169.899 51.5455C169.899 52.8049 169.702 53.849 169.309 54.6776C168.921 55.5062 168.4 56.1241 167.747 56.5312C167.098 56.9384 166.386 57.142 165.609 57.142C165.098 57.142 164.641 57.0592 164.238 56.8935C163.841 56.723 163.5 56.4934 163.216 56.2045C162.936 55.911 162.721 55.5795 162.569 55.2102H162.512V61.0909H158.592ZM162.427 51.5455C162.427 52.0758 162.496 52.535 162.633 52.9233C162.775 53.3068 162.974 53.6051 163.23 53.8182C163.49 54.0265 163.8 54.1307 164.16 54.1307C164.52 54.1307 164.825 54.0289 165.076 53.8253C165.332 53.617 165.526 53.321 165.659 52.9375C165.796 52.5492 165.865 52.0852 165.865 51.5455C165.865 51.0057 165.796 50.544 165.659 50.1605C165.526 49.7723 165.332 49.4763 165.076 49.2727C164.825 49.0644 164.52 48.9602 164.16 48.9602C163.8 48.9602 163.49 49.0644 163.23 49.2727C162.974 49.4763 162.775 49.7723 162.633 50.1605C162.496 50.544 162.427 51.0057 162.427 51.5455ZM176.768 57.1989C175.604 57.1989 174.6 56.9763 173.757 56.5312C172.919 56.0814 172.273 55.4375 171.818 54.5994C171.368 53.7566 171.143 52.7481 171.143 51.5739C171.143 50.447 171.371 49.4621 171.825 48.6193C172.28 47.7765 172.921 47.1207 173.75 46.652C174.579 46.1832 175.556 45.9489 176.683 45.9489C177.507 45.9489 178.253 46.0767 178.92 46.3324C179.588 46.5881 180.159 46.9598 180.632 47.4474C181.106 47.9304 181.47 48.5175 181.726 49.2088C181.982 49.9001 182.109 50.679 182.109 51.5455V52.4545H172.365V50.2955H178.501C178.497 49.983 178.416 49.7083 178.26 49.4716C178.108 49.2301 177.902 49.0431 177.642 48.9105C177.386 48.7732 177.095 48.7045 176.768 48.7045C176.451 48.7045 176.16 48.7732 175.895 48.9105C175.63 49.0431 175.417 49.2277 175.256 49.4645C175.099 49.7012 175.017 49.9782 175.007 50.2955V52.625C175.007 52.9754 175.08 53.2879 175.227 53.5625C175.374 53.8371 175.585 54.0526 175.859 54.2088C176.134 54.3651 176.465 54.4432 176.854 54.4432C177.124 54.4432 177.37 54.4053 177.592 54.3295C177.82 54.2538 178.014 54.1449 178.175 54.0028C178.336 53.8561 178.454 53.6809 178.53 53.4773H182.109C181.986 54.2348 181.695 54.893 181.236 55.4517C180.777 56.0057 180.168 56.4366 179.411 56.7443C178.658 57.0473 177.777 57.1989 176.768 57.1989ZM183.226 53.7045H186.919C186.919 53.9792 187.038 54.2041 187.275 54.3793C187.516 54.5545 187.824 54.642 188.198 54.642C188.572 54.642 188.877 54.545 189.114 54.3509C189.355 54.152 189.476 53.8987 189.476 53.5909C189.476 53.3968 189.426 53.2263 189.327 53.0795C189.228 52.928 189.09 52.8097 188.915 52.7244C188.74 52.6392 188.539 52.5966 188.311 52.5966H186.948V50.2955H188.311C188.648 50.2955 188.92 50.215 189.128 50.054C189.341 49.893 189.448 49.6894 189.448 49.4432C189.448 49.1591 189.344 48.9271 189.135 48.7472C188.927 48.5672 188.662 48.4773 188.34 48.4773C188.018 48.4773 187.753 48.5507 187.544 48.6974C187.336 48.8442 187.232 49.036 187.232 49.2727H183.539C183.539 48.572 183.747 47.9754 184.164 47.483C184.58 46.9858 185.139 46.607 185.84 46.3466C186.541 46.0814 187.317 45.9489 188.169 45.9489C189.145 45.9489 189.983 46.0672 190.684 46.304C191.384 46.5407 191.922 46.8887 192.296 47.348C192.67 47.8073 192.857 48.3731 192.857 49.0455C192.857 49.5994 192.656 50.0753 192.253 50.473C191.851 50.866 191.257 51.1477 190.471 51.3182V51.4318C190.939 51.4555 191.375 51.5668 191.777 51.7656C192.185 51.9645 192.514 52.2486 192.765 52.6179C193.016 52.9872 193.141 53.4441 193.141 53.9886C193.141 54.6705 192.928 55.2505 192.502 55.7287C192.08 56.2069 191.498 56.5715 190.755 56.8224C190.011 57.0734 189.159 57.1989 188.198 57.1989C187.26 57.1989 186.422 57.0734 185.684 56.8224C184.945 56.5668 184.358 56.1809 183.922 55.6648C183.487 55.1439 183.255 54.4905 183.226 53.7045ZM199.893 57.1989C198.729 57.1989 197.725 56.9763 196.882 56.5312C196.044 56.0814 195.398 55.4375 194.943 54.5994C194.493 53.7566 194.268 52.7481 194.268 51.5739C194.268 50.447 194.496 49.4621 194.95 48.6193C195.405 47.7765 196.046 47.1207 196.875 46.652C197.704 46.1832 198.681 45.9489 199.808 45.9489C200.632 45.9489 201.378 46.0767 202.045 46.3324C202.713 46.5881 203.284 46.9598 203.757 47.4474C204.231 47.9304 204.595 48.5175 204.851 49.2088C205.107 49.9001 205.234 50.679 205.234 51.5455V52.4545H195.49V50.2955H201.626C201.622 49.983 201.541 49.7083 201.385 49.4716C201.233 49.2301 201.027 49.0431 200.767 48.9105C200.511 48.7732 200.22 48.7045 199.893 48.7045C199.576 48.7045 199.285 48.7732 199.02 48.9105C198.755 49.0431 198.542 49.2277 198.381 49.4645C198.224 49.7012 198.142 49.9782 198.132 50.2955V52.625C198.132 52.9754 198.205 53.2879 198.352 53.5625C198.499 53.8371 198.71 54.0526 198.984 54.2088C199.259 54.3651 199.59 54.4432 199.979 54.4432C200.249 54.4432 200.495 54.4053 200.717 54.3295C200.945 54.2538 201.139 54.1449 201.3 54.0028C201.461 53.8561 201.579 53.6809 201.655 53.4773H205.234C205.111 54.2348 204.82 54.893 204.361 55.4517C203.902 56.0057 203.293 56.4366 202.536 56.7443C201.783 57.0473 200.902 57.1989 199.893 57.1989ZM214.618 50.0398V52.9659H209.135V50.0398H214.618ZM210.527 46.0909V57H206.834V46.0909H210.527ZM216.919 46.0909V57H213.255V46.0909H216.919ZM220.975 49.0455H224.327C225.885 49.0455 227.111 49.4053 228.006 50.125C228.901 50.84 229.351 51.8248 229.355 53.0795C229.351 53.8892 229.145 54.5876 228.738 55.1747C228.335 55.7618 227.757 56.214 227.005 56.5312C226.257 56.8438 225.364 57 224.327 57H218.787V46.0909H222.48V54.0739H224.327C224.73 54.0739 225.061 53.9792 225.321 53.7898C225.582 53.5956 225.714 53.3494 225.719 53.0511C225.714 52.7339 225.582 52.4759 225.321 52.277C225.061 52.0734 224.73 51.9716 224.327 51.9716H220.975V49.0455ZM234.95 57V54.1591L240.376 49.6705C240.736 49.3722 241.044 49.0928 241.3 48.8324C241.56 48.5672 241.759 48.295 241.896 48.0156C242.038 47.7363 242.109 47.4261 242.109 47.0852C242.109 46.7112 242.029 46.3916 241.868 46.1264C241.712 45.8613 241.494 45.6577 241.214 45.5156C240.935 45.3688 240.613 45.2955 240.249 45.2955C239.884 45.2955 239.562 45.3688 239.283 45.5156C239.008 45.6624 238.795 45.8778 238.643 46.1619C238.492 46.446 238.416 46.7917 238.416 47.1989H234.666C234.666 46.1761 234.896 45.2955 235.355 44.5568C235.814 43.8182 236.463 43.25 237.301 42.8523C238.139 42.4545 239.122 42.2557 240.249 42.2557C241.413 42.2557 242.422 42.4427 243.274 42.8168C244.131 43.1861 244.792 43.7069 245.256 44.3793C245.724 45.0516 245.959 45.84 245.959 46.7443C245.959 47.303 245.843 47.8594 245.611 48.4134C245.379 48.9626 244.962 49.571 244.361 50.2386C243.759 50.9062 242.905 51.7017 241.797 52.625L240.433 53.7614V53.8466H246.115V57H234.95ZM254.215 57.3977C252.894 57.393 251.753 57.0876 250.792 56.4815C249.831 55.8755 249.09 55.0019 248.569 53.8608C248.048 52.7197 247.79 51.3513 247.795 49.7557C247.799 48.1553 248.06 46.7964 248.576 45.679C249.097 44.5616 249.835 43.7116 250.792 43.1293C251.753 42.5469 252.894 42.2557 254.215 42.2557C255.536 42.2557 256.677 42.5492 257.638 43.1364C258.6 43.7187 259.341 44.5687 259.862 45.6861C260.382 46.8035 260.64 48.16 260.636 49.7557C260.636 51.3608 260.375 52.7339 259.854 53.875C259.334 55.0161 258.593 55.8897 257.631 56.4957C256.675 57.0971 255.536 57.3977 254.215 57.3977ZM254.215 54.1875C254.897 54.1875 255.456 53.8324 255.891 53.1222C256.332 52.4072 256.549 51.285 256.545 49.7557C256.545 48.7566 256.445 47.9399 256.246 47.3054C256.048 46.6709 255.773 46.2022 255.423 45.8991C255.072 45.5914 254.67 45.4375 254.215 45.4375C253.533 45.4375 252.977 45.7831 252.546 46.4744C252.115 47.1657 251.895 48.2595 251.886 49.7557C251.881 50.7737 251.978 51.6117 252.177 52.2699C252.376 52.9233 252.65 53.4062 253.001 53.7188C253.356 54.0312 253.761 54.1875 254.215 54.1875ZM262.489 57V54.1591L267.915 49.6705C268.275 49.3722 268.583 49.0928 268.839 48.8324C269.099 48.5672 269.298 48.295 269.435 48.0156C269.577 47.7363 269.648 47.4261 269.648 47.0852C269.648 46.7112 269.568 46.3916 269.407 46.1264C269.251 45.8613 269.033 45.6577 268.754 45.5156C268.474 45.3688 268.152 45.2955 267.788 45.2955C267.423 45.2955 267.101 45.3688 266.822 45.5156C266.547 45.6624 266.334 45.8778 266.183 46.1619C266.031 46.446 265.955 46.7917 265.955 47.1989H262.205C262.205 46.1761 262.435 45.2955 262.894 44.5568C263.353 43.8182 264.002 43.25 264.84 42.8523C265.678 42.4545 266.661 42.2557 267.788 42.2557C268.952 42.2557 269.961 42.4427 270.813 42.8168C271.67 43.1861 272.331 43.7069 272.795 44.3793C273.263 45.0516 273.498 45.84 273.498 46.7443C273.498 47.303 273.382 47.8594 273.15 48.4134C272.918 48.9626 272.501 49.571 271.9 50.2386C271.299 50.9062 270.444 51.7017 269.336 52.625L267.972 53.7614V53.8466H273.654V57H262.489ZM275.419 57V54.1591L280.845 49.6705C281.205 49.3722 281.513 49.0928 281.768 48.8324C282.029 48.5672 282.228 48.295 282.365 48.0156C282.507 47.7363 282.578 47.4261 282.578 47.0852C282.578 46.7112 282.498 46.3916 282.337 46.1264C282.18 45.8613 281.963 45.6577 281.683 45.5156C281.404 45.3688 281.082 45.2955 280.717 45.2955C280.353 45.2955 280.031 45.3688 279.751 45.5156C279.477 45.6624 279.264 45.8778 279.112 46.1619C278.961 46.446 278.885 46.7917 278.885 47.1989H275.135C275.135 46.1761 275.365 45.2955 275.824 44.5568C276.283 43.8182 276.932 43.25 277.77 42.8523C278.608 42.4545 279.59 42.2557 280.717 42.2557C281.882 42.2557 282.891 42.4427 283.743 42.8168C284.6 43.1861 285.26 43.7069 285.724 44.3793C286.193 45.0516 286.428 45.84 286.428 46.7443C286.428 47.303 286.312 47.8594 286.08 48.4134C285.848 48.9626 285.431 49.571 284.83 50.2386C284.228 50.9062 283.374 51.7017 282.266 52.625L280.902 53.7614V53.8466H286.584V57H275.419Z" fill="black"></path> </svg> 