<?xml version="1.0" encoding="UTF-8"?> <svg xmlns="http://www.w3.org/2000/svg" width="425" height="457" viewBox="0 0 425 457" fill="none"> <rect width="425" height="457" fill="white"></rect> <path d="M150.901 58L146.44 52.1193H145.886V58H141.938V43.4545H145.886V48.9375H146.398L150.574 43.4545H155.545L150.006 50.4432L155.858 58H150.901ZM156.975 58V47.0909H161.748C163.211 47.0909 164.361 47.3395 165.199 47.8366C166.042 48.3338 166.463 49.0795 166.463 50.0739C166.463 50.6136 166.227 51.0919 165.753 51.5085C165.284 51.9252 164.603 52.2045 163.708 52.3466C164.532 52.3845 165.199 52.536 165.711 52.8011C166.227 53.0616 166.603 53.3883 166.84 53.7812C167.081 54.1695 167.202 54.572 167.202 54.9886C167.202 55.6515 167.022 56.2079 166.662 56.6577C166.302 57.1027 165.772 57.4389 165.071 57.6662C164.371 57.8887 163.509 58 162.486 58H156.975ZM160.611 55.2443H162.486C162.803 55.2443 163.052 55.1686 163.232 55.017C163.417 54.8655 163.509 54.6572 163.509 54.392C163.509 54.1174 163.417 53.902 163.232 53.7457C163.052 53.5895 162.803 53.5114 162.486 53.5114H160.611V55.2443ZM160.611 51.5227H161.861C162.065 51.5227 162.238 51.492 162.38 51.4304C162.522 51.3641 162.631 51.2718 162.706 51.1534C162.787 51.035 162.827 50.893 162.827 50.7273C162.827 50.4763 162.73 50.2822 162.536 50.1449C162.346 50.0028 162.084 49.9318 161.748 49.9318H160.611V51.5227ZM168.713 58V47.0909H172.634V58H168.713ZM170.673 45.9545C170.143 45.9545 169.688 45.7794 169.31 45.429C168.931 45.0786 168.741 44.6572 168.741 44.1648C168.741 43.6723 168.931 43.2509 169.31 42.9006C169.688 42.5502 170.143 42.375 170.673 42.375C171.208 42.375 171.663 42.5502 172.037 42.9006C172.416 43.2509 172.605 43.6723 172.605 44.1648C172.605 44.6572 172.416 45.0786 172.037 45.429C171.663 45.7794 171.208 45.9545 170.673 45.9545ZM174.091 50.017V47.0909H184.659V50.017H181.194V58H177.5V50.017H174.091ZM191.069 58.1989C189.904 58.1989 188.901 57.9763 188.058 57.5312C187.22 57.0814 186.574 56.4375 186.119 55.5994C185.669 54.7566 185.444 53.7481 185.444 52.5739C185.444 51.447 185.672 50.4621 186.126 49.6193C186.581 48.7765 187.222 48.1207 188.051 47.652C188.879 47.1832 189.857 46.9489 190.984 46.9489C191.808 46.9489 192.554 47.0767 193.221 47.3324C193.889 47.5881 194.459 47.9598 194.933 48.4474C195.406 48.9304 195.771 49.5175 196.027 50.2088C196.282 50.9001 196.41 51.679 196.41 52.5455V53.4545H186.666V51.2955H192.802C192.797 50.983 192.717 50.7083 192.561 50.4716C192.409 50.2301 192.203 50.0431 191.943 49.9105C191.687 49.7732 191.396 49.7045 191.069 49.7045C190.752 49.7045 190.461 49.7732 190.196 49.9105C189.931 50.0431 189.717 50.2277 189.556 50.4645C189.4 50.7012 189.317 50.9782 189.308 51.2955V53.625C189.308 53.9754 189.381 54.2879 189.528 54.5625C189.675 54.8371 189.886 55.0526 190.16 55.2088C190.435 55.3651 190.766 55.4432 191.154 55.4432C191.424 55.4432 191.671 55.4053 191.893 55.3295C192.12 55.2538 192.315 55.1449 192.475 55.0028C192.636 54.8561 192.755 54.6809 192.831 54.4773H196.41C196.287 55.2348 195.996 55.893 195.537 56.4517C195.077 57.0057 194.469 57.4366 193.711 57.7443C192.958 58.0473 192.078 58.1989 191.069 58.1989ZM205.794 51.0398V53.9659H200.311V51.0398H205.794ZM201.703 47.0909V58H198.01V47.0909H201.703ZM208.095 47.0909V58H204.43V47.0909H208.095ZM212.151 50.0455H215.503C217.061 50.0455 218.287 50.4053 219.182 51.125C220.077 51.84 220.527 52.8248 220.531 54.0795C220.527 54.8892 220.321 55.5876 219.913 56.1747C219.511 56.7618 218.933 57.214 218.18 57.5312C217.432 57.8438 216.54 58 215.503 58H209.963V47.0909H213.656V55.0739H215.503C215.905 55.0739 216.237 54.9792 216.497 54.7898C216.758 54.5956 216.89 54.3494 216.895 54.0511C216.89 53.7339 216.758 53.4759 216.497 53.277C216.237 53.0734 215.905 52.9716 215.503 52.9716H212.151V50.0455ZM226.126 58V55.1591L231.552 50.6705C231.912 50.3722 232.22 50.0928 232.475 49.8324C232.736 49.5672 232.935 49.295 233.072 49.0156C233.214 48.7363 233.285 48.4261 233.285 48.0852C233.285 47.7112 233.205 47.3916 233.044 47.1264C232.887 46.8613 232.67 46.6577 232.39 46.5156C232.111 46.3688 231.789 46.2955 231.424 46.2955C231.06 46.2955 230.738 46.3688 230.458 46.5156C230.184 46.6624 229.971 46.8778 229.819 47.1619C229.668 47.446 229.592 47.7917 229.592 48.1989H225.842C225.842 47.1761 226.072 46.2955 226.531 45.5568C226.99 44.8182 227.639 44.25 228.477 43.8523C229.315 43.4545 230.297 43.2557 231.424 43.2557C232.589 43.2557 233.598 43.4427 234.45 43.8168C235.307 44.1861 235.967 44.7069 236.431 45.3793C236.9 46.0516 237.135 46.84 237.135 47.7443C237.135 48.303 237.019 48.8594 236.787 49.4134C236.555 49.9626 236.138 50.571 235.537 51.2386C234.935 51.9062 234.081 52.7017 232.973 53.625L231.609 54.7614V54.8466H237.291V58H226.126ZM245.391 58.3977C244.07 58.393 242.929 58.0876 241.968 57.4815C241.007 56.8755 240.266 56.0019 239.745 54.8608C239.224 53.7197 238.966 52.3513 238.971 50.7557C238.975 49.1553 239.236 47.7964 239.752 46.679C240.273 45.5616 241.011 44.7116 241.968 44.1293C242.929 43.5469 244.07 43.2557 245.391 43.2557C246.712 43.2557 247.853 43.5492 248.814 44.1364C249.775 44.7187 250.516 45.5687 251.037 46.6861C251.558 47.8035 251.816 49.16 251.811 50.7557C251.811 52.3608 251.551 53.7339 251.03 54.875C250.509 56.0161 249.768 56.8897 248.807 57.4957C247.851 58.0971 246.712 58.3977 245.391 58.3977ZM245.391 55.1875C246.073 55.1875 246.632 54.8324 247.067 54.1222C247.507 53.4072 247.725 52.285 247.721 50.7557C247.721 49.7566 247.621 48.9399 247.422 48.3054C247.223 47.6709 246.949 47.2022 246.598 46.8991C246.248 46.5914 245.846 46.4375 245.391 46.4375C244.709 46.4375 244.153 46.7831 243.722 47.4744C243.291 48.1657 243.071 49.2595 243.061 50.7557C243.057 51.7737 243.154 52.6117 243.353 53.2699C243.551 53.9233 243.826 54.4062 244.176 54.7188C244.532 55.0312 244.936 55.1875 245.391 55.1875ZM253.665 58V55.1591L259.091 50.6705C259.451 50.3722 259.759 50.0928 260.015 49.8324C260.275 49.5672 260.474 49.295 260.611 49.0156C260.753 48.7363 260.824 48.4261 260.824 48.0852C260.824 47.7112 260.744 47.3916 260.583 47.1264C260.426 46.8613 260.209 46.6577 259.929 46.5156C259.65 46.3688 259.328 46.2955 258.963 46.2955C258.599 46.2955 258.277 46.3688 257.998 46.5156C257.723 46.6624 257.51 46.8778 257.358 47.1619C257.207 47.446 257.131 47.7917 257.131 48.1989H253.381C253.381 47.1761 253.611 46.2955 254.07 45.5568C254.529 44.8182 255.178 44.25 256.016 43.8523C256.854 43.4545 257.837 43.2557 258.963 43.2557C260.128 43.2557 261.137 43.4427 261.989 43.8168C262.846 44.1861 263.507 44.7069 263.971 45.3793C264.439 46.0516 264.674 46.84 264.674 47.7443C264.674 48.303 264.558 48.8594 264.326 49.4134C264.094 49.9626 263.677 50.571 263.076 51.2386C262.474 51.9062 261.62 52.7017 260.512 53.625L259.148 54.7614V54.8466H264.83V58H253.665ZM266.595 58V55.1591L272.021 50.6705C272.381 50.3722 272.689 50.0928 272.944 49.8324C273.205 49.5672 273.404 49.295 273.541 49.0156C273.683 48.7363 273.754 48.4261 273.754 48.0852C273.754 47.7112 273.673 47.3916 273.512 47.1264C273.356 46.8613 273.138 46.6577 272.859 46.5156C272.58 46.3688 272.258 46.2955 271.893 46.2955C271.529 46.2955 271.207 46.3688 270.927 46.5156C270.653 46.6624 270.44 46.8778 270.288 47.1619C270.136 47.446 270.061 47.7917 270.061 48.1989H266.311C266.311 47.1761 266.54 46.2955 267 45.5568C267.459 44.8182 268.108 44.25 268.946 43.8523C269.784 43.4545 270.766 43.2557 271.893 43.2557C273.058 43.2557 274.066 43.4427 274.919 43.8168C275.776 44.1861 276.436 44.7069 276.9 45.3793C277.369 46.0516 277.603 46.84 277.603 47.7443C277.603 48.303 277.487 48.8594 277.255 49.4134C277.023 49.9626 276.607 50.571 276.005 51.2386C275.404 51.9062 274.549 52.7017 273.441 53.625L272.078 54.7614V54.8466H277.76V58H266.595Z" fill="black"></path> <rect width="420" height="360" transform="translate(2.5 90)" fill="white"></rect> <rect width="60" height="60" transform="translate(2.5 90)" fill="white"></rect> <path d="M2.5 90H62.5V150H2.5V90Z" fill="#E5E5E5" stroke="#828282"></path> <path d="M22.0405 112.818V123H19.9126V114.568H15.7962V123H13.6683V112.818H22.0405ZM24.09 123V112.818H26.2427V117.019H30.6127V112.818H32.7605V123H30.6127V118.794H26.2427V123H24.09Z" fill="black"></path> <rect width="60" height="60" transform="translate(62.5 90)" fill="white"></rect> <rect x="62.5" y="90" width="60" height="60" fill="#E5E5E5" stroke="#828282"></rect> <path d="M73.3849 123V112.818H77.4616C78.2107 112.818 78.8355 112.929 79.3359 113.151C79.8364 113.373 80.2126 113.682 80.4645 114.076C80.7164 114.467 80.8423 114.918 80.8423 115.428C80.8423 115.826 80.7628 116.176 80.6037 116.477C80.4446 116.776 80.2259 117.021 79.9474 117.213C79.6723 117.402 79.3575 117.536 79.0028 117.616V117.715C79.3906 117.732 79.7536 117.841 80.0916 118.043C80.433 118.246 80.7098 118.529 80.9219 118.893C81.134 119.255 81.2401 119.686 81.2401 120.186C81.2401 120.726 81.1058 121.209 80.8374 121.633C80.5722 122.054 80.1795 122.387 79.6591 122.632C79.1387 122.877 78.4974 123 77.7351 123H73.3849ZM75.5376 121.24H77.2926C77.8925 121.24 78.33 121.126 78.6051 120.897C78.8802 120.665 79.0178 120.357 79.0178 119.972C79.0178 119.691 78.9498 119.442 78.8139 119.227C78.678 119.011 78.4841 118.842 78.2322 118.719C77.9837 118.597 77.687 118.536 77.3423 118.536H75.5376V121.24ZM75.5376 117.079H77.1335C77.4285 117.079 77.6903 117.027 77.919 116.925C78.151 116.819 78.3333 116.67 78.4659 116.477C78.6018 116.285 78.6697 116.055 78.6697 115.786C78.6697 115.418 78.5388 115.122 78.277 114.896C78.0185 114.671 77.6506 114.558 77.1733 114.558H75.5376V117.079ZM82.253 114.593V112.818H90.6152V114.593H87.498V123H85.3702V114.593H82.253Z" fill="black"></path> <rect width="60" height="60" transform="translate(122.5 90)" fill="white"></rect> <rect x="122.5" y="90" width="60" height="60" fill="#E5E5E5" stroke="#828282"></rect> <path d="M142.369 116.383H140.191C140.151 116.101 140.07 115.851 139.947 115.632C139.825 115.41 139.667 115.221 139.475 115.065C139.283 114.91 139.061 114.79 138.809 114.707C138.56 114.625 138.29 114.583 137.999 114.583C137.472 114.583 137.013 114.714 136.621 114.976C136.23 115.234 135.927 115.612 135.712 116.109C135.496 116.603 135.388 117.203 135.388 117.909C135.388 118.635 135.496 119.245 135.712 119.739C135.93 120.232 136.235 120.605 136.626 120.857C137.018 121.109 137.47 121.235 137.984 121.235C138.272 121.235 138.539 121.197 138.784 121.121C139.033 121.045 139.253 120.933 139.445 120.788C139.638 120.638 139.797 120.458 139.923 120.246C140.052 120.034 140.141 119.792 140.191 119.52L142.369 119.53C142.312 119.997 142.171 120.448 141.946 120.882C141.724 121.313 141.424 121.699 141.046 122.04C140.672 122.379 140.224 122.647 139.704 122.846C139.187 123.041 138.602 123.139 137.949 123.139C137.041 123.139 136.229 122.934 135.513 122.523C134.8 122.112 134.237 121.517 133.822 120.738C133.411 119.959 133.206 119.016 133.206 117.909C133.206 116.799 133.415 115.854 133.832 115.075C134.25 114.296 134.817 113.703 135.533 113.295C136.249 112.884 137.054 112.679 137.949 112.679C138.539 112.679 139.086 112.762 139.589 112.928C140.097 113.093 140.546 113.335 140.937 113.653C141.328 113.968 141.646 114.354 141.891 114.812C142.14 115.269 142.299 115.793 142.369 116.383ZM143.912 123V112.818H147.929C148.702 112.818 149.359 112.966 149.903 113.261C150.447 113.552 150.861 113.958 151.146 114.479C151.434 114.996 151.578 115.592 151.578 116.268C151.578 116.945 151.433 117.541 151.141 118.058C150.849 118.575 150.427 118.978 149.873 119.266C149.323 119.555 148.657 119.699 147.875 119.699H145.314V117.974H147.527C147.941 117.974 148.282 117.902 148.551 117.76C148.823 117.614 149.025 117.414 149.157 117.158C149.293 116.9 149.361 116.603 149.361 116.268C149.361 115.93 149.293 115.635 149.157 115.384C149.025 115.128 148.823 114.931 148.551 114.792C148.279 114.649 147.934 114.578 147.517 114.578H146.065V123H143.912Z" fill="black"></path> <rect width="60" height="60" transform="translate(182.5 90)" fill="white"></rect> <rect x="182.5" y="90" width="60" height="60" fill="#E5E5E5" stroke="#828282"></rect> <path d="M193.798 112.818H195.891V116.099C195.891 116.491 195.959 116.805 196.094 117.044C196.23 117.279 196.441 117.45 196.726 117.556C197.014 117.659 197.384 117.71 197.835 117.71C197.994 117.71 198.181 117.705 198.396 117.695C198.612 117.682 198.834 117.664 199.062 117.641C199.295 117.617 199.513 117.589 199.719 117.556C199.924 117.523 200.095 117.485 200.231 117.442V119.142C200.092 119.188 199.918 119.23 199.709 119.266C199.503 119.299 199.286 119.329 199.058 119.356C198.829 119.379 198.607 119.397 198.391 119.411C198.176 119.424 197.99 119.43 197.835 119.43C197.016 119.43 196.303 119.314 195.697 119.082C195.09 118.847 194.621 118.484 194.29 117.994C193.962 117.503 193.798 116.872 193.798 116.099V112.818ZM199.858 112.818H201.961V123H199.858V112.818ZM203.702 114.593V112.818H212.064V114.593H208.947V123H206.819V114.593H203.702Z" fill="black"></path> <rect width="60" height="60" transform="translate(242.5 90)" fill="white"></rect> <rect x="242.5" y="90" width="60" height="60" fill="#E5E5E5" stroke="#828282"></rect> <path d="M262.04 112.818V123H259.913V114.568H255.796V123H253.668V112.818H262.04ZM263.702 114.593V112.818H272.064V114.593H268.947V123H266.819V114.593H263.702Z" fill="black"></path> <rect width="60" height="60" transform="translate(302.5 90)" fill="white"></rect> <rect x="302.5" y="90" width="60" height="60" fill="#E5E5E5" stroke="#828282"></rect> <path d="M322.369 116.383H320.191C320.151 116.101 320.07 115.851 319.947 115.632C319.825 115.41 319.667 115.221 319.475 115.065C319.283 114.91 319.061 114.79 318.809 114.707C318.56 114.625 318.29 114.583 317.999 114.583C317.472 114.583 317.013 114.714 316.621 114.976C316.23 115.234 315.927 115.612 315.712 116.109C315.496 116.603 315.388 117.203 315.388 117.909C315.388 118.635 315.496 119.245 315.712 119.739C315.93 120.232 316.235 120.605 316.626 120.857C317.018 121.109 317.47 121.235 317.984 121.235C318.272 121.235 318.539 121.197 318.784 121.121C319.033 121.045 319.253 120.933 319.445 120.788C319.638 120.638 319.797 120.458 319.923 120.246C320.052 120.034 320.141 119.792 320.191 119.52L322.369 119.53C322.312 119.997 322.171 120.448 321.946 120.882C321.724 121.313 321.424 121.699 321.046 122.04C320.672 122.379 320.224 122.647 319.704 122.846C319.187 123.041 318.602 123.139 317.949 123.139C317.041 123.139 316.229 122.934 315.513 122.523C314.8 122.112 314.237 121.517 313.822 120.738C313.411 119.959 313.206 119.016 313.206 117.909C313.206 116.799 313.415 115.854 313.832 115.075C314.25 114.296 314.817 113.703 315.533 113.295C316.249 112.884 317.054 112.679 317.949 112.679C318.539 112.679 319.086 112.762 319.589 112.928C320.097 113.093 320.546 113.335 320.937 113.653C321.328 113.968 321.646 114.354 321.891 114.812C322.14 115.269 322.299 115.793 322.369 116.383ZM323.912 123V112.818H330.669V114.593H326.065V116.582H327.721C328.526 116.582 329.22 116.713 329.804 116.974C330.39 117.233 330.843 117.599 331.161 118.073C331.479 118.547 331.638 119.106 331.638 119.749C331.638 120.388 331.479 120.953 331.161 121.444C330.843 121.931 330.39 122.312 329.804 122.587C329.22 122.862 328.526 123 327.721 123H323.912ZM326.065 121.27H327.721C328.105 121.27 328.43 121.2 328.695 121.061C328.96 120.919 329.161 120.731 329.297 120.499C329.436 120.264 329.505 120.007 329.505 119.729C329.505 119.324 329.351 118.983 329.043 118.705C328.738 118.423 328.297 118.282 327.721 118.282H326.065V121.27Z" fill="black"></path> <rect width="60" height="60" transform="translate(362.5 90)" fill="white"></rect> <path d="M362.5 90H422.5V150H362.5V90Z" fill="#E5E5E5" stroke="#828282"></path> <path d="M373.385 123V112.818H375.538V117.019H379.908V112.818H382.055V123H379.908V118.794H375.538V123H373.385ZM383.278 125.456V121.285H383.969C384.205 121.116 384.42 120.877 384.616 120.569C384.811 120.257 384.979 119.828 385.118 119.281C385.257 118.731 385.357 118.012 385.416 117.124L385.705 112.818H392.441V121.285H393.555V125.446H391.487V123H385.347V125.456H383.278ZM386.455 121.285H390.373V114.593H387.643L387.484 117.124C387.441 117.796 387.37 118.393 387.271 118.913C387.174 119.434 387.057 119.889 386.918 120.281C386.782 120.668 386.628 121.003 386.455 121.285Z" fill="black"></path> <rect width="60" height="60" transform="translate(2.5 150)" fill="white"></rect> <rect x="2.5" y="150" width="60" height="60" fill="white" stroke="#828282"></rect> <rect width="60" height="60" transform="translate(62.5 150)" fill="white"></rect> <rect x="62.5" y="150" width="60" height="60" fill="white" stroke="#828282"></rect> <rect width="60" height="60" transform="translate(122.5 150)" fill="white"></rect> <rect x="122.5" y="150" width="60" height="60" fill="white" stroke="#828282"></rect> <rect width="60" height="60" transform="translate(182.5 150)" fill="white"></rect> <rect x="182.5" y="150" width="60" height="60" fill="white" stroke="#828282"></rect> <rect width="60" height="60" transform="translate(242.5 150)" fill="white"></rect> <rect x="242.5" y="150" width="60" height="60" fill="white" stroke="#828282"></rect> <path d="M257.134 163.818V174H255.901V165.111H255.841L253.355 166.761V165.509L255.901 163.818H257.134Z" fill="black"></path> <rect width="60" height="60" transform="translate(302.5 150)" fill="white"></rect> <rect x="302.5" y="150" width="60" height="60" fill="white" stroke="#828282"></rect> <path d="M313.554 174V173.105L316.915 169.426C317.309 168.995 317.634 168.621 317.889 168.303C318.144 167.981 318.333 167.679 318.456 167.398C318.582 167.113 318.645 166.814 318.645 166.503C318.645 166.145 318.559 165.835 318.386 165.573C318.217 165.311 317.985 165.109 317.69 164.967C317.395 164.824 317.064 164.753 316.696 164.753C316.305 164.753 315.964 164.834 315.672 164.996C315.384 165.156 315.16 165.379 315.001 165.668C314.845 165.956 314.767 166.294 314.767 166.682H313.594C313.594 166.085 313.731 165.562 314.006 165.111C314.281 164.66 314.656 164.309 315.13 164.057C315.607 163.805 316.143 163.679 316.736 163.679C317.332 163.679 317.861 163.805 318.322 164.057C318.782 164.309 319.144 164.648 319.406 165.076C319.667 165.504 319.798 165.979 319.798 166.503C319.798 166.877 319.73 167.244 319.594 167.602C319.462 167.956 319.23 168.352 318.898 168.79C318.57 169.224 318.115 169.754 317.531 170.381L315.244 172.827V172.906H319.977V174H313.554Z" fill="black"></path> <rect width="60" height="60" transform="translate(362.5 150)" fill="white"></rect> <rect x="362.5" y="150" width="60" height="60" fill="white" stroke="#828282"></rect> <path d="M376.994 174.139C376.338 174.139 375.753 174.027 375.239 173.801C374.729 173.576 374.323 173.263 374.021 172.862C373.723 172.457 373.561 171.988 373.534 171.455H374.787C374.813 171.783 374.926 172.066 375.125 172.305C375.324 172.54 375.584 172.722 375.906 172.852C376.227 172.981 376.583 173.045 376.974 173.045C377.412 173.045 377.8 172.969 378.138 172.817C378.476 172.664 378.741 172.452 378.933 172.18C379.125 171.909 379.222 171.594 379.222 171.236C379.222 170.861 379.129 170.531 378.943 170.246C378.758 169.958 378.486 169.733 378.128 169.57C377.77 169.408 377.332 169.327 376.815 169.327H376V168.233H376.815C377.22 168.233 377.574 168.16 377.879 168.014C378.188 167.868 378.428 167.663 378.6 167.398C378.776 167.133 378.864 166.821 378.864 166.463C378.864 166.118 378.787 165.818 378.635 165.563C378.482 165.308 378.267 165.109 377.989 164.967C377.714 164.824 377.389 164.753 377.014 164.753C376.663 164.753 376.331 164.817 376.02 164.947C375.712 165.073 375.46 165.257 375.264 165.499C375.069 165.737 374.963 166.026 374.946 166.364H373.753C373.773 165.83 373.933 165.363 374.235 164.962C374.537 164.557 374.931 164.242 375.418 164.017C375.909 163.792 376.447 163.679 377.034 163.679C377.664 163.679 378.204 163.807 378.655 164.062C379.106 164.314 379.452 164.647 379.694 165.061C379.936 165.475 380.057 165.923 380.057 166.403C380.057 166.977 379.906 167.466 379.604 167.87C379.306 168.274 378.9 168.554 378.386 168.71V168.79C379.029 168.896 379.531 169.169 379.893 169.61C380.254 170.048 380.435 170.589 380.435 171.236C380.435 171.789 380.284 172.286 379.982 172.727C379.684 173.165 379.276 173.509 378.759 173.761C378.242 174.013 377.654 174.139 376.994 174.139Z" fill="black"></path> <rect width="60" height="60" transform="translate(2.5 210)" fill="white"></rect> <rect x="2.5" y="210" width="60" height="60" fill="white" stroke="#828282"></rect> <path d="M13.3153 231.912V230.898L17.7898 223.818H18.5256V225.389H18.0284L14.6477 230.739V230.818H20.6733V231.912H13.3153ZM18.108 234V231.604V231.131V223.818H19.2812V234H18.108Z" fill="black"></path> <rect width="60" height="60" transform="translate(62.5 210)" fill="white"></rect> <rect x="62.5" y="210" width="60" height="60" fill="white" stroke="#828282"></rect> <path d="M76.7358 234.139C76.1525 234.139 75.6271 234.023 75.1598 233.791C74.6925 233.559 74.3179 233.241 74.0362 232.837C73.7545 232.432 73.6004 231.972 73.5739 231.455H74.767C74.8134 231.915 75.0223 232.296 75.3935 232.598C75.768 232.896 76.2154 233.045 76.7358 233.045C77.1534 233.045 77.5246 232.948 77.8494 232.752C78.1776 232.557 78.4344 232.288 78.62 231.947C78.8089 231.602 78.9034 231.213 78.9034 230.778C78.9034 230.334 78.8056 229.938 78.6101 229.59C78.4179 229.239 78.1527 228.962 77.8146 228.76C77.4766 228.558 77.0904 228.455 76.6562 228.452C76.3447 228.448 76.0249 228.496 75.6967 228.596C75.3686 228.692 75.0985 228.816 74.8864 228.969L73.733 228.83L74.3494 223.818H79.6392V224.912H75.3835L75.0256 227.915H75.0852C75.294 227.749 75.5559 227.612 75.8707 227.502C76.1856 227.393 76.5137 227.338 76.8551 227.338C77.4782 227.338 78.0334 227.487 78.5206 227.786C79.0111 228.08 79.3956 228.485 79.674 228.999C79.9557 229.512 80.0966 230.099 80.0966 230.759C80.0966 231.408 79.9508 231.988 79.6591 232.499C79.3707 233.006 78.973 233.407 78.4659 233.702C77.9588 233.993 77.3821 234.139 76.7358 234.139Z" fill="black"></path> <rect width="60" height="60" transform="translate(122.5 210)" fill="white"></rect> <rect x="122.5" y="210" width="60" height="60" fill="white" stroke="#828282"></rect> <path d="M137.432 234.139C136.839 234.139 136.275 234.046 135.741 233.861C135.211 233.672 134.741 233.375 134.33 232.971C133.919 232.567 133.595 232.04 133.36 231.39C133.128 230.74 133.014 229.953 133.017 229.028C133.02 228.203 133.126 227.461 133.335 226.801C133.547 226.142 133.847 225.58 134.235 225.116C134.626 224.652 135.094 224.297 135.637 224.052C136.181 223.803 136.786 223.679 137.452 223.679C138.201 223.679 138.86 223.823 139.43 224.112C140 224.4 140.455 224.786 140.793 225.27C141.134 225.75 141.333 226.281 141.389 226.861H138.665C138.602 226.572 138.456 226.362 138.227 226.229C138.002 226.094 137.743 226.026 137.452 226.026C136.872 226.026 136.446 226.277 136.174 226.781C135.906 227.285 135.768 227.948 135.761 228.77H135.821C135.95 228.458 136.146 228.192 136.408 227.969C136.67 227.747 136.974 227.577 137.322 227.457C137.67 227.338 138.038 227.278 138.426 227.278C139.043 227.278 139.581 227.418 140.042 227.696C140.506 227.974 140.867 228.356 141.126 228.839C141.384 229.323 141.512 229.877 141.509 230.5C141.512 231.229 141.339 231.867 140.991 232.414C140.647 232.961 140.168 233.385 139.555 233.687C138.942 233.988 138.234 234.139 137.432 234.139ZM137.412 232.051C137.687 232.051 137.931 231.988 138.143 231.862C138.358 231.736 138.526 231.564 138.645 231.345C138.768 231.126 138.827 230.878 138.824 230.599C138.827 230.318 138.768 230.069 138.645 229.854C138.526 229.635 138.358 229.463 138.143 229.337C137.931 229.211 137.687 229.148 137.412 229.148C137.21 229.148 137.022 229.184 136.85 229.257C136.681 229.327 136.534 229.428 136.408 229.56C136.282 229.69 136.182 229.844 136.109 230.023C136.04 230.198 136.003 230.391 136 230.599C136.003 230.878 136.066 231.126 136.189 231.345C136.312 231.564 136.479 231.736 136.691 231.862C136.903 231.988 137.143 232.051 137.412 232.051ZM145.823 232.608V225.25H148.05V232.608H145.823ZM143.257 230.043V227.815H150.615V230.043H143.257Z" fill="#0A9F58"></path> <rect width="60" height="60" transform="translate(182.5 210)" fill="white"></rect> <rect x="182.5" y="210" width="60" height="60" fill="white" stroke="#828282"></rect> <path d="M193.872 234L198.426 224.991V224.912H193.176V223.818H199.699V224.972L195.165 234H193.872Z" fill="black"></path> <rect width="60" height="60" transform="translate(242.5 210)" fill="white"></rect> <rect x="242.5" y="210" width="60" height="60" fill="white" stroke="#828282"></rect> <path d="M257.332 234.139C256.51 234.139 255.776 234.012 255.13 233.756C254.487 233.501 253.98 233.155 253.609 232.717C253.241 232.28 253.057 231.786 253.057 231.236C253.057 230.815 253.161 230.43 253.37 230.082C253.582 229.734 253.867 229.446 254.225 229.217C254.583 228.985 254.982 228.836 255.423 228.77V228.69C254.843 228.591 254.366 228.334 253.991 227.92C253.62 227.502 253.435 227.01 253.435 226.443C253.435 225.91 253.604 225.436 253.942 225.021C254.28 224.604 254.742 224.276 255.329 224.037C255.915 223.798 256.583 223.679 257.332 223.679C258.081 223.679 258.749 223.8 259.336 224.042C259.923 224.281 260.385 224.609 260.723 225.026C261.061 225.441 261.23 225.913 261.23 226.443C261.23 227.013 261.041 227.505 260.663 227.92C260.286 228.334 259.812 228.591 259.241 228.69V228.77C259.679 228.836 260.077 228.985 260.435 229.217C260.793 229.446 261.078 229.734 261.29 230.082C261.502 230.43 261.608 230.815 261.608 231.236C261.608 231.786 261.422 232.28 261.051 232.717C260.683 233.155 260.176 233.501 259.53 233.756C258.887 234.012 258.154 234.139 257.332 234.139ZM257.332 232.23C257.594 232.23 257.826 232.177 258.028 232.071C258.231 231.965 258.39 231.819 258.506 231.634C258.625 231.445 258.685 231.232 258.685 230.997C258.685 230.762 258.625 230.553 258.506 230.371C258.39 230.188 258.231 230.046 258.028 229.943C257.826 229.837 257.594 229.784 257.332 229.784C257.074 229.784 256.842 229.837 256.636 229.943C256.434 230.046 256.273 230.188 256.154 230.371C256.038 230.553 255.98 230.762 255.98 230.997C255.98 231.232 256.038 231.443 256.154 231.629C256.273 231.814 256.434 231.962 256.636 232.071C256.842 232.177 257.074 232.23 257.332 232.23ZM257.332 227.875C257.564 227.875 257.77 227.827 257.949 227.731C258.128 227.635 258.269 227.502 258.371 227.333C258.474 227.164 258.526 226.973 258.526 226.761C258.526 226.549 258.474 226.362 258.371 226.2C258.269 226.034 258.128 225.905 257.949 225.812C257.77 225.716 257.564 225.668 257.332 225.668C257.104 225.668 256.898 225.716 256.716 225.812C256.537 225.905 256.396 226.034 256.293 226.2C256.191 226.362 256.139 226.549 256.139 226.761C256.139 226.973 256.191 227.164 256.293 227.333C256.396 227.499 256.537 227.631 256.716 227.731C256.898 227.827 257.104 227.875 257.332 227.875ZM265.905 232.608V225.25H268.132V232.608H265.905ZM263.339 230.043V227.815H270.697V230.043H263.339Z" fill="#0A9F58"></path> <rect width="60" height="60" transform="translate(302.5 210)" fill="white"></rect> <rect x="302.5" y="210" width="60" height="60" fill="white" stroke="#828282"></rect> <path d="M316.795 223.679C317.213 223.682 317.631 223.762 318.048 223.918C318.466 224.073 318.847 224.332 319.192 224.693C319.536 225.051 319.813 225.54 320.022 226.16C320.231 226.78 320.335 227.557 320.335 228.491C320.335 229.396 320.249 230.2 320.077 230.903C319.908 231.602 319.662 232.192 319.341 232.673C319.023 233.153 318.635 233.518 318.178 233.766C317.723 234.015 317.21 234.139 316.636 234.139C316.066 234.139 315.558 234.027 315.11 233.801C314.666 233.572 314.301 233.256 314.016 232.852C313.735 232.444 313.554 231.972 313.474 231.435H314.688C314.797 231.902 315.014 232.288 315.339 232.593C315.667 232.895 316.099 233.045 316.636 233.045C317.422 233.045 318.042 232.702 318.496 232.016C318.953 231.33 319.182 230.361 319.182 229.108H319.102C318.917 229.386 318.696 229.627 318.441 229.829C318.186 230.031 317.902 230.187 317.591 230.296C317.279 230.406 316.948 230.46 316.597 230.46C316.013 230.46 315.478 230.316 314.991 230.028C314.507 229.736 314.119 229.337 313.827 228.83C313.539 228.319 313.395 227.736 313.395 227.08C313.395 226.456 313.534 225.886 313.812 225.369C314.094 224.849 314.489 224.435 314.996 224.126C315.506 223.818 316.106 223.669 316.795 223.679ZM316.795 224.773C316.378 224.773 316.002 224.877 315.667 225.086C315.335 225.291 315.072 225.57 314.876 225.921C314.684 226.269 314.588 226.655 314.588 227.08C314.588 227.504 314.681 227.89 314.866 228.238C315.055 228.583 315.312 228.858 315.637 229.063C315.965 229.265 316.338 229.366 316.756 229.366C317.071 229.366 317.364 229.305 317.636 229.183C317.907 229.057 318.144 228.886 318.347 228.67C318.552 228.452 318.713 228.205 318.829 227.93C318.945 227.651 319.003 227.361 319.003 227.06C319.003 226.662 318.907 226.289 318.714 225.941C318.526 225.593 318.264 225.311 317.929 225.096C317.598 224.88 317.22 224.773 316.795 224.773Z" fill="black"></path> <rect width="60" height="60" transform="translate(362.5 210)" fill="white"></rect> <rect x="362.5" y="210" width="60" height="60" fill="white" stroke="#828282"></rect> <path d="M377.134 223.818V234H375.901V225.111H375.841L373.355 226.761V225.509L375.901 223.818H377.134ZM383.383 234.139C382.634 234.139 381.996 233.935 381.469 233.528C380.942 233.117 380.539 232.522 380.261 231.743C379.982 230.961 379.843 230.016 379.843 228.909C379.843 227.809 379.982 226.869 380.261 226.09C380.542 225.308 380.947 224.711 381.474 224.3C382.004 223.886 382.64 223.679 383.383 223.679C384.125 223.679 384.76 223.886 385.287 224.3C385.817 224.711 386.222 225.308 386.5 226.09C386.782 226.869 386.923 227.809 386.923 228.909C386.923 230.016 386.783 230.961 386.505 231.743C386.227 232.522 385.824 233.117 385.297 233.528C384.77 233.935 384.132 234.139 383.383 234.139ZM383.383 233.045C384.125 233.045 384.702 232.687 385.113 231.972C385.524 231.256 385.729 230.235 385.729 228.909C385.729 228.027 385.635 227.277 385.446 226.657C385.26 226.037 384.992 225.565 384.641 225.24C384.293 224.915 383.873 224.753 383.383 224.753C382.647 224.753 382.072 225.116 381.658 225.842C381.243 226.564 381.036 227.587 381.036 228.909C381.036 229.791 381.129 230.54 381.315 231.156C381.5 231.773 381.767 232.242 382.115 232.563C382.466 232.885 382.889 233.045 383.383 233.045Z" fill="black"></path> <rect width="60" height="60" transform="translate(2.5 270)" fill="white"></rect> <rect x="2.5" y="270" width="60" height="60" fill="white" stroke="#828282"></rect> <path d="M18.1676 283.818V294H15.4034V286.364H15.3438L13.1165 287.696V285.349L15.6222 283.818H18.1676ZM25.2496 283.818V294H22.4854V286.364H22.4258L20.1985 287.696V285.349L22.7042 283.818H25.2496ZM30.4027 292.608V285.25H32.63V292.608H30.4027ZM27.8374 290.043V287.815H35.1953V290.043H27.8374Z" fill="#0A9F58"></path> <rect width="60" height="60" transform="translate(62.5 270)" fill="white"></rect> <rect x="62.5" y="270" width="60" height="60" fill="white" stroke="#828282"></rect> <path d="M77.1335 283.818V294H75.9006V285.111H75.8409L73.3551 286.761V285.509L75.9006 283.818H77.1335ZM80.0618 294V293.105L83.4226 289.426C83.817 288.995 84.1418 288.621 84.397 288.303C84.6522 287.981 84.8411 287.679 84.9638 287.398C85.0897 287.113 85.1527 286.814 85.1527 286.503C85.1527 286.145 85.0665 285.835 84.8942 285.573C84.7251 285.311 84.4931 285.109 84.1982 284.967C83.9032 284.824 83.5717 284.753 83.2038 284.753C82.8127 284.753 82.4714 284.834 82.1797 284.996C81.8913 285.156 81.6676 285.379 81.5085 285.668C81.3527 285.956 81.2749 286.294 81.2749 286.682H80.1016C80.1016 286.085 80.2391 285.562 80.5142 285.111C80.7893 284.66 81.1638 284.309 81.6378 284.057C82.1151 283.805 82.6503 283.679 83.2436 283.679C83.8402 283.679 84.3688 283.805 84.8295 284.057C85.2902 284.309 85.6515 284.648 85.9134 285.076C86.1752 285.504 86.3061 285.979 86.3061 286.503C86.3061 286.877 86.2382 287.244 86.1023 287.602C85.9697 287.956 85.7377 288.352 85.4062 288.79C85.0781 289.224 84.6224 289.754 84.0391 290.381L81.7521 292.827V292.906H86.4851V294H80.0618Z" fill="black"></path> <rect width="60" height="60" transform="translate(122.5 270)" fill="white"></rect> <rect x="122.5" y="270" width="60" height="60" fill="white" stroke="#828282"></rect> <path d="M138.168 283.818V294H135.403V286.364H135.344L133.116 287.696V285.349L135.622 283.818H138.168ZM144.235 294.139C143.433 294.139 142.721 294.002 142.098 293.727C141.478 293.448 140.991 293.065 140.636 292.578C140.281 292.091 140.102 291.531 140.099 290.898H142.883C142.886 291.093 142.946 291.269 143.062 291.425C143.181 291.577 143.344 291.696 143.549 291.783C143.755 291.869 143.99 291.912 144.255 291.912C144.511 291.912 144.736 291.867 144.931 291.778C145.127 291.685 145.279 291.557 145.389 291.395C145.498 291.232 145.551 291.047 145.548 290.838C145.551 290.633 145.488 290.45 145.359 290.291C145.233 290.132 145.056 290.008 144.827 289.918C144.598 289.829 144.335 289.784 144.037 289.784H143.002V287.875H144.037C144.312 287.875 144.554 287.83 144.762 287.741C144.975 287.651 145.139 287.527 145.255 287.368C145.374 287.209 145.432 287.027 145.429 286.821C145.432 286.622 145.384 286.446 145.284 286.294C145.185 286.142 145.046 286.022 144.867 285.936C144.691 285.85 144.487 285.807 144.255 285.807C144.003 285.807 143.778 285.852 143.579 285.941C143.384 286.031 143.23 286.155 143.117 286.314C143.004 286.473 142.946 286.655 142.943 286.861H140.298C140.301 286.238 140.472 285.687 140.81 285.21C141.151 284.733 141.619 284.358 142.212 284.087C142.805 283.815 143.486 283.679 144.255 283.679C145.008 283.679 145.672 283.807 146.249 284.062C146.829 284.317 147.281 284.668 147.606 285.116C147.934 285.56 148.097 286.069 148.093 286.642C148.1 287.212 147.904 287.679 147.507 288.044C147.112 288.409 146.612 288.624 146.005 288.69V288.77C146.827 288.859 147.445 289.111 147.86 289.526C148.274 289.937 148.478 290.454 148.471 291.077C148.475 291.673 148.296 292.202 147.934 292.663C147.576 293.123 147.078 293.485 146.438 293.746C145.801 294.008 145.067 294.139 144.235 294.139ZM152.768 292.608V285.25H154.995V292.608H152.768ZM150.203 290.043V287.815H157.561V290.043H150.203Z" fill="#0A9F58"></path> <rect width="60" height="60" transform="translate(182.5 270)" fill="white"></rect> <rect x="182.5" y="270" width="60" height="60" fill="white" stroke="#828282"></rect> <path d="M197.134 283.818V294H195.901V285.111H195.841L193.355 286.761V285.509L195.901 283.818H197.134ZM199.823 291.912V290.898L204.298 283.818H205.033V285.389H204.536L201.156 290.739V290.818H207.181V291.912H199.823ZM204.616 294V291.604V291.131V283.818H205.789V294H204.616Z" fill="black"></path> <rect width="60" height="60" transform="translate(242.5 270)" fill="white"></rect> <rect x="242.5" y="270" width="60" height="60" fill="white" stroke="#828282"></rect> <path d="M258.168 283.818V294H255.403V286.364H255.344L253.116 287.696V285.349L255.622 283.818H258.168ZM264.335 294.139C263.553 294.139 262.858 294.002 262.252 293.727C261.649 293.448 261.173 293.065 260.825 292.578C260.48 292.091 260.305 291.531 260.298 290.898H262.983C262.993 291.249 263.128 291.529 263.39 291.738C263.655 291.947 263.97 292.051 264.335 292.051C264.617 292.051 264.865 291.991 265.081 291.872C265.296 291.75 265.465 291.577 265.588 291.355C265.71 291.133 265.77 290.875 265.767 290.58C265.77 290.281 265.71 290.023 265.588 289.804C265.465 289.582 265.296 289.411 265.081 289.292C264.865 289.169 264.617 289.108 264.335 289.108C264.043 289.108 263.773 289.179 263.525 289.322C263.279 289.461 263.099 289.655 262.983 289.903L260.556 289.426L260.954 283.818H267.795V286.026H263.221L263.022 288.273H263.082C263.241 287.964 263.516 287.709 263.907 287.507C264.298 287.302 264.752 287.199 265.27 287.199C265.876 287.199 266.416 287.34 266.89 287.621C267.368 287.903 267.744 288.293 268.019 288.79C268.297 289.284 268.435 289.854 268.431 290.5C268.435 291.209 268.266 291.839 267.924 292.389C267.586 292.936 267.111 293.365 266.498 293.677C265.884 293.985 265.163 294.139 264.335 294.139ZM272.686 292.608V285.25H274.913V292.608H272.686ZM270.121 290.043V287.815H277.479V290.043H270.121Z" fill="#0A9F58"></path> <rect width="60" height="60" transform="translate(302.5 270)" fill="white"></rect> <rect x="302.5" y="270" width="60" height="60" fill="white" stroke="#828282"></rect> <path d="M317.134 283.818V294H315.901V285.111H315.841L313.355 286.761V285.509L315.901 283.818H317.134ZM323.442 294.139C323.025 294.133 322.607 294.053 322.19 293.901C321.772 293.748 321.391 293.491 321.046 293.13C320.701 292.765 320.425 292.273 320.216 291.653C320.007 291.03 319.903 290.248 319.903 289.307C319.903 288.405 319.987 287.607 320.156 286.911C320.325 286.211 320.571 285.623 320.892 285.146C321.214 284.665 321.601 284.3 322.055 284.052C322.513 283.803 323.028 283.679 323.602 283.679C324.172 283.679 324.679 283.793 325.123 284.022C325.57 284.247 325.935 284.562 326.217 284.967C326.498 285.371 326.681 285.837 326.763 286.364H325.55C325.438 285.906 325.219 285.527 324.894 285.225C324.569 284.924 324.138 284.773 323.602 284.773C322.813 284.773 322.191 285.116 321.737 285.802C321.286 286.488 321.059 287.451 321.056 288.69H321.136C321.321 288.409 321.542 288.168 321.797 287.969C322.055 287.767 322.34 287.612 322.652 287.502C322.964 287.393 323.293 287.338 323.641 287.338C324.225 287.338 324.758 287.484 325.242 287.776C325.726 288.064 326.114 288.463 326.406 288.974C326.697 289.481 326.843 290.062 326.843 290.719C326.843 291.348 326.702 291.925 326.42 292.449C326.139 292.969 325.743 293.384 325.232 293.692C324.725 293.997 324.129 294.146 323.442 294.139ZM323.442 293.045C323.86 293.045 324.235 292.941 324.566 292.732C324.901 292.523 325.164 292.243 325.357 291.892C325.552 291.541 325.65 291.15 325.65 290.719C325.65 290.298 325.555 289.915 325.366 289.57C325.181 289.222 324.924 288.946 324.596 288.74C324.271 288.535 323.9 288.432 323.482 288.432C323.167 288.432 322.874 288.495 322.602 288.621C322.33 288.743 322.092 288.912 321.886 289.128C321.684 289.343 321.525 289.59 321.409 289.869C321.293 290.144 321.235 290.434 321.235 290.739C321.235 291.143 321.33 291.521 321.518 291.872C321.711 292.223 321.973 292.507 322.304 292.722C322.639 292.938 323.018 293.045 323.442 293.045Z" fill="black"></path> <rect width="60" height="60" transform="translate(362.5 270)" fill="white"></rect> <rect x="362.5" y="270" width="60" height="60" fill="white" stroke="#828282"></rect> <path d="M377.134 283.818V294H375.901V285.111H375.841L373.355 286.761V285.509L375.901 283.818H377.134ZM380.38 294L384.934 284.991V284.912H379.684V283.818H386.207V284.972L381.673 294H380.38Z" fill="black"></path> <rect width="60" height="60" transform="translate(2.5 330)" fill="white"></rect> <rect x="2.5" y="330" width="60" height="60" fill="white" stroke="#828282"></rect> <path d="M18.1676 343.818V354H15.4034V346.364H15.3438L13.1165 347.696V345.349L15.6222 343.818H18.1676ZM24.4144 354.139C23.5924 354.139 22.8583 354.012 22.212 353.756C21.569 353.501 21.0619 353.155 20.6907 352.717C20.3228 352.28 20.1388 351.786 20.1388 351.236C20.1388 350.815 20.2433 350.43 20.4521 350.082C20.6642 349.734 20.9492 349.446 21.3072 349.217C21.6651 348.985 22.0645 348.836 22.5053 348.77V348.69C21.9253 348.591 21.448 348.334 21.0735 347.92C20.7023 347.502 20.5167 347.01 20.5167 346.443C20.5167 345.91 20.6857 345.436 21.0238 345.021C21.3619 344.604 21.8242 344.276 22.4109 344.037C22.9975 343.798 23.6654 343.679 24.4144 343.679C25.1635 343.679 25.8313 343.8 26.418 344.042C27.0046 344.281 27.467 344.609 27.805 345.026C28.1431 345.441 28.3121 345.913 28.3121 346.443C28.3121 347.013 28.1232 347.505 27.7454 347.92C27.3675 348.334 26.8936 348.591 26.3235 348.69V348.77C26.761 348.836 27.1587 348.985 27.5167 349.217C27.8746 349.446 28.1597 349.734 28.3718 350.082C28.5839 350.43 28.69 350.815 28.69 351.236C28.69 351.786 28.5044 352.28 28.1332 352.717C27.7653 353.155 27.2582 353.501 26.6119 353.756C25.9689 354.012 25.2364 354.139 24.4144 354.139ZM24.4144 352.23C24.6763 352.23 24.9083 352.177 25.1104 352.071C25.3126 351.965 25.4717 351.819 25.5877 351.634C25.707 351.445 25.7667 351.232 25.7667 350.997C25.7667 350.762 25.707 350.553 25.5877 350.371C25.4717 350.188 25.3126 350.046 25.1104 349.943C24.9083 349.837 24.6763 349.784 24.4144 349.784C24.1559 349.784 23.9239 349.837 23.7184 349.943C23.5162 350.046 23.3555 350.188 23.2362 350.371C23.1201 350.553 23.0621 350.762 23.0621 350.997C23.0621 351.232 23.1201 351.443 23.2362 351.629C23.3555 351.814 23.5162 351.962 23.7184 352.071C23.9239 352.177 24.1559 352.23 24.4144 352.23ZM24.4144 347.875C24.6464 347.875 24.8519 347.827 25.0309 347.731C25.2099 347.635 25.3507 347.502 25.4535 347.333C25.5562 347.164 25.6076 346.973 25.6076 346.761C25.6076 346.549 25.5562 346.362 25.4535 346.2C25.3507 346.034 25.2099 345.905 25.0309 345.812C24.8519 345.716 24.6464 345.668 24.4144 345.668C24.1857 345.668 23.9802 345.716 23.7979 345.812C23.619 345.905 23.4781 346.034 23.3754 346.2C23.2726 346.362 23.2212 346.549 23.2212 346.761C23.2212 346.973 23.2726 347.164 23.3754 347.333C23.4781 347.499 23.619 347.631 23.7979 347.731C23.9802 347.827 24.1857 347.875 24.4144 347.875ZM32.9867 352.608V345.25H35.214V352.608H32.9867ZM30.4213 350.043V347.815H37.7793V350.043H30.4213Z" fill="#0A9F58"></path> <rect width="60" height="60" transform="translate(62.5 330)" fill="white"></rect> <rect x="62.5" y="330" width="60" height="60" fill="white" stroke="#828282"></rect> <path d="M77.1335 343.818V354H75.9006V345.111H75.8409L73.3551 346.761V345.509L75.9006 343.818H77.1335ZM83.3033 343.679C83.7209 343.682 84.1385 343.762 84.5561 343.918C84.9737 344.073 85.3549 344.332 85.6996 344.693C86.0443 345.051 86.321 345.54 86.5298 346.16C86.7386 346.78 86.843 347.557 86.843 348.491C86.843 349.396 86.7569 350.2 86.5845 350.903C86.4155 351.602 86.1702 352.192 85.8487 352.673C85.5305 353.153 85.1428 353.518 84.6854 353.766C84.2313 354.015 83.7176 354.139 83.1442 354.139C82.5741 354.139 82.0653 354.027 81.6179 353.801C81.1738 353.572 80.8092 353.256 80.5241 352.852C80.2424 352.444 80.0618 351.972 79.9822 351.435H81.1953C81.3047 351.902 81.5218 352.288 81.8466 352.593C82.1747 352.895 82.6072 353.045 83.1442 353.045C83.9297 353.045 84.5495 352.702 85.0036 352.016C85.4609 351.33 85.6896 350.361 85.6896 349.108H85.6101C85.4245 349.386 85.2041 349.627 84.9489 349.829C84.6937 350.031 84.4103 350.187 84.0987 350.296C83.7872 350.406 83.4557 350.46 83.1044 350.46C82.5211 350.46 81.9858 350.316 81.4986 350.028C81.0147 349.736 80.6269 349.337 80.3352 348.83C80.0469 348.319 79.9027 347.736 79.9027 347.08C79.9027 346.456 80.0419 345.886 80.3203 345.369C80.602 344.849 80.9964 344.435 81.5036 344.126C82.014 343.818 82.6139 343.669 83.3033 343.679ZM83.3033 344.773C82.8857 344.773 82.5095 344.877 82.1747 345.086C81.8433 345.291 81.5798 345.57 81.3842 345.921C81.192 346.269 81.0959 346.655 81.0959 347.08C81.0959 347.504 81.1887 347.89 81.3743 348.238C81.5632 348.583 81.8201 348.858 82.1449 349.063C82.473 349.265 82.8459 349.366 83.2635 349.366C83.5784 349.366 83.8717 349.305 84.1435 349.183C84.4152 349.057 84.6522 348.886 84.8544 348.67C85.0599 348.452 85.2206 348.205 85.3366 347.93C85.4527 347.651 85.5107 347.361 85.5107 347.06C85.5107 346.662 85.4145 346.289 85.2223 345.941C85.0334 345.593 84.7715 345.311 84.4368 345.096C84.1054 344.88 83.7275 344.773 83.3033 344.773Z" fill="black"></path> <rect width="60" height="60" transform="translate(122.5 330)" fill="white"></rect> <rect x="122.5" y="330" width="60" height="60" fill="white" stroke="#828282"></rect> <path d="M133.176 354V352.011L136.974 348.869C137.226 348.661 137.442 348.465 137.621 348.283C137.803 348.097 137.942 347.906 138.038 347.711C138.138 347.515 138.188 347.298 138.188 347.06C138.188 346.798 138.131 346.574 138.018 346.388C137.909 346.203 137.757 346.06 137.561 345.961C137.366 345.858 137.14 345.807 136.885 345.807C136.63 345.807 136.404 345.858 136.209 345.961C136.017 346.064 135.867 346.214 135.761 346.413C135.655 346.612 135.602 346.854 135.602 347.139H132.977C132.977 346.423 133.138 345.807 133.46 345.29C133.781 344.773 134.235 344.375 134.822 344.097C135.408 343.818 136.096 343.679 136.885 343.679C137.7 343.679 138.406 343.81 139.003 344.072C139.603 344.33 140.065 344.695 140.39 345.165C140.718 345.636 140.882 346.188 140.882 346.821C140.882 347.212 140.801 347.602 140.638 347.989C140.476 348.374 140.184 348.8 139.763 349.267C139.343 349.734 138.744 350.291 137.969 350.938L137.014 351.733V351.793H140.991V354H133.176ZM146.662 354.278C145.737 354.275 144.938 354.061 144.265 353.637C143.592 353.213 143.074 352.601 142.709 351.803C142.345 351.004 142.164 350.046 142.167 348.929C142.171 347.809 142.353 346.857 142.714 346.075C143.079 345.293 143.596 344.698 144.265 344.29C144.938 343.883 145.737 343.679 146.662 343.679C147.586 343.679 148.385 343.884 149.058 344.295C149.731 344.703 150.249 345.298 150.614 346.08C150.979 346.862 151.159 347.812 151.156 348.929C151.156 350.053 150.974 351.014 150.609 351.812C150.244 352.611 149.726 353.223 149.053 353.647C148.383 354.068 147.586 354.278 146.662 354.278ZM146.662 352.031C147.139 352.031 147.53 351.783 147.835 351.286C148.143 350.785 148.296 350 148.292 348.929C148.292 348.23 148.223 347.658 148.083 347.214C147.944 346.77 147.752 346.442 147.507 346.229C147.261 346.014 146.98 345.906 146.662 345.906C146.184 345.906 145.795 346.148 145.493 346.632C145.192 347.116 145.038 347.882 145.031 348.929C145.028 349.642 145.096 350.228 145.235 350.689C145.374 351.146 145.566 351.484 145.811 351.703C146.06 351.922 146.343 352.031 146.662 352.031ZM155.516 352.608V345.25H157.743V352.608H155.516ZM152.951 350.043V347.815H160.309V350.043H152.951Z" fill="#0A9F58"></path> <rect width="60" height="60" transform="translate(182.5 330)" fill="white"></rect> <rect x="182.5" y="330" width="60" height="60" fill="white" stroke="#828282"></rect> <path d="M193.554 354V353.105L196.915 349.426C197.309 348.995 197.634 348.621 197.889 348.303C198.144 347.981 198.333 347.679 198.456 347.398C198.582 347.113 198.645 346.814 198.645 346.503C198.645 346.145 198.559 345.835 198.386 345.573C198.217 345.311 197.985 345.109 197.69 344.967C197.395 344.824 197.064 344.753 196.696 344.753C196.305 344.753 195.964 344.834 195.672 344.996C195.384 345.156 195.16 345.379 195.001 345.668C194.845 345.956 194.767 346.294 194.767 346.682H193.594C193.594 346.085 193.731 345.562 194.006 345.111C194.281 344.66 194.656 344.309 195.13 344.057C195.607 343.805 196.143 343.679 196.736 343.679C197.332 343.679 197.861 343.805 198.322 344.057C198.782 344.309 199.144 344.648 199.406 345.076C199.667 345.504 199.798 345.979 199.798 346.503C199.798 346.877 199.73 347.244 199.594 347.602C199.462 347.956 199.23 348.352 198.898 348.79C198.57 349.224 198.115 349.754 197.531 350.381L195.244 352.827V352.906H199.977V354H193.554ZM205.61 343.818V354H204.377V345.111H204.317L201.832 346.761V345.509L204.377 343.818H205.61Z" fill="black"></path> <rect width="60" height="60" transform="translate(242.5 330)" fill="white"></rect> <rect x="242.5" y="330" width="60" height="60" fill="white" stroke="#828282"></rect> <path d="M253.176 354V352.011L256.974 348.869C257.226 348.661 257.442 348.465 257.621 348.283C257.803 348.097 257.942 347.906 258.038 347.711C258.138 347.515 258.188 347.298 258.188 347.06C258.188 346.798 258.131 346.574 258.018 346.388C257.909 346.203 257.757 346.06 257.561 345.961C257.366 345.858 257.14 345.807 256.885 345.807C256.63 345.807 256.404 345.858 256.209 345.961C256.017 346.064 255.867 346.214 255.761 346.413C255.655 346.612 255.602 346.854 255.602 347.139H252.977C252.977 346.423 253.138 345.807 253.46 345.29C253.781 344.773 254.235 344.375 254.822 344.097C255.408 343.818 256.096 343.679 256.885 343.679C257.7 343.679 258.406 343.81 259.003 344.072C259.603 344.33 260.065 344.695 260.39 345.165C260.718 345.636 260.882 346.188 260.882 346.821C260.882 347.212 260.801 347.602 260.638 347.989C260.476 348.374 260.184 348.8 259.763 349.267C259.343 349.734 258.744 350.291 257.969 350.938L257.014 351.733V351.793H260.991V354H253.176ZM262.227 354V352.011L266.025 348.869C266.277 348.661 266.493 348.465 266.672 348.283C266.854 348.097 266.993 347.906 267.089 347.711C267.189 347.515 267.238 347.298 267.238 347.06C267.238 346.798 267.182 346.574 267.069 346.388C266.96 346.203 266.807 346.06 266.612 345.961C266.416 345.858 266.191 345.807 265.936 345.807C265.681 345.807 265.455 345.858 265.26 345.961C265.067 346.064 264.918 346.214 264.812 346.413C264.706 346.612 264.653 346.854 264.653 347.139H262.028C262.028 346.423 262.189 345.807 262.51 345.29C262.832 344.773 263.286 344.375 263.873 344.097C264.459 343.818 265.147 343.679 265.936 343.679C266.751 343.679 267.457 343.81 268.054 344.072C268.654 344.33 269.116 344.695 269.441 345.165C269.769 345.636 269.933 346.188 269.933 346.821C269.933 347.212 269.852 347.602 269.689 347.989C269.527 348.374 269.235 348.8 268.814 349.267C268.393 349.734 267.795 350.291 267.02 350.938L266.065 351.733V351.793H270.042V354H262.227ZM274.34 352.608V345.25H276.567V352.608H274.34ZM271.775 350.043V347.815H279.133V350.043H271.775Z" fill="#0A9F58"></path> <rect width="60" height="60" transform="translate(302.5 330)" fill="white"></rect> <rect x="302.5" y="330" width="60" height="60" fill="white" stroke="#828282"></rect> <path d="M313.554 354V353.105L316.915 349.426C317.309 348.995 317.634 348.621 317.889 348.303C318.144 347.981 318.333 347.679 318.456 347.398C318.582 347.113 318.645 346.814 318.645 346.503C318.645 346.145 318.559 345.835 318.386 345.573C318.217 345.311 317.985 345.109 317.69 344.967C317.395 344.824 317.064 344.753 316.696 344.753C316.305 344.753 315.964 344.834 315.672 344.996C315.384 345.156 315.16 345.379 315.001 345.668C314.845 345.956 314.767 346.294 314.767 346.682H313.594C313.594 346.085 313.731 345.562 314.006 345.111C314.281 344.66 314.656 344.309 315.13 344.057C315.607 343.805 316.143 343.679 316.736 343.679C317.332 343.679 317.861 343.805 318.322 344.057C318.782 344.309 319.144 344.648 319.406 345.076C319.667 345.504 319.798 345.979 319.798 346.503C319.798 346.877 319.73 347.244 319.594 347.602C319.462 347.956 319.23 348.352 318.898 348.79C318.57 349.224 318.115 349.754 317.531 350.381L315.244 352.827V352.906H319.977V354H313.554ZM325.471 354.139C324.815 354.139 324.23 354.027 323.716 353.801C323.205 353.576 322.799 353.263 322.498 352.862C322.2 352.457 322.037 351.988 322.011 351.455H323.263C323.29 351.783 323.403 352.066 323.602 352.305C323.8 352.54 324.061 352.722 324.382 352.852C324.704 352.981 325.06 353.045 325.451 353.045C325.888 353.045 326.276 352.969 326.614 352.817C326.952 352.664 327.218 352.452 327.41 352.18C327.602 351.909 327.698 351.594 327.698 351.236C327.698 350.861 327.605 350.531 327.42 350.246C327.234 349.958 326.962 349.733 326.604 349.57C326.246 349.408 325.809 349.327 325.292 349.327H324.477V348.233H325.292C325.696 348.233 326.051 348.16 326.356 348.014C326.664 347.868 326.904 347.663 327.077 347.398C327.252 347.133 327.34 346.821 327.34 346.463C327.34 346.118 327.264 345.818 327.112 345.563C326.959 345.308 326.744 345.109 326.465 344.967C326.19 344.824 325.865 344.753 325.491 344.753C325.139 344.753 324.808 344.817 324.496 344.947C324.188 345.073 323.936 345.257 323.741 345.499C323.545 345.737 323.439 346.026 323.423 346.364H322.229C322.249 345.83 322.41 345.363 322.712 344.962C323.013 344.557 323.408 344.242 323.895 344.017C324.385 343.792 324.924 343.679 325.511 343.679C326.14 343.679 326.681 343.807 327.131 344.062C327.582 344.314 327.929 344.647 328.17 345.061C328.412 345.475 328.533 345.923 328.533 346.403C328.533 346.977 328.383 347.466 328.081 347.87C327.783 348.274 327.377 348.554 326.863 348.71V348.79C327.506 348.896 328.008 349.169 328.369 349.61C328.731 350.048 328.911 350.589 328.911 351.236C328.911 351.789 328.76 352.286 328.459 352.727C328.161 353.165 327.753 353.509 327.236 353.761C326.719 354.013 326.13 354.139 325.471 354.139Z" fill="black"></path> <rect width="60" height="60" transform="translate(362.5 330)" fill="white"></rect> <rect x="362.5" y="330" width="60" height="60" fill="white" stroke="#828282"></rect> <path d="M373.554 354V353.105L376.915 349.426C377.309 348.995 377.634 348.621 377.889 348.303C378.144 347.981 378.333 347.679 378.456 347.398C378.582 347.113 378.645 346.814 378.645 346.503C378.645 346.145 378.559 345.835 378.386 345.573C378.217 345.311 377.985 345.109 377.69 344.967C377.395 344.824 377.064 344.753 376.696 344.753C376.305 344.753 375.964 344.834 375.672 344.996C375.384 345.156 375.16 345.379 375.001 345.668C374.845 345.956 374.767 346.294 374.767 346.682H373.594C373.594 346.085 373.731 345.562 374.006 345.111C374.281 344.66 374.656 344.309 375.13 344.057C375.607 343.805 376.143 343.679 376.736 343.679C377.332 343.679 377.861 343.805 378.322 344.057C378.782 344.309 379.144 344.648 379.406 345.076C379.667 345.504 379.798 345.979 379.798 346.503C379.798 346.877 379.73 347.244 379.594 347.602C379.462 347.956 379.23 348.352 378.898 348.79C378.57 349.224 378.115 349.754 377.531 350.381L375.244 352.827V352.906H379.977V354H373.554ZM381.573 351.912V350.898L386.048 343.818H386.783V345.389H386.286L382.906 350.739V350.818H388.931V351.912H381.573ZM386.366 354V351.604V351.131V343.818H387.539V354H386.366Z" fill="black"></path> <rect width="60" height="60" transform="translate(2.5 390)" fill="white"></rect> <path d="M2.5 390H62.5V450H2.5V390Z" fill="white" stroke="#828282"></path> <path d="M13.1761 414V412.011L16.9744 408.869C17.2263 408.661 17.4418 408.465 17.6207 408.283C17.803 408.097 17.9422 407.906 18.0384 407.711C18.1378 407.515 18.1875 407.298 18.1875 407.06C18.1875 406.798 18.1312 406.574 18.0185 406.388C17.9091 406.203 17.7566 406.06 17.5611 405.961C17.3655 405.858 17.1402 405.807 16.8849 405.807C16.6297 405.807 16.4044 405.858 16.2088 405.961C16.0166 406.064 15.8674 406.214 15.7614 406.413C15.6553 406.612 15.6023 406.854 15.6023 407.139H12.9773C12.9773 406.423 13.138 405.807 13.4595 405.29C13.781 404.773 14.2351 404.375 14.8217 404.097C15.4084 403.818 16.0961 403.679 16.8849 403.679C17.7003 403.679 18.4063 403.81 19.0028 404.072C19.6027 404.33 20.0651 404.695 20.3899 405.165C20.718 405.636 20.8821 406.188 20.8821 406.821C20.8821 407.212 20.8009 407.602 20.6385 407.989C20.4761 408.374 20.1844 408.8 19.7635 409.267C19.3426 409.734 18.7443 410.291 17.9688 410.938L17.0142 411.733V411.793H20.9915V414H13.1761ZM26.3036 414.139C25.5214 414.139 24.8271 414.002 24.2205 413.727C23.6173 413.448 23.1417 413.065 22.7937 412.578C22.449 412.091 22.2733 411.531 22.2667 410.898H24.9513C24.9613 411.249 25.0972 411.529 25.359 411.738C25.6242 411.947 25.939 412.051 26.3036 412.051C26.5853 412.051 26.8339 411.991 27.0494 411.872C27.2648 411.75 27.4338 411.577 27.5565 411.355C27.6791 411.133 27.7388 410.875 27.7354 410.58C27.7388 410.281 27.6791 410.023 27.5565 409.804C27.4338 409.582 27.2648 409.411 27.0494 409.292C26.8339 409.169 26.5853 409.108 26.3036 409.108C26.012 409.108 25.7418 409.179 25.4933 409.322C25.248 409.461 25.0674 409.655 24.9513 409.903L22.5252 409.426L22.9229 403.818H29.7638V406.026H25.19L24.9911 408.273H25.0508C25.2099 407.964 25.485 407.709 25.8761 407.507C26.2672 407.302 26.7212 407.199 27.2383 407.199C27.8448 407.199 28.3851 407.34 28.859 407.621C29.3363 407.903 29.7125 408.293 29.9876 408.79C30.266 409.284 30.4035 409.854 30.4002 410.5C30.4035 411.209 30.2345 411.839 29.8931 412.389C29.555 412.936 29.0794 413.365 28.4663 413.677C27.8531 413.985 27.1322 414.139 26.3036 414.139ZM34.6547 412.608V405.25H36.8819V412.608H34.6547ZM32.0893 410.043V407.815H39.4473V410.043H32.0893Z" fill="#0A9F58"></path> <rect width="60" height="60" transform="translate(62.5 390)" fill="white"></rect> <rect x="62.5" y="390" width="60" height="60" fill="white" stroke="#828282"></rect> <path d="M73.554 414V413.105L76.9148 409.426C77.3092 408.995 77.634 408.621 77.8892 408.303C78.1444 407.981 78.3333 407.679 78.456 407.398C78.5819 407.113 78.6449 406.814 78.6449 406.503C78.6449 406.145 78.5587 405.835 78.3864 405.573C78.2173 405.311 77.9853 405.109 77.6903 404.967C77.3954 404.824 77.0639 404.753 76.696 404.753C76.3049 404.753 75.9635 404.834 75.6719 404.996C75.3835 405.156 75.1598 405.379 75.0007 405.668C74.8449 405.956 74.767 406.294 74.767 406.682H73.5938C73.5938 406.085 73.7313 405.562 74.0064 405.111C74.2815 404.66 74.656 404.309 75.13 404.057C75.6072 403.805 76.1425 403.679 76.7358 403.679C77.3324 403.679 77.861 403.805 78.3217 404.057C78.7824 404.309 79.1437 404.648 79.4055 405.076C79.6674 405.504 79.7983 405.979 79.7983 406.503C79.7983 406.877 79.7304 407.244 79.5945 407.602C79.4619 407.956 79.2299 408.352 78.8984 408.79C78.5703 409.224 78.1146 409.754 77.5312 410.381L75.2443 412.827V412.906H79.9773V414H73.554ZM85.4112 414.139C84.9936 414.133 84.576 414.053 84.1584 413.901C83.7408 413.748 83.3596 413.491 83.0149 413.13C82.6702 412.765 82.3935 412.273 82.1847 411.653C81.9759 411.03 81.8714 410.248 81.8714 409.307C81.8714 408.405 81.956 407.607 82.125 406.911C82.294 406.211 82.5393 405.623 82.8608 405.146C83.1823 404.665 83.5701 404.3 84.0241 404.052C84.4815 403.803 84.9969 403.679 85.5703 403.679C86.1404 403.679 86.6475 403.793 87.0916 404.022C87.5391 404.247 87.9036 404.562 88.1854 404.967C88.4671 405.371 88.6494 405.837 88.7322 406.364H87.5192C87.4065 405.906 87.1877 405.527 86.8629 405.225C86.5381 404.924 86.1072 404.773 85.5703 404.773C84.7815 404.773 84.16 405.116 83.706 405.802C83.2552 406.488 83.0282 407.451 83.0249 408.69H83.1044C83.29 408.409 83.5104 408.168 83.7656 407.969C84.0241 407.767 84.3092 407.612 84.6207 407.502C84.9323 407.393 85.2621 407.338 85.6101 407.338C86.1934 407.338 86.727 407.484 87.2109 407.776C87.6948 408.064 88.0826 408.463 88.3743 408.974C88.666 409.481 88.8118 410.062 88.8118 410.719C88.8118 411.348 88.6709 411.925 88.3892 412.449C88.1075 412.969 87.7114 413.384 87.201 413.692C86.6939 413.997 86.0973 414.146 85.4112 414.139ZM85.4112 413.045C85.8288 413.045 86.2034 412.941 86.5348 412.732C86.8696 412.523 87.133 412.243 87.3253 411.892C87.5208 411.541 87.6186 411.15 87.6186 410.719C87.6186 410.298 87.5241 409.915 87.3352 409.57C87.1496 409.222 86.8928 408.946 86.5646 408.74C86.2398 408.535 85.8686 408.432 85.451 408.432C85.1361 408.432 84.8428 408.495 84.571 408.621C84.2992 408.743 84.0606 408.912 83.8551 409.128C83.6529 409.343 83.4938 409.59 83.3778 409.869C83.2618 410.144 83.2038 410.434 83.2038 410.739C83.2038 411.143 83.2983 411.521 83.4872 411.872C83.6795 412.223 83.9413 412.507 84.2727 412.722C84.6075 412.938 84.987 413.045 85.4112 413.045Z" fill="black"></path> <rect width="60" height="60" transform="translate(122.5 390)" fill="white"></rect> <rect x="122.5" y="390" width="60" height="60" fill="white" stroke="#828282"></rect> <path d="M133.176 414V412.011L136.974 408.869C137.226 408.661 137.442 408.465 137.621 408.283C137.803 408.097 137.942 407.906 138.038 407.711C138.138 407.515 138.188 407.298 138.188 407.06C138.188 406.798 138.131 406.574 138.018 406.388C137.909 406.203 137.757 406.06 137.561 405.961C137.366 405.858 137.14 405.807 136.885 405.807C136.63 405.807 136.404 405.858 136.209 405.961C136.017 406.064 135.867 406.214 135.761 406.413C135.655 406.612 135.602 406.854 135.602 407.139H132.977C132.977 406.423 133.138 405.807 133.46 405.29C133.781 404.773 134.235 404.375 134.822 404.097C135.408 403.818 136.096 403.679 136.885 403.679C137.7 403.679 138.406 403.81 139.003 404.072C139.603 404.33 140.065 404.695 140.39 405.165C140.718 405.636 140.882 406.188 140.882 406.821C140.882 407.212 140.801 407.602 140.638 407.989C140.476 408.374 140.184 408.8 139.763 409.267C139.343 409.734 138.744 410.291 137.969 410.938L137.014 411.733V411.793H140.991V414H133.176ZM142.684 414L146.681 406.085V406.026H141.988V403.818H149.545V406.026L145.528 414H142.684ZM153.834 412.608V405.25H156.062V412.608H153.834ZM151.269 410.043V407.815H158.627V410.043H151.269Z" fill="#0A9F58"></path> <rect width="60" height="60" transform="translate(182.5 390)" fill="white"></rect> <rect x="182.5" y="390" width="60" height="60" fill="white" stroke="#828282"></rect> <path d="M193.554 414V413.105L196.915 409.426C197.309 408.995 197.634 408.621 197.889 408.303C198.144 407.981 198.333 407.679 198.456 407.398C198.582 407.113 198.645 406.814 198.645 406.503C198.645 406.145 198.559 405.835 198.386 405.573C198.217 405.311 197.985 405.109 197.69 404.967C197.395 404.824 197.064 404.753 196.696 404.753C196.305 404.753 195.964 404.834 195.672 404.996C195.384 405.156 195.16 405.379 195.001 405.668C194.845 405.956 194.767 406.294 194.767 406.682H193.594C193.594 406.085 193.731 405.562 194.006 405.111C194.281 404.66 194.656 404.309 195.13 404.057C195.607 403.805 196.143 403.679 196.736 403.679C197.332 403.679 197.861 403.805 198.322 404.057C198.782 404.309 199.144 404.648 199.406 405.076C199.667 405.504 199.798 405.979 199.798 406.503C199.798 406.877 199.73 407.244 199.594 407.602C199.462 407.956 199.23 408.352 198.898 408.79C198.57 409.224 198.115 409.754 197.531 410.381L195.244 412.827V412.906H199.977V414H193.554ZM205.292 414.139C204.609 414.139 204.006 414.018 203.482 413.776C202.962 413.531 202.556 413.195 202.264 412.767C201.973 412.336 201.828 411.846 201.832 411.295C201.828 410.865 201.913 410.467 202.085 410.102C202.258 409.734 202.493 409.428 202.791 409.183C203.093 408.934 203.429 408.777 203.8 408.71V408.651C203.313 408.525 202.925 408.251 202.637 407.83C202.349 407.406 202.206 406.924 202.21 406.384C202.206 405.866 202.337 405.404 202.602 404.996C202.867 404.589 203.232 404.267 203.696 404.032C204.163 403.797 204.695 403.679 205.292 403.679C205.882 403.679 206.409 403.797 206.873 404.032C207.337 404.267 207.701 404.589 207.967 404.996C208.235 405.404 208.371 405.866 208.374 406.384C208.371 406.924 208.223 407.406 207.932 407.83C207.643 408.251 207.261 408.525 206.783 408.651V408.71C207.151 408.777 207.483 408.934 207.778 409.183C208.073 409.428 208.308 409.734 208.484 410.102C208.659 410.467 208.749 410.865 208.752 411.295C208.749 411.846 208.6 412.336 208.305 412.767C208.013 413.195 207.607 413.531 207.087 413.776C206.57 414.018 205.971 414.139 205.292 414.139ZM205.292 413.045C205.753 413.045 206.15 412.971 206.485 412.822C206.82 412.673 207.078 412.462 207.261 412.19C207.443 411.919 207.536 411.6 207.539 411.236C207.536 410.851 207.436 410.512 207.241 410.217C207.045 409.922 206.778 409.69 206.44 409.521C206.106 409.352 205.723 409.267 205.292 409.267C204.858 409.267 204.47 409.352 204.129 409.521C203.79 409.69 203.524 409.922 203.328 410.217C203.136 410.512 203.041 410.851 203.045 411.236C203.041 411.6 203.129 411.919 203.308 412.19C203.491 412.462 203.751 412.673 204.089 412.822C204.427 412.971 204.828 413.045 205.292 413.045ZM205.292 408.213C205.656 408.213 205.98 408.14 206.261 407.994C206.546 407.848 206.77 407.645 206.933 407.383C207.095 407.121 207.178 406.814 207.181 406.463C207.178 406.118 207.097 405.818 206.938 405.563C206.778 405.305 206.558 405.106 206.276 404.967C205.995 404.824 205.666 404.753 205.292 404.753C204.911 404.753 204.578 404.824 204.293 404.967C204.008 405.106 203.787 405.305 203.631 405.563C203.476 405.818 203.399 406.118 203.403 406.463C203.399 406.814 203.477 407.121 203.636 407.383C203.799 407.645 204.022 407.848 204.308 407.994C204.593 408.14 204.921 408.213 205.292 408.213Z" fill="black"></path> <rect width="60" height="60" transform="translate(242.5 390)" fill="white"></rect> <rect x="242.5" y="390" width="60" height="60" fill="white" stroke="#828282"></rect> <path d="M253.176 414V412.011L256.974 408.869C257.226 408.661 257.442 408.465 257.621 408.283C257.803 408.097 257.942 407.906 258.038 407.711C258.138 407.515 258.188 407.298 258.188 407.06C258.188 406.798 258.131 406.574 258.018 406.388C257.909 406.203 257.757 406.06 257.561 405.961C257.366 405.858 257.14 405.807 256.885 405.807C256.63 405.807 256.404 405.858 256.209 405.961C256.017 406.064 255.867 406.214 255.761 406.413C255.655 406.612 255.602 406.854 255.602 407.139H252.977C252.977 406.423 253.138 405.807 253.46 405.29C253.781 404.773 254.235 404.375 254.822 404.097C255.408 403.818 256.096 403.679 256.885 403.679C257.7 403.679 258.406 403.81 259.003 404.072C259.603 404.33 260.065 404.695 260.39 405.165C260.718 405.636 260.882 406.188 260.882 406.821C260.882 407.212 260.801 407.602 260.638 407.989C260.476 408.374 260.184 408.8 259.763 409.267C259.343 409.734 258.744 410.291 257.969 410.938L257.014 411.733V411.793H260.991V414H253.176ZM266.204 403.679C266.797 403.679 267.359 403.773 267.89 403.962C268.42 404.148 268.889 404.441 269.297 404.842C269.708 405.243 270.029 405.767 270.261 406.413C270.496 407.056 270.616 407.835 270.619 408.75C270.622 409.585 270.518 410.336 270.306 411.002C270.097 411.665 269.797 412.23 269.406 412.697C269.018 413.165 268.551 413.523 268.004 413.771C267.46 414.017 266.854 414.139 266.184 414.139C265.432 414.139 264.771 413.995 264.201 413.707C263.631 413.418 263.176 413.031 262.838 412.543C262.5 412.056 262.303 411.514 262.247 410.918H264.971C265.038 411.226 265.183 411.45 265.409 411.589C265.634 411.725 265.893 411.793 266.184 411.793C266.768 411.793 267.194 411.541 267.462 411.037C267.734 410.53 267.871 409.854 267.875 409.009H267.815C267.686 409.32 267.49 409.587 267.228 409.809C266.967 410.031 266.662 410.202 266.314 410.321C265.966 410.44 265.598 410.5 265.21 410.5C264.597 410.5 264.06 410.362 263.599 410.087C263.138 409.809 262.779 409.429 262.52 408.949C262.262 408.465 262.131 407.915 262.127 407.298C262.124 406.576 262.295 405.943 262.64 405.399C262.984 404.856 263.463 404.433 264.076 404.131C264.69 403.83 265.399 403.679 266.204 403.679ZM266.224 405.767C265.949 405.767 265.704 405.83 265.488 405.956C265.276 406.082 265.109 406.253 264.986 406.468C264.867 406.683 264.809 406.927 264.812 407.199C264.815 407.471 264.877 407.714 264.996 407.93C265.119 408.145 265.284 408.316 265.493 408.442C265.705 408.568 265.949 408.631 266.224 408.631C266.426 408.631 266.614 408.596 266.786 408.526C266.958 408.453 267.107 408.352 267.233 408.223C267.363 408.09 267.462 407.938 267.532 407.766C267.605 407.59 267.639 407.401 267.636 407.199C267.633 406.927 267.57 406.683 267.447 406.468C267.324 406.253 267.157 406.082 266.945 405.956C266.733 405.83 266.493 405.767 266.224 405.767ZM274.873 412.608V405.25H277.101V412.608H274.873ZM272.308 410.043V407.815H279.666V410.043H272.308Z" fill="#0A9F58"></path> <rect width="60" height="60" transform="translate(302.5 390)" fill="white"></rect> <rect x="302.5" y="390" width="60" height="60" fill="white" stroke="#828282"></rect> <path d="M316.994 414.139C316.338 414.139 315.753 414.027 315.239 413.801C314.729 413.576 314.323 413.263 314.021 412.862C313.723 412.457 313.561 411.988 313.534 411.455H314.787C314.813 411.783 314.926 412.066 315.125 412.305C315.324 412.54 315.584 412.722 315.906 412.852C316.227 412.981 316.583 413.045 316.974 413.045C317.412 413.045 317.8 412.969 318.138 412.817C318.476 412.664 318.741 412.452 318.933 412.18C319.125 411.909 319.222 411.594 319.222 411.236C319.222 410.861 319.129 410.531 318.943 410.246C318.758 409.958 318.486 409.733 318.128 409.57C317.77 409.408 317.332 409.327 316.815 409.327H316V408.233H316.815C317.22 408.233 317.574 408.16 317.879 408.014C318.188 407.868 318.428 407.663 318.6 407.398C318.776 407.133 318.864 406.821 318.864 406.463C318.864 406.118 318.787 405.818 318.635 405.563C318.482 405.308 318.267 405.109 317.989 404.967C317.714 404.824 317.389 404.753 317.014 404.753C316.663 404.753 316.331 404.817 316.02 404.947C315.712 405.073 315.46 405.257 315.264 405.499C315.069 405.737 314.963 406.026 314.946 406.364H313.753C313.773 405.83 313.933 405.363 314.235 404.962C314.537 404.557 314.931 404.242 315.418 404.017C315.909 403.792 316.447 403.679 317.034 403.679C317.664 403.679 318.204 403.807 318.655 404.062C319.106 404.314 319.452 404.647 319.694 405.061C319.936 405.475 320.057 405.923 320.057 406.403C320.057 406.977 319.906 407.466 319.604 407.87C319.306 408.274 318.9 408.554 318.386 408.71V408.79C319.029 408.896 319.531 409.169 319.893 409.61C320.254 410.048 320.435 410.589 320.435 411.236C320.435 411.789 320.284 412.286 319.982 412.727C319.684 413.165 319.276 413.509 318.759 413.761C318.242 414.013 317.654 414.139 316.994 414.139ZM325.789 414.139C325.04 414.139 324.402 413.935 323.875 413.528C323.348 413.117 322.945 412.522 322.667 411.743C322.388 410.961 322.249 410.016 322.249 408.909C322.249 407.809 322.388 406.869 322.667 406.09C322.949 405.308 323.353 404.711 323.88 404.3C324.41 403.886 325.047 403.679 325.789 403.679C326.531 403.679 327.166 403.886 327.693 404.3C328.223 404.711 328.628 405.308 328.906 406.09C329.188 406.869 329.329 407.809 329.329 408.909C329.329 410.016 329.19 410.961 328.911 411.743C328.633 412.522 328.23 413.117 327.703 413.528C327.176 413.935 326.538 414.139 325.789 414.139ZM325.789 413.045C326.531 413.045 327.108 412.687 327.519 411.972C327.93 411.256 328.136 410.235 328.136 408.909C328.136 408.027 328.041 407.277 327.852 406.657C327.667 406.037 327.398 405.565 327.047 405.24C326.699 404.915 326.28 404.753 325.789 404.753C325.053 404.753 324.478 405.116 324.064 405.842C323.65 406.564 323.442 407.587 323.442 408.909C323.442 409.791 323.535 410.54 323.721 411.156C323.906 411.773 324.173 412.242 324.521 412.563C324.873 412.885 325.295 413.045 325.789 413.045Z" fill="black"></path> <rect width="60" height="60" transform="translate(362.5 390)" fill="white"></rect> <path d="M362.5 390H422.5V450H362.5V390Z" fill="white" stroke="#828282"></path> </svg> 